<?xml version="1.0" encoding="iso-8859-1"?>
<!-- Generator: Adobe Illustrator 18.1.1, SVG Export Plug-In . SVG Version: 6.00 Build 0)  -->
<svg version="1.1" id="Layer_1" xmlns="http://www.w3.org/2000/svg" xmlns:xlink="http://www.w3.org/1999/xlink" x="0px" y="0px"
	 viewBox="0 0 159.582 214.749" style="enable-background:new 0 0 159.582 214.749;" xml:space="preserve">
<path style="fill:#545554;" d="M38.899,166.4h61.791c6.6,0,12-5.4,12-12V83.866c0-6.6-5.4-12-12-12H38.899c-6.6,0-12,5.4-12,12
	V154.4C26.899,161,32.299,166.4,38.899,166.4z"/>
<g>
	<path style="fill:#831523;" d="M48.048,84.473c-5.201,19.439-7.584,35.923-8.76,48.165c-1.609,16.738-0.743,23.248,3.998,28.043
		c6.432,6.507,16.817,6.643,28.598,6.798c12.297,0.162,24.76,0.326,31.673-7.082c3.456-3.704,5.462-7.249,2.46-27.76
		c-1.659-11.336-4.87-29.383-11.685-48.439C78.903,84.291,63.476,84.382,48.048,84.473z"/>
	<ellipse style="fill:#E3A47A;" cx="71.179" cy="92.683" rx="12.125" ry="7.625"/>
	<polygon style="fill:#831523;" points="79.24,107.43 72.01,103.444 77.988,91.135 85.217,95.121 	"/>
	<rect x="67.404" y="103.166" style="fill:#7A1426;" width="8.39" height="64.315"/>
	<polygon style="fill:#7A1426;" points="75.726,103.115 68.977,107.872 59.356,95.632 66.105,90.875 	"/>
	<polygon style="fill:#6F1327;" points="48.023,84.397 61.258,99.703 66.1,90.964 	"/>
	<polygon style="fill:#6F1327;" points="94.393,84.362 82.863,97.85 78.054,90.923 	"/>
	<circle style="fill:#431117;" cx="71.653" cy="105.361" r="1.789"/>
	<circle style="fill:#431117;" cx="71.653" cy="123.83" r="1.789"/>
	<circle style="fill:#431117;" cx="71.653" cy="142.299" r="1.789"/>
	<circle style="fill:#431117;" cx="71.653" cy="160.768" r="1.789"/>
</g>
<g>
	<path style="fill:#E3A47A;" d="M101.016,38.903c1.502-0.56,3.649,1.321,4.574,2.983c2.782,4.997-2.935,12.6-4.972,12.132
		C98.141,53.45,97.649,40.157,101.016,38.903z"/>
	<path style="fill:#E3A47A;" d="M41.232,38.903c-1.502-0.56-3.649,1.321-4.574,2.983c-2.782,4.997,2.935,12.6,4.972,12.132
		C44.107,53.45,44.599,40.157,41.232,38.903z"/>
	<path style="fill:#603813;" d="M102.956,34.199c-0.553-2.737-0.187-5.541-0.014-8.316c0.175-2.777,0.135-5.656-1.156-8.197
		c-1.291-2.543-4.113-4.671-7.301-4.622c0.109-0.228,0.48-0.916,1.346-1.277c1.022-0.426,2.32-0.222,3.282,0.52
		c-0.895-0.91-2.173-2.022-3.905-3.057c-2.377-1.42-4.654-2.126-6.239-2.493c1.114-0.685,3.922-2.195,7.368-1.775
		c0.655,0.08,1.25,0.219,1.781,0.388c-0.718-0.632-1.833-1.486-3.381-2.211c-4.291-2.011-8.578-1.47-11.318-1.125
		c-5.486,0.691-9.532,2.816-11.834,4.289c1.233-2.591,4.03-4.57,7.192-5.089c0.663-0.168,1.325-0.336,1.988-0.504
		c-0.871-0.219-2.126-0.484-3.657-0.629c-3.894-0.369-6.704,0.292-11.608,1.539c0,0-7.837,2.024-12.691,4.757
		c-0.835,0.47-1.58,0.973-1.58,0.973c-0.334,0.228-0.643,0.45-0.931,0.665C50.15,7.67,49.891,6.875,50.081,5.88
		c0.196-1.03,0.768-1.725,1.05-2.027c-0.608,0.152-1.641,0.492-2.603,1.279c-1.732,1.417-1.963,3.248-2.007,3.748
		c-0.223-0.223-0.547-0.611-0.727-1.159c-0.339-1.035,0.075-1.911,0.215-2.177c-0.666,0.393-4.766,2.899-5.271,7.371
		c-0.237,2.103,0.416,3.803,0.884,4.746c-0.872,2.255-1.95,5.64-2.375,9.823c-0.557,5.475,1.165,8.486,0.993,13.079
		C38.649,83.099,54.4,90.187,71.725,90.187c15.751,0,27.571-10.358,29.139-17.72c1.443-6.775,2.693-13.593,2.86-24.752
		C103.792,43.197,103.855,38.648,102.956,34.199z"/>
	<path style="fill:#E3A47A;" d="M55.661,27.849c3.967-0.728,4.825-0.254,8.293-0.652c8.584-0.987,11.423-4.822,17.119-3.518
		c1.568,0.359,2.744,0.968,3.429,1.373c-0.534-0.116-1.148-0.18-1.82-0.125c-3.066,0.25-4.869,2.773-5.183,3.229
		c2.337-0.445,14.316-2.539,20.111,3.67c0.874,0.937,1.37,1.808,1.668,2.339c2.961,5.272,0.092,8.531-0.045,17.747
		c-0.08,5.374,0.854,7.101-0.852,10.059c-1.55,2.688-3.969,4.12-4.787,4.592c-4.71,2.718-9.681,2.094-14.749,1.795
		c-19.047-1.124-22.352,0.921-29.714-1.262c-3.379-1.002-4.709-4.639-5.231-7.825c-0.819-4.99-0.825-10.06-0.83-15.109
		c-0.002-1.986-0.004-3.974-0.006-5.962c-0.003-1.287,0.004-2.609,0.519-3.811c0.87-2.032,2.805-3.07,4.626-4.06
		C49.819,29.453,52.034,28.515,55.661,27.849z"/>
	<g style="opacity:0.6;">
		<g>
			<path style="fill:#8A5D3B;" d="M75.573,57.745c0,0,0.421,0.451,1.106,1.289c0.337,0.424,0.749,0.935,1.153,1.588
				c0.091,0.185,0.214,0.298,0.252,0.609c0.007,0.197,0.01,0.402-0.048,0.645c-0.1,0.457-0.325,0.875-0.611,1.267
				c-0.59,0.77-1.396,1.429-2.315,2.006c-0.944,0.583-2.048,0.974-3.241,1.142c-1.187,0.167-2.491,0.072-3.681-0.427
				c-0.587-0.226-1.175-0.607-1.652-0.977c-0.53-0.425-0.957-0.906-1.333-1.444c-0.727-1.088-1.156-2.332-1.291-3.608l0.009-0.497
				c0.014-0.163,0.057-0.353,0.09-0.526c0.092-0.336,0.235-0.638,0.407-0.92c0.357-0.552,0.812-0.971,1.216-1.373
				c0.408-0.399,0.77-0.796,0.962-1.228c0.206-0.447,0.152-0.876,0.038-1.413c-0.224-1.056-0.237-2.115-0.172-3.04
				c0.138-1.873,0.55-3.367,0.693-4.432c0.183-1.063,0.082-1.68,0.082-1.68s0.172,0.609,0.071,1.698
				c-0.082,1.08-0.338,2.612-0.402,4.436c-0.02,0.919,0.03,1.883,0.29,2.894c0.133,0.481,0.262,1.186,0.001,1.78
				c-0.231,0.605-0.675,1.052-1.077,1.468c-0.409,0.415-0.816,0.812-1.1,1.268c-0.134,0.229-0.242,0.472-0.307,0.718
				c-0.016,0.123-0.05,0.227-0.062,0.364l-0.006,0.412c0.134,1.134,0.551,2.283,1.209,3.236c0.32,0.478,0.719,0.93,1.142,1.281
				c0.244,0.188,0.47,0.374,0.717,0.508c0.241,0.159,0.497,0.285,0.76,0.398c1.047,0.458,2.213,0.565,3.309,0.427
				c1.092-0.15,2.158-0.462,3.038-0.959c0.896-0.509,1.69-1.107,2.258-1.785c0.277-0.34,0.482-0.716,0.591-1.076
				c0.06-0.165,0.078-0.37,0.084-0.574c0.008-0.088-0.102-0.313-0.174-0.46c-0.341-0.653-0.716-1.195-1.02-1.637
				C75.931,58.247,75.573,57.745,75.573,57.745z"/>
		</g>
	</g>
	<g>
		<g>
			<circle style="fill:#716558;" cx="62.307" cy="42.61" r="2.627"/>
			<circle cx="62.307" cy="42.61" r="1.169"/>
		</g>
		<g>
			<circle style="fill:#716558;" cx="88.958" cy="42.61" r="2.627"/>
			<circle cx="88.958" cy="42.61" r="1.169"/>
		</g>
	</g>
	<g>
		<path style="opacity:0.27;fill:#A0DAE4;" d="M63.097,36.511H52.846c-2.213,0-4.023,1.81-4.023,4.023v4.152
			c0,2.213,1.81,4.023,4.023,4.023h10.251c2.213,0,4.023-1.81,4.023-4.023v-4.152C67.12,38.321,65.31,36.511,63.097,36.511z"/>
		<path style="opacity:0.27;fill:#A0DAE4;" d="M90.404,36.511H78.842c-1.852,0-3.368,1.516-3.368,3.368v5.463
			c0,1.852,1.516,3.368,3.368,3.368h11.562c1.852,0,3.368-1.516,3.368-3.368v-5.463C93.772,38.026,92.256,36.511,90.404,36.511z"/>
	</g>
	<path style="fill:#231F20;" d="M91.317,36.424H76.894l-1.943,0.526c-0.174,0.047-0.353,0.071-0.534,0.071h-6.201
		c-0.144,0-0.289-0.015-0.43-0.046l-2.56-0.551H51.675c-1.569,0-2.853,1.284-2.853,2.853v0c0,0.155,0.091,0.288,0.222,0.353
		c0.545-1.578,2.044-2.722,3.802-2.722h10.251c1.351,0,1.972-0.407,3.422,1.497c0.525,0.689,0.674-0.921,1.48-0.921h6.69
		c0.847,0,0.751,1.704,1.286,0.835c0.621-1.007,1.657-1.41,2.866-1.41h11.562c1.593,0,2.934,1.122,3.279,2.614
		c0.055-0.068,0.089-0.153,0.089-0.246v0C93.772,37.708,92.886,36.424,91.317,36.424z"/>
	<path d="M50.786,36.682l-11.494,1.892c-0.704,0.116-0.544,1.097,0.162,0.981l11.084-2.089
		C51.242,37.351,51.492,36.566,50.786,36.682z"/>
	<path d="M92.363,36.75l11.101,1.828c0.68,0.112,0.52,1.093-0.162,0.981l-10.704-2.027C91.919,37.42,91.681,36.638,92.363,36.75z"/>
	<g>
		<path style="fill:#B65D89;" d="M61.734,72.505c6.544-0.279,13.089-0.559,19.633-0.838c-1.731,4.635-5.635,7.722-9.905,7.838
			C67.294,79.618,63.489,76.881,61.734,72.505z"/>
		<path style="fill:#DDDDDC;" d="M81.525,71.603c-0.155-0.374-19.786,0.429-19.95,0.888c0.252,0.427,0.933,1.671,1.375,2.35
			c0.148,0.228,0.341,0.344,0.545,0.338c5.283-0.161,10.567-0.321,15.85-0.482c0.175-0.005,0.347-0.101,0.479-0.288
			C80.359,73.651,81.193,72.234,81.525,71.603z"/>
	</g>
</g>
<path style="fill:#831523;" d="M112.052,111.764c1.745,3.537-10.463,11.802-13.359,8.883C74.297,96.055,77.51,93.747,78.991,92.124
	c0.842-0.923,4.459,0.066,10.014-2.297c1.613-0.686,2.602-1.32,3.325-1.855c1.694-1.252,4.151-1.311,5.741-0.11
	C101.558,90.499,100.77,91.448,112.052,111.764L112.052,111.764L112.052,111.764z"/>
<g>
	<path style="fill:#0E2B47;" d="M66.25,211.643l-19.008-0.183c-3.716-0.036-6.727-3.105-6.691-6.821l0.62-64.533
		c0.036-3.716,3.105-6.727,6.821-6.691L67,133.598c3.716,0.036,6.727,3.105,6.691,6.821l-0.62,64.533
		C73.035,208.668,69.966,211.679,66.25,211.643z"/>
	<path style="fill:#0E2B47;" d="M100.603,211.117l-18.991,0.803c-3.713,0.157-6.879-2.752-7.036-6.465l-2.728-64.479
		c-0.157-3.713,2.752-6.879,6.465-7.036l18.991-0.803c3.713-0.157,6.879,2.752,7.036,6.465l2.728,64.479
		C107.225,207.794,104.316,210.96,100.603,211.117z"/>
	<path d="M40.202,209.636c0,2.025,2.764,2.413,6.059,2.156c7.229-0.563,14.492-0.563,21.721,0c3.294,0.257,6.059-0.131,6.059-2.156
		c0-5.009-7.575-12.092-16.919-12.092S40.202,204.627,40.202,209.636z"/>
	<path d="M74.041,209.636c0,2.025,2.764,2.413,6.059,2.156c7.229-0.563,14.492-0.563,21.721,0c3.294,0.257,6.059-0.131,6.059-2.156
		c0-5.009-7.575-12.092-16.919-12.092S74.041,204.627,74.041,209.636z"/>
</g>
<path style="fill:#831523;" d="M37.233,125.894c-3.049,2.665-13.868-7.889-11.681-11.59c18.421-31.168,21.397-28.423,23.314-27.295
	c1.09,0.641,0.947,4.612,4.508,9.757c1.034,1.494,1.876,2.358,2.56,2.972c1.603,1.439,2.219,3.956,1.409,5.889
	C55.566,109.867,54.462,109.287,37.233,125.894L37.233,125.894L37.233,125.894z"/>
<path style="fill:#E3A47A;" d="M138.771,120.702c5.391,2.763,8.352,7.467,6.613,10.506c-1.739,3.04-7.518,3.265-12.909,0.502
	c-5.391-2.763-8.352-7.467-6.613-10.506C127.6,118.164,133.38,117.939,138.771,120.702z"/>
<path style="fill:#831523;" d="M131.969,118.256c3.515,2.148,0.594,12.311-3.303,10.998c-32.825-11.062-32.143-13.838-32.197-15.544
	c-0.031-0.971,3.093-1.358,5.339-4.915c0.652-1.033,0.913-1.829,1.056-2.465c0.336-1.49,1.977-2.312,3.853-1.897
	C110.832,105.343,110.917,106.316,131.969,118.256L131.969,118.256L131.969,118.256z"/>
<path style="fill:#050505;" d="M102.193,161.108c-6.668,6.721-18.69,6.572-30.552,6.426c-11.364-0.141-21.382-0.265-27.586-6.169
	c-2.749-2.616-4.14-5.811-4.48-11.231c-0.452,9.515,0.805,14.027,4.48,17.523c6.204,5.904,16.222,6.028,27.586,6.169
	c11.862,0.147,23.884,0.296,30.552-6.426c2.542-2.563,4.268-5.05,3.662-14.336C105.443,157.439,104.032,159.255,102.193,161.108z"/>
<circle style="fill:#431117;" cx="71.408" cy="161.443" r="1.789"/>
<path style="fill:#686666;" d="M77.611,173.869h-9.496c-0.856,0-1.556-0.7-1.556-1.556v-2.702c0-0.856,0.7-1.556,1.556-1.556h9.496
	c0.856,0,1.556,0.7,1.556,1.556v2.702C79.167,173.169,78.466,173.869,77.611,173.869z"/>
<g>
	<g>
		<path style="fill:#E3A47A;" d="M54.007,146.006c3.361,2.911,5.51,6.139,4.8,7.21c-0.71,1.071-4.01-0.42-7.372-3.331
			c-3.361-2.911-5.51-6.139-4.8-7.21C47.345,141.604,50.646,143.095,54.007,146.006z"/>
		<path style="fill:#E3A47A;" d="M55.047,149.513c2.449,5.966,1.809,11.838-1.43,13.115c-3.238,1.277-7.849-2.525-10.297-8.491
			c-2.449-5.966-1.809-11.838,1.43-13.115C47.988,139.745,52.598,143.547,55.047,149.513z"/>
	</g>
	<path style="fill:#831523;" d="M51.309,142.832c1.381,4.173-7.209,10.435-9.405,6.679c-18.498-31.638-16.242-33.428-15.22-34.855
		c0.581-0.811,3.238,1.026,7.191-0.322c1.148-0.391,1.845-0.86,2.353-1.28c1.188-0.982,2.969-0.519,4.162,1.112
		C43.005,117.744,42.464,118.595,51.309,142.832L51.309,142.832L51.309,142.832z"/>
</g>
<g>
	<path style="fill:#2D2D2D;" d="M105.405,58.195h1.987c1.802,0,3.276-1.474,3.276-3.276V36.292c0-1.802-1.474-3.276-3.276-3.276
		h-1.987c-1.802,0-3.276,1.474-3.276,3.276v18.627C102.129,56.721,103.603,58.195,105.405,58.195z"/>
	<path style="fill:#2D2D2D;" d="M36.193,58.195h1.987c1.802,0,3.276-1.474,3.276-3.276V36.292c0-1.802-1.474-3.276-3.276-3.276
		h-1.987c-1.802,0-3.276,1.474-3.276,3.276v18.627C32.917,56.721,34.392,58.195,36.193,58.195z"/>
	<path style="fill:#2D2D2D;" d="M86.307,7.137H58.648C34.512,6.713,36.715,38.242,36.715,38.242c0,2.221,0.659,4.316,1.81,6.156
		c-0.013-0.211-0.038-0.42-0.038-0.633c0,0,0.399-32.697,20.16-32.126h27.659c22.125,0.674,19.585,32.126,19.585,32.126
		c0,0.214-1.652,0.369-1.665,0.58c1.151-1.84,3.437-3.882,3.437-6.102C107.664,38.242,113.467,7.024,86.307,7.137z"/>
</g>
<g>
	<rect x="0" y="142.908" style="fill:#6E4523;" width="159.582" height="5.586"/>
	<rect x="2.075" y="148.19" style="fill:#785328;" width="156.049" height="66.559"/>
</g>
<g>
	<rect x="33.101" y="101.592" style="fill:#C0C0C0;" width="76.24" height="41.438"/>
	<path style="fill:#A6A8AB;" d="M77.522,118.505c-0.172-0.173-0.342-0.299-0.541-0.355c-1.034-1.357-2.867-1.55-4.473-1.358
		c-0.001-0.002-0.001-0.003-0.002-0.005c-0.357-0.649-0.263-1.601-0.355-2.321c-0.062-0.486-0.524-0.258-0.852-0.1
		c-0.032,0.015-0.064,0.052-0.055,0.091c0.182,0.827,0.217,1.655,0.102,2.495c-0.617,0.099-1.237,0.246-1.747,0.55
		c-0.59,0.352-1.422,0.964-1.611,1.682c-0.024,0.012-0.047,0.024-0.071,0.036c-0.053,0.027-0.102,0.074-0.138,0.123
		c-0.943,1.271-1.395,2.664-1.028,4.25c0.692,2.989,2.531,5.053,5.226,6.4c1.284,0.641,2.529,0.509,3.615-0.443
		c1.012-0.886,1.834-1.87,2.42-2.97c-0.054-0.013-0.108-0.031-0.159-0.059c-0.259-0.144-0.374-0.444-0.295-0.717
		c-0.005-0.003-0.01-0.004-0.015-0.007c-0.272-0.151-0.415-0.444-0.388-0.735c-0.02-0.009-0.04-0.018-0.059-0.029
		c-0.46-0.255-0.627-0.835-0.372-1.295c0.02-0.035,0.042-0.069,0.065-0.101c-0.002-0.001-0.005-0.002-0.007-0.004
		c-0.518-0.287-0.705-0.939-0.418-1.457c0.055-0.1,0.124-0.187,0.203-0.261c-0.13-0.279-0.134-0.6,0.018-0.874
		c0.145-0.262,0.403-0.426,0.692-0.473c0.03-0.073,0.064-0.145,0.103-0.215c0.215-0.387,0.532-0.682,0.899-0.869
		C78.075,119.14,77.827,118.812,77.522,118.505z M71.587,115.692c-0.01-0.238-0.032-0.474-0.067-0.71
		c-0.035-0.239-0.158-0.466,0.114-0.572c0.111-0.003,0.223-0.005,0.334-0.008c0.005,0.054,0.01,0.108,0.016,0.162
		c0.032,0.092,0.022,0.226,0.031,0.324c0.024,0.243,0.047,0.486,0.071,0.729c0.04,0.409,0.049,0.827,0.239,1.197
		c-0.257,0.035-0.527,0.069-0.8,0.109C71.578,116.515,71.604,116.105,71.587,115.692z M68.153,123.392
		c-0.108,0.012-0.237-0.171-0.417-0.317c0.176-0.196,0.293-0.325,0.41-0.455c0.11,0.151,0.275,0.29,0.307,0.456
		C68.472,123.167,68.271,123.38,68.153,123.392z M69.711,125.835c-0.059,0.074-0.374,0.073-0.431-0.002
		c-0.214-0.277-0.055-0.504,0.212-0.715C69.733,125.338,69.937,125.55,69.711,125.835z M70.079,122.03
		c0.019-0.169,0.171-0.323,0.269-0.483c0.129,0.118,0.257,0.236,0.449,0.412c-0.163,0.161-0.274,0.356-0.383,0.354
		C70.293,122.312,70.069,122.119,70.079,122.03z M71.262,124.125c0.358,0.273,0.466,0.551,0.257,0.701
		c-0.102,0.072-0.34,0.069-0.444-0.003C70.883,124.688,70.978,124.376,71.262,124.125z M71.954,127.724
		c-0.122-0.009-0.331-0.201-0.323-0.297c0.015-0.166,0.168-0.32,0.264-0.479c0.134,0.129,0.268,0.258,0.468,0.449
		C72.185,127.548,72.063,127.732,71.954,127.724z M73.868,129.032c-0.104,0.026-0.255-0.136-0.473-0.268
		c0.18-0.219,0.296-0.359,0.413-0.5c0.113,0.137,0.288,0.263,0.319,0.416C74.148,128.784,73.984,129.003,73.868,129.032z
		 M73.027,123.032c0.01-0.167,0.157-0.326,0.246-0.489c0.132,0.114,0.263,0.227,0.463,0.399c-0.16,0.167-0.265,0.364-0.374,0.366
		C73.245,123.311,73.021,123.125,73.027,123.032z M73.836,125.754c-0.106,0.02-0.248-0.156-0.438-0.291
		c0.163-0.207,0.271-0.344,0.38-0.481c0.123,0.144,0.299,0.272,0.345,0.437C74.147,125.505,73.956,125.732,73.836,125.754z
		 M75.926,127.347c-0.109,0.025-0.262-0.141-0.473-0.27c0.174-0.215,0.29-0.358,0.406-0.502c0.115,0.136,0.294,0.26,0.324,0.412
		C76.203,127.094,76.04,127.321,75.926,127.347z M75.153,123.413c0.008-0.169,0.15-0.332,0.235-0.497
		c0.127,0.138,0.305,0.258,0.362,0.42c0.036,0.103-0.108,0.269-0.225,0.522C75.337,123.644,75.148,123.524,75.153,123.413z
		 M76.272,121.284c-0.118-0.118-0.312-0.222-0.335-0.356c-0.025-0.144,0.111-0.315,0.176-0.474c0.047-0.004,0.093-0.007,0.14-0.011
		c0.103,0.168,0.253,0.327,0.29,0.509C76.562,121.04,76.37,121.172,76.272,121.284z M76.533,118.144
		c-0.266,0.057-0.55,0.029-0.826,0.031c-0.283,0.002-0.565-0.005-0.939-0.01c0.669,0.693,0.882,1.463,0.895,2.346
		c-1.167-0.177-1.901-0.93-2.62-1.723c0.054,0.513,0.125,0.98,0.148,1.45c0.023,0.472-0.007,0.945-0.257,1.394
		c-1.028-0.568-1.365-1.503-1.446-2.672c-0.837,0.997-1.744,1.64-2.951,1.882c-0.083-1.098,0.475-1.818,1.124-2.503
		c-0.483,0.243-0.965,0.487-1.447,0.731c0.14-0.328,0.419-0.572,0.691-0.813c0.317-0.28,0.644-0.558,1.031-0.737
		c0.769-0.357,1.75-0.45,2.585-0.554c1.486-0.185,3.193-0.025,4.21,1.156C76.668,118.123,76.603,118.129,76.533,118.144z"/>
	<g>
		<path style="fill:#E85A29;" d="M37.036,109.127c-0.049-0.142-0.049-0.142,0.093-0.191c2.581-0.889,5.162-1.779,7.743-2.668
			c0.142-0.049,0.142-0.049,0.191,0.093c-0.025,0.024-0.003,0.047,0.002,0.069c0.07,0.285,0.142,0.569,0.212,0.854
			c0.193,0.785,0.386,1.569,0.58,2.354c0.194,0.784,0.39,1.568,0.585,2.353c0.213,0.86,0.424,1.721,0.639,2.581
			c0.014,0.058-0.001,0.083-0.045,0.113c-0.953,0.653-1.905,1.306-2.857,1.961c-0.038,0.026-0.075,0.038-0.121,0.041
			c-1.15,0.07-2.299,0.141-3.449,0.214c-0.054,0.003-0.081-0.008-0.105-0.062c-0.147-0.338-0.298-0.673-0.449-1.009
			c-0.303-0.675-0.606-1.349-0.908-2.024c-0.33-0.738-0.659-1.476-0.989-2.214c-0.311-0.695-0.621-1.39-0.935-2.084
			C37.164,109.378,37.124,109.24,37.036,109.127z M43.168,113.891c-0.012,0.004-0.023,0.01-0.035,0.011
			c-0.374,0.026-0.747,0.049-1.121,0.077c-0.051,0.004-0.071-0.012-0.09-0.055c-0.096-0.217-0.197-0.431-0.291-0.649
			c-0.024-0.056-0.048-0.064-0.104-0.044c-0.277,0.099-0.556,0.193-0.834,0.289c-0.111,0.038-0.109,0.038-0.061,0.146
			c0.197,0.438,0.394,0.876,0.588,1.316c0.034,0.078,0.071,0.11,0.165,0.104c0.71-0.049,1.42-0.09,2.13-0.134
			c0.033,0.028,0.042,0.068,0.056,0.106c0.096,0.278,0.193,0.555,0.286,0.833c0.024,0.07,0.045,0.093,0.114,0.04
			c0.107-0.082,0.221-0.153,0.332-0.229c0.642-0.441,1.283-0.882,1.926-1.322c0.053-0.036,0.062-0.074,0.044-0.135
			c-0.05-0.174-0.093-0.349-0.136-0.524c-0.077-0.311-0.152-0.623-0.229-0.934c-0.058-0.236-0.12-0.471-0.178-0.706
			c-0.06-0.242-0.117-0.484-0.176-0.726c-0.042-0.169-0.086-0.338-0.127-0.507c-0.056-0.23-0.109-0.46-0.166-0.69
			c-0.058-0.236-0.12-0.471-0.179-0.706c-0.079-0.317-0.156-0.635-0.233-0.952c-0.045-0.184-0.09-0.369-0.136-0.553
			c-0.058-0.233-0.118-0.465-0.175-0.697c-0.019-0.079-0.056-0.095-0.135-0.068c-1.023,0.355-2.047,0.708-3.072,1.059
			c-0.073,0.025-0.091,0.056-0.065,0.13c0.106,0.297,0.207,0.596,0.31,0.894c-0.035,0.013-0.07,0.027-0.105,0.04
			c-0.774,0.267-1.548,0.535-2.324,0.799c-0.085,0.029-0.087,0.056-0.051,0.129c0.079,0.159,0.147,0.323,0.22,0.485
			c0.187,0.418,0.375,0.836,0.562,1.254c0.164,0.367,0.327,0.735,0.49,1.102c0.043,0.021,0.079-0.005,0.116-0.017
			c0.677-0.233,1.355-0.464,2.03-0.701c0.09-0.032,0.124-0.014,0.154,0.076C42.83,112.918,43,113.404,43.168,113.891z"/>
		<path style="fill:#F2722F;" d="M41.574,109.265c-0.103-0.298-0.204-0.597-0.31-0.894c-0.026-0.074-0.008-0.105,0.065-0.13
			c1.025-0.351,2.049-0.704,3.072-1.059c0.079-0.027,0.116-0.011,0.135,0.068c0.057,0.233,0.117,0.465,0.175,0.697
			c0.046,0.184,0.09,0.369,0.136,0.553c0.078,0.317,0.155,0.635,0.233,0.952c0.058,0.236,0.12,0.47,0.179,0.706
			c0.057,0.23,0.11,0.46,0.166,0.69c0.041,0.169,0.086,0.338,0.127,0.507c0.059,0.242,0.116,0.484,0.176,0.726
			c0.058,0.236,0.12,0.471,0.178,0.706c0.077,0.311,0.152,0.623,0.229,0.934c0.043,0.175,0.087,0.351,0.136,0.524
			c0.018,0.061,0.008,0.099-0.044,0.135c-0.642,0.44-1.284,0.881-1.926,1.322c-0.111,0.076-0.225,0.147-0.332,0.229
			c-0.069,0.053-0.09,0.031-0.114-0.04c-0.093-0.279-0.19-0.556-0.286-0.833c-0.013-0.038-0.022-0.079-0.056-0.106
			c0.005-0.004,0.01-0.008,0.015-0.012c0.006-0.002,0.013-0.002,0.018-0.005c0.602-0.413,1.204-0.826,1.807-1.238
			c0.032-0.022,0.034-0.045,0.025-0.079c-0.033-0.127-0.062-0.255-0.094-0.382c-0.109-0.439-0.219-0.878-0.327-1.317
			c-0.109-0.442-0.219-0.884-0.325-1.327c-0.019-0.08-0.044-0.097-0.125-0.068c-0.715,0.25-1.432,0.496-2.148,0.743
			c-0.029,0.01-0.057,0.024-0.086,0.037c0-0.004-0.001-0.008-0.003-0.012c-0.116-0.336-0.231-0.673-0.347-1.009l-0.004-0.007
			c0.79-0.271,1.579-0.542,2.369-0.811c0.046-0.016,0.055-0.038,0.044-0.083c-0.076-0.296-0.152-0.592-0.222-0.889
			c-0.017-0.073-0.037-0.085-0.108-0.06c-0.419,0.148-0.839,0.291-1.259,0.436c-0.39,0.135-0.78,0.271-1.169,0.406L41.574,109.265z"
			/>
		<path style="fill:#EEECEB;" d="M40.365,113.073c-0.163-0.367-0.326-0.735-0.49-1.102c-0.187-0.418-0.375-0.836-0.562-1.254
			c-0.073-0.162-0.141-0.326-0.22-0.485c-0.036-0.073-0.034-0.1,0.051-0.129c0.776-0.263,1.55-0.532,2.324-0.799
			c0.035-0.012,0.07-0.026,0.105-0.04l0.001,0.007c0.115,0.334,0.23,0.668,0.345,1.001l0.004,0.007
			c-0.456,0.156-0.911,0.311-1.367,0.466c-0.037,0.012-0.047,0.024-0.029,0.066c0.134,0.295,0.264,0.592,0.395,0.889
			c0.015,0.034,0.034,0.048,0.072,0.034c0.425-0.149,0.85-0.297,1.275-0.446c0.002,0.004,0.003,0.008,0.003,0.012
			c0.115,0.332,0.23,0.665,0.345,0.997c-0.032,0.012-0.064,0.026-0.096,0.037c-0.68,0.235-1.36,0.469-2.041,0.703
			C40.444,113.051,40.404,113.061,40.365,113.073z"/>
		<path style="fill:#EEECEB;" d="M43.529,114.939c-0.005,0.004-0.01,0.008-0.015,0.012c-0.71,0.044-1.42,0.085-2.13,0.134
			c-0.094,0.006-0.13-0.026-0.165-0.104c-0.193-0.44-0.391-0.878-0.588-1.316c-0.049-0.108-0.05-0.107,0.061-0.146
			c0.278-0.096,0.557-0.19,0.834-0.289c0.056-0.02,0.08-0.011,0.104,0.044c0.094,0.217,0.196,0.432,0.291,0.649
			c0.019,0.044,0.04,0.059,0.09,0.055c0.373-0.028,0.747-0.052,1.121-0.077c0.012-0.001,0.023-0.007,0.035-0.011l0.001,0.007
			C43.289,114.245,43.409,114.592,43.529,114.939z"/>
		<path style="fill:#F27231;" d="M40.365,113.073c0.039-0.012,0.078-0.022,0.117-0.035c0.68-0.234,1.36-0.469,2.041-0.703
			c0.032-0.011,0.064-0.025,0.096-0.037c0.376-0.128,0.753-0.253,1.128-0.386c0.082-0.029,0.111-0.017,0.131,0.069
			c0.09,0.386,0.186,0.77,0.284,1.154c0.015,0.059,0.003,0.088-0.047,0.121c-0.317,0.211-0.631,0.427-0.945,0.641l-0.001-0.007
			c-0.168-0.487-0.338-0.973-0.502-1.461c-0.03-0.089-0.064-0.107-0.154-0.076c-0.676,0.237-1.353,0.469-2.03,0.701
			C40.445,113.068,40.408,113.094,40.365,113.073z"/>
		<path style="fill:#FFFFFF;" d="M43.169,113.898c0.315-0.214,0.629-0.43,0.945-0.641c0.051-0.034,0.062-0.062,0.047-0.121
			c-0.098-0.384-0.193-0.769-0.284-1.154c-0.02-0.086-0.049-0.098-0.131-0.069c-0.375,0.132-0.752,0.258-1.128,0.386
			c-0.115-0.332-0.23-0.665-0.345-0.997c0.029-0.012,0.057-0.026,0.086-0.037c0.716-0.247,1.433-0.492,2.148-0.743
			c0.082-0.029,0.106-0.012,0.125,0.068c0.106,0.443,0.216,0.885,0.325,1.327c0.109,0.439,0.218,0.878,0.327,1.317
			c0.032,0.127,0.061,0.255,0.094,0.382c0.009,0.035,0.007,0.057-0.025,0.079c-0.603,0.412-1.205,0.825-1.807,1.238
			c-0.005,0.003-0.012,0.003-0.018,0.005C43.409,114.592,43.289,114.245,43.169,113.898z"/>
		<path style="fill:#FFFFFF;" d="M41.92,110.273c-0.115-0.334-0.23-0.668-0.345-1.001c0.39-0.135,0.779-0.271,1.169-0.406
			c0.42-0.145,0.84-0.288,1.259-0.436c0.071-0.025,0.091-0.013,0.108,0.06c0.069,0.297,0.146,0.593,0.222,0.889
			c0.012,0.045,0.002,0.067-0.044,0.083C43.499,109.731,42.71,110.002,41.92,110.273z"/>
		<path style="fill:#E85A29;" d="M42.271,111.289c-0.425,0.148-0.85,0.296-1.275,0.446c-0.039,0.014-0.058,0-0.072-0.034
			c-0.131-0.297-0.262-0.594-0.395-0.889c-0.019-0.041-0.008-0.053,0.029-0.066c0.456-0.155,0.912-0.311,1.367-0.466
			C42.04,110.616,42.155,110.953,42.271,111.289z"/>
	</g>
	<g>
		<path style="fill:#1A7EBD;" d="M96.16,124.876c0.038-0.101,0.076-0.202,0.115-0.303c0.079,0.028,0.159,0.054,0.237,0.084
			c3.167,1.199,6.335,2.397,9.502,3.596c0.275,0.104,0.275,0.104,0.142,0.378c-0.735,1.513-1.472,3.026-2.205,4.54
			c-0.791,1.633-1.579,3.267-2.365,4.902c-0.052,0.108-0.113,0.144-0.235,0.132c-1.423-0.135-2.847-0.265-4.271-0.395
			c-0.061-0.006-0.113-0.018-0.165-0.056c-1.166-0.858-2.333-1.714-3.502-2.568c-0.063-0.046-0.083-0.084-0.061-0.162
			c0.212-0.749,0.418-1.5,0.628-2.249c0.31-1.107,0.624-2.213,0.934-3.32c0.357-1.274,0.716-2.548,1.066-3.824
			C96.049,125.383,96.161,125.142,96.16,124.876z M99.577,130.98c-0.454-0.168-0.908-0.334-1.36-0.507
			c-0.101-0.039-0.145-0.029-0.175,0.084c-0.088,0.335-0.184,0.668-0.286,0.998c-0.044,0.141,0,0.196,0.134,0.244
			c0.405,0.145,0.804,0.306,1.205,0.461c-0.249,0.658-0.498,1.317-0.746,1.975c-0.417-0.256-0.795-0.569-1.198-0.845
			c-0.062-0.042-0.054-0.094-0.036-0.157c0.077-0.264,0.144-0.531,0.226-0.793c0.031-0.101,0.02-0.149-0.086-0.187
			c-0.338-0.121-0.674-0.249-1.007-0.381c-0.105-0.042-0.138-0.022-0.168,0.09c-0.158,0.588-0.325,1.175-0.497,1.759
			c-0.033,0.112-0.007,0.17,0.084,0.237c0.729,0.53,1.454,1.066,2.18,1.6c-0.151,0.398-0.293,0.799-0.457,1.191
			c-0.072,0.172-0.011,0.197,0.14,0.21c1.083,0.096,2.166,0.195,3.248,0.3c0.167,0.016,0.244-0.045,0.311-0.194
			c0.192-0.431,0.399-0.854,0.604-1.279c0.275-0.569,0.554-1.137,0.83-1.706c0.193-0.397,0.382-0.796,0.575-1.193
			c0.273-0.563,0.549-1.126,0.823-1.689c0.146-0.301,0.29-0.602,0.435-0.903c0.213-0.441,0.424-0.882,0.64-1.321
			c0.055-0.113,0.029-0.167-0.09-0.212c-1.262-0.474-2.523-0.951-3.783-1.431c-0.11-0.042-0.16-0.02-0.2,0.091
			c-0.124,0.344-0.256,0.685-0.385,1.026c-0.068-0.022-0.137-0.042-0.204-0.067c-0.924-0.349-1.849-0.697-2.772-1.052
			c-0.122-0.047-0.18-0.039-0.215,0.099c-0.095,0.377-0.201,0.751-0.302,1.126c0.025,0.068,0.093,0.07,0.146,0.09
			c0.877,0.334,1.755,0.666,2.633,0.997c0.055,0.021,0.107,0.056,0.171,0.04c0.02,0.011,0.041,0.021,0.061,0.032
			C99.896,130.137,99.736,130.559,99.577,130.98z"/>
		<path style="fill:#3CB0DF;" d="M100.537,128.45c0.129-0.342,0.262-0.683,0.385-1.026c0.04-0.11,0.09-0.133,0.2-0.091
			c1.26,0.48,2.52,0.958,3.783,1.431c0.119,0.045,0.146,0.099,0.09,0.212c-0.216,0.439-0.427,0.88-0.64,1.321
			c-0.145,0.301-0.289,0.603-0.435,0.903c-0.274,0.563-0.549,1.126-0.823,1.689c-0.193,0.397-0.382,0.796-0.575,1.193
			c-0.276,0.569-0.555,1.136-0.83,1.706c-0.205,0.425-0.413,0.848-0.604,1.279c-0.066,0.149-0.144,0.21-0.311,0.194
			c-1.082-0.105-2.165-0.204-3.248-0.3c-0.15-0.013-0.212-0.038-0.14-0.21c0.164-0.392,0.306-0.794,0.457-1.191l0.005-0.017
			c0.023,0.006,0.045,0.015,0.068,0.017c0.845,0.077,1.691,0.146,2.535,0.237c0.197,0.021,0.275-0.047,0.346-0.212
			c0.132-0.308,0.283-0.607,0.429-0.908c0.331-0.683,0.664-1.366,0.996-2.049c0.267-0.548,0.535-1.096,0.799-1.645
			c0.21-0.436,0.414-0.875,0.621-1.313c0.007-0.018,0.002-0.029-0.017-0.032c-0.552-0.212-1.103-0.425-1.656-0.634
			c-0.48-0.181-0.962-0.358-1.444-0.536C100.531,128.462,100.533,128.456,100.537,128.45z"/>
		<path style="fill:#EBECED;" d="M97.846,135.56c-0.726-0.534-1.451-1.07-2.18-1.6c-0.092-0.067-0.117-0.125-0.084-0.237
			c0.172-0.585,0.339-1.171,0.497-1.759c0.03-0.112,0.063-0.132,0.168-0.09c0.334,0.132,0.669,0.26,1.007,0.381
			c0.105,0.038,0.117,0.086,0.086,0.187c-0.082,0.262-0.15,0.529-0.226,0.793c-0.018,0.062-0.026,0.114,0.036,0.157
			c0.404,0.276,0.781,0.588,1.198,0.845l-0.007,0.015c-0.163,0.431-0.327,0.862-0.49,1.293L97.846,135.56z"/>
		<path style="fill:#EBECED;" d="M97.043,128.556c0.102-0.375,0.207-0.749,0.302-1.126c0.035-0.138,0.093-0.146,0.215-0.099
			c0.922,0.355,1.847,0.702,2.772,1.052c0.067,0.025,0.136,0.045,0.204,0.067c-0.003,0.006-0.006,0.011-0.008,0.018
			c-0.155,0.41-0.309,0.82-0.464,1.229c-0.003,0.006-0.007,0.012-0.01,0.018c-0.02-0.011-0.041-0.021-0.061-0.032
			c-0.066-0.028-0.131-0.059-0.198-0.084C98.879,129.251,97.961,128.903,97.043,128.556z"/>
		<path style="fill:#3CB0DF;" d="M98.348,134.235c0.249-0.658,0.498-1.317,0.746-1.975c0.001-0.007,0.004-0.014,0.007-0.02
			c0.06,0.027,0.118,0.058,0.179,0.082c0.392,0.15,0.783,0.302,1.177,0.444c0.129,0.046,0.182,0.077,0.102,0.23
			c-0.215,0.414-0.409,0.839-0.606,1.262c-0.051,0.109-0.114,0.143-0.238,0.129c-0.457-0.053-0.916-0.092-1.374-0.136
			L98.348,134.235z"/>
		<path style="fill:#3CB0DF;" d="M99.577,130.98c0.159-0.422,0.319-0.843,0.478-1.265c0.004-0.006,0.007-0.012,0.01-0.018
			c0.021,0.011,0.042,0.023,0.064,0.032c0.514,0.195,1.027,0.392,1.543,0.583c0.102,0.038,0.151,0.075,0.092,0.192
			c-0.167,0.33-0.329,0.663-0.486,0.997c-0.045,0.095-0.097,0.097-0.183,0.064c-0.34-0.132-0.68-0.263-1.023-0.387
			c-0.167-0.06-0.324-0.153-0.507-0.168C99.569,131,99.573,130.99,99.577,130.98z"/>
		<path style="fill:#EBECED;" d="M99.094,132.26c-0.401-0.155-0.801-0.316-1.205-0.461c-0.134-0.048-0.177-0.104-0.134-0.244
			c0.103-0.33,0.198-0.664,0.286-0.998c0.03-0.113,0.074-0.123,0.175-0.084c0.452,0.173,0.907,0.339,1.36,0.507
			c-0.004,0.009-0.008,0.019-0.011,0.029c-0.155,0.41-0.31,0.82-0.465,1.23C99.098,132.247,99.096,132.253,99.094,132.26z"/>
		<path style="fill:#3CB0DF;" d="M97.043,128.556c0.918,0.348,1.835,0.695,2.753,1.043c0.067,0.025,0.132,0.056,0.198,0.084
			c-0.064,0.016-0.116-0.019-0.171-0.04c-0.878-0.331-1.756-0.664-2.633-0.997C97.136,128.626,97.068,128.624,97.043,128.556z"/>
		<path style="fill:#FCFDFF;" d="M99.101,132.24c0.155-0.41,0.31-0.82,0.465-1.23c0.182,0.015,0.34,0.108,0.507,0.168
			c0.343,0.124,0.683,0.254,1.023,0.387c0.086,0.034,0.138,0.032,0.183-0.064c0.157-0.335,0.319-0.667,0.486-0.997
			c0.059-0.116,0.009-0.154-0.092-0.192c-0.515-0.191-1.029-0.388-1.543-0.583c-0.022-0.008-0.043-0.021-0.064-0.032
			c0.155-0.41,0.309-0.82,0.464-1.229c0.481,0.179,0.963,0.355,1.444,0.536c0.553,0.209,1.104,0.422,1.656,0.634
			c0.006,0.011,0.012,0.021,0.017,0.032c-0.207,0.438-0.411,0.876-0.621,1.313c-0.264,0.55-0.533,1.097-0.799,1.645
			c-0.332,0.683-0.665,1.365-0.996,2.049c-0.146,0.301-0.297,0.601-0.429,0.908c-0.071,0.165-0.149,0.233-0.346,0.212
			c-0.844-0.091-1.69-0.16-2.535-0.237c-0.023-0.002-0.046-0.011-0.068-0.017c0.163-0.431,0.327-0.862,0.49-1.293
			c0.458,0.044,0.917,0.083,1.374,0.136c0.124,0.014,0.187-0.02,0.238-0.129c0.197-0.423,0.391-0.848,0.606-1.262
			c0.079-0.153,0.027-0.184-0.102-0.23c-0.395-0.142-0.786-0.294-1.177-0.444C99.219,132.298,99.161,132.267,99.101,132.24z"/>
		<path style="fill:#EBECED;" d="M103.646,129.671c-0.006-0.011-0.012-0.021-0.017-0.032
			C103.649,129.642,103.654,129.653,103.646,129.671z"/>
	</g>
</g>
<g>
	<path style="fill:#0B142D;" d="M138.604,119.061c0.593,0.033,1.46,0.085,2.445,0.579c0.74,0.372,1.392,0.907,1.914,1.562
		c-0.28-0.229-0.69-0.483-1.154-0.435c-0.335,0.034-0.563,0.212-0.643,0.268c-1.084,0.771-3.217-0.445-4.339,0.271
		c-0.934,0.596-0.816,2.307-0.714,3.796c0.098,1.436,0.211,3.076,1.256,3.651c0.657,0.362,1.691,0.306,3.429,0.212
		c0.04-0.002,0.441-0.024,0.964,0.053c0.523,0.077,0.818,0.12,0.854,0.247c0.101,0.357-1.796,1.638-4.002,1.74
		c-0.727,0.033-2.147,0.099-3.28-0.803c-1.345-1.071-1.431-2.825-1.546-5.164c-0.119-2.435-0.206-4.206,1.003-5.228
		C135.852,118.907,137.433,118.995,138.604,119.061z"/>
	<path style="fill:#0B142D;" d="M154.401,135.06c-2.052,0.323-4.486,0.559-7.224,0.541c-2.47-0.016-4.684-0.236-6.582-0.531
		c-0.097,0-0.612-0.009-1.029-0.425c-0.263-0.263-0.426-0.626-0.427-1.028l-0.012-16.748c-0.001-0.803,0.65-1.455,1.453-1.455
		c1.909-0.394,4.323-0.722,7.117-0.706c2.606,0.014,4.87,0.324,6.69,0.696c0.097,0,0.612,0.009,1.029,0.425
		c0.263,0.263,0.426,0.626,0.427,1.028l0.012,16.748C155.855,134.408,155.204,135.06,154.401,135.06z"/>
	<path style="fill:#26A9E0;" d="M145.185,122.27c0.336-0.502,0.652-1.02,1.013-1.503c0.448-0.601,0.993-1.106,1.673-1.444
		c1.156-0.575,2.354-0.286,3.131,0.749c0.541,0.721,0.816,1.549,0.981,2.422c0.302,1.6,0.106,3.162-0.349,4.706
		c-0.289,0.979-0.649,1.924-1.192,2.793c-0.495,0.793-1.086,1.496-1.906,1.973c-0.747,0.435-1.539,0.607-2.367,0.268
		c-0.266-0.109-0.519-0.287-0.73-0.485c-0.733-0.682-1.178-1.534-1.4-2.508c-0.293-1.278-0.26-2.56-0.054-3.843
		c0.248-1.543,0.712-3.016,1.492-4.378c0.135-0.236,0.295-0.46,0.455-0.68c0.035-0.048,0.123-0.058,0.186-0.085
		c-0.007,0.066,0.005,0.14-0.023,0.196c-0.278,0.562-0.563,1.121-0.845,1.681c-0.024,0.047-0.038,0.099-0.057,0.149
		C145.191,122.277,145.188,122.274,145.185,122.27z M145.448,128.218c0.021-0.007,0.043-0.014,0.064-0.021
		c0.035,0.077,0.08,0.151,0.105,0.231c0.162,0.519,0.361,1.021,0.698,1.455c0.42,0.541,0.943,0.862,1.658,0.725
		c0.38-0.072,0.702-0.268,0.992-0.515c0.595-0.507,1.009-1.148,1.329-1.85c0.805-1.767,1.089-3.619,0.854-5.547
		c-0.033-0.268-0.098-0.532-0.148-0.798c-0.031,0.069-0.037,0.134-0.031,0.197c0.11,1.081-0.026,2.136-0.343,3.17
		c-0.023,0.075-0.098,0.135-0.149,0.202c-0.008-0.086-0.04-0.178-0.021-0.258c0.21-0.901,0.307-1.809,0.18-2.731
		c-0.083-0.602-0.253-1.173-0.618-1.672c-0.407-0.557-0.914-0.777-1.519-0.602c-0.272,0.079-0.535,0.222-0.77,0.384
		c-0.474,0.327-0.831,0.776-1.131,1.262c-1.387,2.246-1.909,4.671-1.438,7.282c0.128,0.706,0.408,1.357,0.895,1.905
		c0.572,0.643,1.481,0.809,2.226,0.372c-0.112,0.007-0.191,0.02-0.268,0.016c-0.179-0.009-0.362-0.004-0.534-0.045
		c-0.535-0.128-0.909-0.482-1.21-0.921c-0.407-0.596-0.636-1.265-0.786-1.964C145.464,128.405,145.459,128.31,145.448,128.218z"/>
</g>
<path style="fill:#E3A47A;" d="M140.984,120.705c2.474,0.011,4.536,1.028,4.606,2.273c0.069,1.245-1.88,2.245-4.354,2.235
	c-2.474-0.011-4.536-1.028-4.606-2.273C136.561,121.695,138.51,120.695,140.984,120.705z"/>
<path style="fill:#6F1327;" d="M124.625,128.059c1.416,0.413,2.878,0.835,4.439,1.277c3.969,1.123,6.393-9.203,2.765-11.182l0,0
	c-1.583-0.797-3.038-1.536-4.401-2.231C129.413,119.285,127.739,126.572,124.625,128.059z"/>
</svg>
