<svg xmlns="http://www.w3.org/2000/svg" version="1.1" id="Layer_1" x="0" y="0" viewBox="0 0 89.43 114.52" xml:space="preserve" enable-background="new 0 0 89.431 114.516"><path d="M82.67 48.05c1.91-0.71 4.63 1.68 5.81 3.79 3.53 6.35-3.73 16-6.31 15.41C79.02 66.52 78.4 49.64 82.67 48.05zM6.76 48.05c-1.91-0.71-4.63 1.68-5.81 3.79 -3.53 6.35 3.73 16 6.31 15.41C10.41 66.52 11.04 49.64 6.76 48.05z" fill="#E3A47A"/><path d="M84.83 43.43c-0.7-3.47-0.24-7.04-0.02-10.56 0.22-3.53 0.17-7.18-1.47-10.41 -1.64-3.23-5.22-5.93-9.27-5.87 0.14-0.29 0.61-1.16 1.71-1.62 1.3-0.54 2.95-0.28 4.17 0.66 -1.14-1.16-2.76-2.57-4.96-3.88 -3.02-1.8-5.91-2.7-7.92-3.17 1.41-0.87 4.98-2.79 9.36-2.25 0.83 0.1 1.59 0.28 2.26 0.49 -0.91-0.8-2.33-1.89-4.29-2.81 -5.45-2.55-10.89-1.87-14.37-1.43 -6.96 0.88-12.1 3.58-15.03 5.45 1.57-3.29 5.12-5.8 9.13-6.46 0.84-0.21 1.68-0.43 2.53-0.64 -1.11-0.28-2.7-0.61-4.64-0.8 -4.94-0.47-8.51 0.37-14.74 1.96 0 0-9.95 2.57-16.11 6.04 -1.06 0.6-2.01 1.24-2.01 1.24 -0.42 0.29-0.82 0.57-1.18 0.84 -0.19-0.47-0.52-1.47-0.28-2.74 0.25-1.31 0.98-2.19 1.33-2.57 -0.77 0.19-2.08 0.63-3.3 1.62 -2.2 1.8-2.49 4.13-2.55 4.76 -0.28-0.28-0.69-0.77-0.92-1.47 -0.43-1.31 0.1-2.43 0.27-2.76C11.68 7.54 6.47 10.72 5.83 16.4c-0.3 2.67 0.53 4.83 1.12 6.03 -1.11 2.86-2.48 7.16-3.02 12.47C3.23 41.85 5.42 45.67 5.2 51.51c-2.02 54.01 17.98 63.01 39.98 63.01 20 0 35.01-13.15 37-22.5 1.83-8.6 3.42-17.26 3.63-31.43C85.89 54.85 85.97 49.07 84.83 43.43z" fill="#603813"/><path d="M25.08 34.01c5.04-0.92 6.13-0.32 10.53-0.83 10.9-1.25 14.5-6.12 21.74-4.47 1.99 0.46 3.48 1.23 4.35 1.74 -0.68-0.15-1.46-0.23-2.31-0.16 -3.89 0.32-6.18 3.52-6.58 4.1 2.97-0.56 18.18-3.22 25.54 4.66 1.11 1.19 1.74 2.3 2.12 2.97 3.76 6.69 0.12 10.83-0.06 22.54 -0.1 6.82 1.08 9.02-1.08 12.77 -1.97 3.41-5.04 5.23-6.08 5.83 -5.98 3.45-12.29 2.66-18.73 2.28 -24.18-1.43-28.38 1.17-37.73-1.6 -4.29-1.27-5.98-5.89-6.64-9.94 -1.04-6.34-1.05-12.77-1.05-19.18 0-2.52 0-5.05-0.01-7.57 0-1.63 0.01-3.31 0.66-4.84 1.1-2.58 3.56-3.9 5.87-5.15C17.66 36.05 20.48 34.85 25.08 34.01z" fill="#E3A47A"/><path d="M50.36 71.97c0 0 0.53 0.57 1.41 1.64 0.43 0.54 0.95 1.19 1.46 2.02 0.12 0.24 0.27 0.38 0.32 0.77 0.01 0.25 0.01 0.51-0.06 0.82 -0.13 0.58-0.41 1.11-0.78 1.61 -0.75 0.98-1.77 1.81-2.94 2.55 -1.2 0.74-2.6 1.24-4.11 1.45 -1.51 0.21-3.16 0.09-4.67-0.54 -0.38-0.16-0.75-0.33-1.1-0.55 -0.16-0.09-0.38-0.22-0.53-0.33 -0.16-0.12-0.31-0.22-0.47-0.35 -0.67-0.54-1.22-1.15-1.69-1.83 -0.92-1.38-1.47-2.96-1.64-4.58l0.01-0.63c0.02-0.21 0.07-0.45 0.12-0.67 0.12-0.43 0.3-0.81 0.52-1.17 0.45-0.7 1.03-1.23 1.54-1.74 0.52-0.51 0.98-1.01 1.22-1.56 0.26-0.57 0.19-1.11 0.05-1.79 -0.28-1.34-0.3-2.68-0.22-3.86 0.18-2.38 0.7-4.28 0.88-5.63 0.1-0.67 0.15-1.21 0.14-1.57 -0.01-0.36-0.04-0.56-0.04-0.56s0.05 0.19 0.09 0.56c0.04 0.37 0.06 0.91 0 1.6 -0.1 1.37-0.43 3.32-0.51 5.63 -0.03 1.17 0.04 2.39 0.37 3.67 0.07 0.31 0.18 0.68 0.19 1.08 0.02 0.39-0.04 0.81-0.19 1.18 -0.29 0.77-0.86 1.34-1.37 1.86 -0.52 0.53-1.04 1.03-1.4 1.61 -0.17 0.29-0.31 0.6-0.39 0.91 -0.02 0.16-0.06 0.29-0.08 0.46l-0.01 0.52c0.17 1.44 0.7 2.9 1.54 4.11 0.41 0.61 0.91 1.18 1.45 1.63 0.14 0.12 0.31 0.23 0.46 0.35 0.16 0.13 0.28 0.19 0.45 0.3 0.31 0.2 0.63 0.36 0.97 0.51 1.33 0.58 2.81 0.72 4.2 0.54 1.39-0.19 2.74-0.59 3.86-1.22 1.14-0.65 2.15-1.41 2.87-2.27 0.35-0.43 0.61-0.91 0.75-1.37 0.08-0.21 0.1-0.47 0.11-0.73 0.01-0.11-0.13-0.4-0.22-0.58 -0.43-0.83-0.91-1.52-1.29-2.08C50.83 72.6 50.36 71.97 50.36 71.97z" fill="#8A5D3B"/><circle class="eye" cx="33.52" cy="53.75" r="3.34" fill="#716558"/><circle class="eye-inner" cx="33.52" cy="53.75" r="1.48"/><circle class="eye" cx="67.36" cy="53.75" r="3.34" fill="#716558"/><circle class="eye-inner" cx="67.36" cy="53.75" r="1.48"/>
<path d="M34.52 45.01H21.51c-2.81 0-5.11 2.3-5.11 5.11v5.27c0 2.81 2.3 5.11 5.11 5.11h13.02c2.81 0 5.11-2.3 5.11-5.11v-5.27C39.63 47.31 37.33 45.01 34.52 45.01zM69.2 45.01H54.52c-2.35 0-4.28 1.92-4.28 4.28v6.94c0 2.35 1.92 4.28 4.28 4.28h14.68c2.35 0 4.28-1.92 4.28-4.28v-6.94C73.47 46.93 71.55 45.01 69.2 45.01z" style="fill:#A0DAE4;opacity:0.27"/><path d="M70.36 44.9H52.04l-2.47 0.67c-0.22 0.06-0.45 0.09-0.68 0.09h-7.87c-0.18 0-0.37-0.02-0.55-0.06l-3.25-0.7H20.02c-1.99 0-3.62 1.63-3.62 3.62v0c0 0.2 0.12 0.37 0.28 0.45 0.69-2 2.6-3.46 4.83-3.46h13.02c1.72 0 2.51-0.52 4.35 1.9 0.67 0.88 0.86-1.17 1.88-1.17h8.49c1.08 0 0.95 2.16 1.63 1.06 0.79-1.28 2.11-1.79 3.64-1.79h14.68c2.02 0 3.73 1.43 4.16 3.32 0.07-0.09 0.11-0.19 0.11-0.31v0C73.47 46.53 72.35 44.9 70.36 44.9z" fill="#231F20"/><path d="M18.89 45.23L4.3 47.63c-0.89 0.15-0.69 1.39 0.21 1.25l14.07-2.65C19.47 46.08 19.79 45.08 18.89 45.23zM71.68 45.31l14.1 2.32c0.86 0.14 0.66 1.39-0.2 1.25l-13.59-2.57C71.12 46.16 70.82 45.17 71.68 45.31z"/><path d="M36.16 92.05c6.02-0.21 12.04-0.42 18.06-0.62 -1.65 1.12-5.28 1.92-9.21 2.05C41.18 93.59 37.72 93.04 36.16 92.05z" fill="#B65D89"/><radialGradient id="SVGID_1_" cx="66.26" cy="70.07" r="14.47" gradientTransform="matrix(1 0 0 0.6 0 28.0283)" gradientUnits="userSpaceOnUse"><stop offset="0" style="stop-color:#EE4036;stop-opacity:0.6"/><stop offset="0.17" style="stop-color:#ED473B;stop-opacity:0.5"/><stop offset="0.4" style="stop-color:#EB5947;stop-opacity:0.36"/><stop offset="0.68" style="stop-color:#E8785C;stop-opacity:0.19"/><stop offset="0.99" style="stop-color:#E3A279;stop-opacity:0.01"/><stop offset="1" style="stop-color:#E3A47A;stop-opacity:0"/></radialGradient><ellipse cx="66.26" cy="70.07" rx="18.38" ry="9" fill="url(#SVGID_1_)"/><radialGradient id="SVGID_2_" cx="22.31" cy="69.56" r="14.47" gradientTransform="matrix(1 0 0 0.6 0 27.8222)" gradientUnits="userSpaceOnUse"><stop offset="0" style="stop-color:#EE4036;stop-opacity:0.6"/><stop offset="0.17" style="stop-color:#ED473B;stop-opacity:0.5"/><stop offset="0.4" style="stop-color:#EB5947;stop-opacity:0.36"/><stop offset="0.68" style="stop-color:#E8785C;stop-opacity:0.19"/><stop offset="0.99" style="stop-color:#E3A279;stop-opacity:0.01"/><stop offset="1" style="stop-color:#E3A47A;stop-opacity:0"/></radialGradient><ellipse cx="22.31" cy="69.56" rx="18.38" ry="9" fill="url(#SVGID_2_)"/></svg>
