<?xml version="1.0" encoding="iso-8859-1"?>
<!-- Generator: Adobe Illustrator 18.1.1, SVG Export Plug-In . SVG Version: 6.00 Build 0)  -->
<svg version="1.1" id="Layer_1" xmlns="http://www.w3.org/2000/svg" xmlns:xlink="http://www.w3.org/1999/xlink" x="0px" y="0px"
	 viewBox="0 0 103.987 230.918" style="enable-background:new 0 0 103.987 230.918;" xml:space="preserve">
<g>
	<g>
		<path style="fill:#831523;" d="M83.08,69.031c2.9-2.673,14.278,6.702,12.296,10.305c-16.696,30.35-19.818,27.92-21.793,26.958
			c-1.124-0.547-1.196-4.296-5.033-8.957c-1.114-1.353-2.001-2.123-2.719-2.666c-1.679-1.271-2.431-3.611-1.727-5.476
			C65.647,85.106,66.781,85.594,83.08,69.031L83.08,69.031L83.08,69.031z"/>
		<g>
			<path style="fill:#E3A47A;" d="M89.997,39.306c-1.039-4.169-0.914-7.844,0.278-8.209c1.192-0.365,3.001,2.718,4.04,6.887
				c1.039,4.169,0.914,7.844-0.278,8.209C92.845,46.558,91.036,43.475,89.997,39.306z"/>
			<path style="fill:#E3A47A;" d="M91.281,36.669c1.462-5.878,5.368-9.833,8.724-8.832c3.356,1,4.891,6.577,3.429,12.455
				s-5.368,9.833-8.724,8.832C91.354,48.124,89.819,42.548,91.281,36.669z"/>
			<path style="fill:#831523;" d="M90.449,43.85c1.291-3.912,11.852-3.383,11.461,0.711c-3.294,34.482-6.152,34.45-7.801,34.891
				c-0.938,0.251-2.026-2.702-6.002-4.079c-1.154-0.4-1.989-0.472-2.641-0.467c-1.528,0.012-2.701-1.399-2.725-3.32
				C82.69,67.372,83.618,67.068,90.449,43.85L90.449,43.85L90.449,43.85z"/>
			<path style="fill:#6F1327;" d="M101.475,48.905c0.152-1.467,0.305-2.982,0.459-4.596c0.392-4.107-10.202-4.637-11.497-0.713l0,0
				c-0.5,1.7-0.965,3.265-1.404,4.73C91.985,45.77,99.454,46.108,101.475,48.905z"/>
		</g>
	</g>
	<path style="fill:#0E2B47;" d="M40.222,230.635l-19.008-0.183c-3.716-0.036-6.727-3.105-6.691-6.821l0.62-64.533
		c0.036-3.716,3.105-6.727,6.821-6.691l19.008,0.183c3.716,0.036,6.727,3.105,6.691,6.821l-0.62,64.533
		C47.008,227.659,43.938,230.67,40.222,230.635z"/>
	<path style="fill:#0E2B47;" d="M74.575,230.109l-18.991,0.803c-3.713,0.157-6.879-2.752-7.036-6.465l-2.728-64.479
		c-0.157-3.713,2.752-6.879,6.465-7.036l18.991-0.803c3.713-0.157,6.879,2.752,7.036,6.465l2.728,64.479
		C81.197,226.785,78.288,229.951,74.575,230.109z"/>
	<g>
		<path style="fill:#831523;" d="M21.87,84.14c-5.201,19.439-7.584,35.923-8.76,48.165c-1.609,16.739-0.743,23.248,3.998,28.043
			c6.432,6.507,16.817,6.643,28.598,6.798c12.297,0.162,24.76,0.326,31.673-7.082c3.456-3.704,5.462-7.249,2.46-27.76
			c-1.659-11.336-4.87-29.383-11.685-48.439C52.725,83.958,37.297,84.049,21.87,84.14z"/>
		<ellipse style="fill:#E3A47A;" cx="45.001" cy="92.349" rx="12.125" ry="7.625"/>
		<polygon style="fill:#831523;" points="53.061,107.097 45.831,103.11 51.809,90.801 59.039,94.788 		"/>
		<rect x="41.225" y="102.832" style="fill:#7A1426;" width="8.39" height="64.315"/>
		<polygon style="fill:#7A1426;" points="49.547,102.781 42.798,107.539 33.177,95.299 39.926,90.542 		"/>
		<polygon style="fill:#6F1327;" points="21.844,84.063 35.08,99.369 39.922,90.631 		"/>
		<polygon style="fill:#6F1327;" points="68.214,84.029 56.685,97.517 51.875,90.59 		"/>
		<circle style="fill:#431117;" cx="45.474" cy="105.028" r="1.789"/>
		<circle style="fill:#431117;" cx="45.474" cy="123.497" r="1.789"/>
		<circle style="fill:#431117;" cx="45.474" cy="141.966" r="1.789"/>
		<circle style="fill:#431117;" cx="45.474" cy="160.435" r="1.789"/>
	</g>
	<path style="fill:#831523;" d="M14.086,126.589c-2.878,2.849-14.331-7.013-12.378-10.842C18.159,83.496,21.3,86.051,23.283,87.058
		c1.128,0.572,1.231,4.544,5.104,9.458c1.125,1.427,2.018,2.237,2.74,2.808c1.69,1.336,2.46,3.811,1.771,5.79
		C31.388,109.455,30.251,108.945,14.086,126.589L14.086,126.589L14.086,126.589z"/>
	<path style="fill:#050505;" d="M77.218,160.1c-6.869,6.721-19.252,6.572-31.471,6.426c-11.706-0.141-22.025-0.265-28.416-6.169
		c-2.832-2.616-4.264-5.811-4.615-11.231c-0.465,9.515,0.83,14.027,4.615,17.523c6.391,5.904,16.71,6.028,28.416,6.169
		c12.219,0.147,24.603,0.296,31.471-6.426c2.619-2.563,4.397-5.05,3.772-14.336C80.566,156.43,79.112,158.246,77.218,160.1z"/>
	<path style="fill:#686666;" d="M51.583,174.309h-9.496c-0.856,0-1.556-0.7-1.556-1.556v-5.456c0-0.856,0.7-1.556,1.556-1.556h9.496
		c0.856,0,1.556,0.7,1.556,1.556v5.456C53.139,173.609,52.439,174.309,51.583,174.309z"/>
	<path d="M14.174,228.628c0,2.025,2.764,2.413,6.059,2.156c7.229-0.563,14.492-0.563,21.721,0c3.294,0.257,6.059-0.131,6.059-2.156
		c0-5.009-7.575-12.092-16.919-12.092S14.174,223.619,14.174,228.628z"/>
	<path d="M48.013,228.628c0,2.025,2.764,2.413,6.059,2.156c7.229-0.563,14.492-0.563,21.721,0c3.294,0.257,6.059-0.131,6.059-2.156
		c0-5.009-7.575-12.092-16.919-12.092S48.013,223.619,48.013,228.628z"/>
	<g>
		<g>
			<path style="fill:#E3A47A;" d="M13.476,155.298c1.729,4.096,2.231,7.942,1.121,8.589c-1.11,0.647-3.412-2.149-5.141-6.245
				s-2.231-7.942-1.121-8.589C9.445,148.405,11.747,151.201,13.476,155.298z"/>
			<path style="fill:#E3A47A;" d="M12.86,158.903c-0.439,6.434-3.607,11.419-7.077,11.134c-3.469-0.285-5.926-5.732-5.487-12.167
				s3.607-11.419,7.077-11.134S13.299,152.469,12.86,158.903z"/>
		</g>
		<path style="fill:#831523;" d="M12.459,151.258c-0.605,4.353-11.078,6.177-11.388,1.837c-2.618-36.555,0.198-37.165,1.744-37.993
			c0.88-0.471,2.451,2.351,6.594,2.888c1.203,0.156,2.035,0.043,2.676-0.109c1.5-0.356,2.893,0.846,3.242,2.836
			C16.092,125.083,15.231,125.607,12.459,151.258L12.459,151.258L12.459,151.258z"/>
		<path style="fill:#6F1327;" d="M0.659,147.962c-0.076,1.473-0.151,2.994-0.222,4.614c-0.18,4.122,10.642,4.08,11.751,0.092l0,0
			c0.419-1.725,0.418-3.42,0.787-4.908C10.106,150.472,2.868,150.646,0.659,147.962z"/>
	</g>
	<g>
		<path style="fill:#E3A47A;" d="M75.368,38.103c1.495-0.557,3.632,1.315,4.553,2.969c2.769,4.973-2.921,12.54-4.949,12.075
			C72.507,52.582,72.017,39.352,75.368,38.103z"/>
		<path style="fill:#E3A47A;" d="M15.867,38.103c-1.495-0.557-3.632,1.315-4.553,2.969c-2.769,4.973,2.921,12.54,4.949,12.075
			C18.728,52.582,19.218,39.352,15.867,38.103z"/>
		<path style="fill:#603813;" d="M76.511,34.038c-0.55-2.724-0.186-5.515-0.014-8.277c0.174-2.764,0.135-5.629-1.15-8.158
			c-1.285-2.531-4.094-4.649-7.267-4.6c0.109-0.227,0.478-0.912,1.339-1.271c1.018-0.424,2.309-0.221,3.266,0.518
			c-0.891-0.906-2.162-2.012-3.886-3.042c-2.365-1.414-4.632-2.116-6.209-2.481c1.109-0.681,3.904-2.185,7.333-1.767
			c0.651,0.079,1.244,0.218,1.773,0.386c-0.714-0.629-1.825-1.479-3.365-2.201c-4.271-2.001-8.537-1.463-11.265-1.12
			c-5.46,0.688-9.487,2.803-11.778,4.269c1.227-2.579,4.01-4.548,7.158-5.065c0.66-0.167,1.319-0.334,1.979-0.501
			c-0.867-0.218-2.116-0.481-3.64-0.626c-3.875-0.368-6.673,0.291-11.553,1.532c0,0-7.8,2.015-12.631,4.735
			c-0.831,0.468-1.572,0.968-1.572,0.968c-0.332,0.227-0.64,0.448-0.927,0.662c-0.148-0.365-0.406-1.156-0.217-2.146
			c0.195-1.025,0.764-1.717,1.045-2.018c-0.605,0.151-1.634,0.49-2.59,1.273c-1.723,1.411-1.953,3.233-1.997,3.73
			c-0.222-0.222-0.544-0.608-0.723-1.154c-0.338-1.03,0.074-1.902,0.214-2.166c-0.663,0.391-4.744,2.885-5.246,7.336
			c-0.236,2.093,0.414,3.785,0.88,4.723c-0.868,2.244-1.941,5.614-2.364,9.776c-0.554,5.449,1.16,8.446,0.988,13.018
			C12.508,82.705,28.184,89.76,45.428,89.76c15.676,0,27.44-10.309,29.001-17.636c1.436-6.743,2.68-13.529,2.846-24.634
			C77.343,42.993,77.406,38.465,76.511,34.038z"/>
		<path style="fill:#E3A47A;" d="M30.228,27.102c3.948-0.724,4.803-0.253,8.254-0.649c8.543-0.982,11.369-4.799,17.038-3.501
			c1.561,0.357,2.731,0.963,3.413,1.366c-0.531-0.115-1.143-0.179-1.811-0.124c-3.051,0.249-4.846,2.76-5.159,3.213
			c2.326-0.443,14.249-2.527,20.016,3.652c0.87,0.932,1.364,1.799,1.66,2.328c2.947,5.247,0.091,8.491-0.045,17.663
			c-0.079,5.349,0.85,7.067-0.848,10.011c-1.543,2.675-3.95,4.101-4.764,4.57c-4.688,2.705-9.635,2.084-14.68,1.786
			c-18.957-1.118-22.246,0.916-29.573-1.256c-3.363-0.997-4.687-4.617-5.206-7.788c-0.815-4.966-0.821-10.013-0.826-15.037
			c-0.002-1.977-0.004-3.955-0.006-5.933c-0.003-1.281,0.004-2.597,0.516-3.793c0.866-2.023,2.792-3.055,4.604-4.041
			C24.413,28.698,26.618,27.764,30.228,27.102z"/>
		<g style="opacity:0.6;">
			<g>
				<path style="fill:#8A5D3B;" d="M50.045,56.856c0,0,0.419,0.449,1.101,1.283c0.335,0.422,0.745,0.93,1.147,1.58
					c0.09,0.184,0.213,0.297,0.251,0.606c0.007,0.196,0.009,0.4-0.048,0.642c-0.1,0.454-0.323,0.87-0.608,1.261
					c-0.587,0.766-1.39,1.422-2.304,1.997c-0.939,0.58-2.038,0.97-3.226,1.137c-1.182,0.166-2.479,0.072-3.663-0.425
					c-0.585-0.225-1.169-0.604-1.644-0.972c-0.528-0.423-0.952-0.902-1.327-1.437c-0.724-1.082-1.151-2.321-1.285-3.591l0.009-0.494
					c0.014-0.162,0.057-0.351,0.09-0.523c0.092-0.334,0.234-0.635,0.405-0.916c0.355-0.549,0.808-0.966,1.21-1.367
					c0.406-0.397,0.766-0.792,0.957-1.222c0.205-0.445,0.152-0.872,0.038-1.406c-0.223-1.051-0.236-2.105-0.171-3.025
					c0.137-1.864,0.547-3.351,0.69-4.411c0.182-1.058,0.081-1.672,0.081-1.672s0.171,0.606,0.07,1.69
					c-0.081,1.075-0.337,2.599-0.4,4.415c-0.02,0.915,0.03,1.874,0.289,2.88c0.132,0.478,0.261,1.18,0.001,1.772
					c-0.23,0.602-0.672,1.047-1.071,1.461c-0.407,0.413-0.812,0.808-1.095,1.262c-0.133,0.228-0.241,0.47-0.305,0.715
					c-0.016,0.123-0.049,0.226-0.062,0.363l-0.006,0.41c0.134,1.129,0.549,2.272,1.204,3.221c0.319,0.475,0.715,0.926,1.136,1.275
					c0.485,0.383,0.931,0.678,1.47,0.902c1.042,0.456,2.202,0.562,3.293,0.425c1.087-0.149,2.147-0.46,3.024-0.954
					c0.892-0.507,1.682-1.102,2.247-1.777c0.276-0.338,0.48-0.713,0.588-1.071c0.06-0.165,0.077-0.368,0.083-0.571
					c0.008-0.087-0.102-0.311-0.174-0.458c-0.34-0.65-0.713-1.189-1.015-1.63C50.402,57.356,50.045,56.856,50.045,56.856z"/>
			</g>
		</g>
		<g>
			<circle style="fill:#716558;" cx="32.923" cy="41.793" r="2.615"/>
			<circle cx="32.923" cy="41.793" r="1.163"/>
		</g>
		<g>
			<circle style="fill:#716558;" cx="59.448" cy="41.793" r="2.615"/>
			<circle cx="59.448" cy="41.793" r="1.163"/>
		</g>
		<g>
			<path style="opacity:0.27;fill:#A0DAE4;" d="M37.628,35.722H27.425c-2.202,0-4.004,1.802-4.004,4.004v4.132
				c0,2.202,1.802,4.004,4.004,4.004h10.203c2.202,0,4.004-1.802,4.004-4.004v-4.132C41.633,37.524,39.831,35.722,37.628,35.722z"/>
			<path style="opacity:0.27;fill:#A0DAE4;" d="M64.806,35.722H53.298c-1.844,0-3.352,1.508-3.352,3.352v5.437
				c0,1.844,1.508,3.352,3.352,3.352h11.507c1.844,0,3.352-1.508,3.352-3.352v-5.437C68.158,37.231,66.649,35.722,64.806,35.722z"/>
		</g>
		<path style="fill:#231F20;" d="M65.714,35.636H51.36l-1.934,0.523c-0.173,0.047-0.352,0.071-0.531,0.071h-6.172
			c-0.144,0-0.287-0.015-0.428-0.046l-2.548-0.548H26.26c-1.562,0-2.839,1.278-2.839,2.839l0,0c0,0.154,0.091,0.287,0.221,0.351
			c0.542-1.571,2.035-2.709,3.784-2.709h10.203c1.344,0,1.963-0.405,3.406,1.49c0.522,0.686,0.67-0.917,1.473-0.917h6.659
			c0.843,0,0.747,1.696,1.28,0.831c0.618-1.003,1.65-1.404,2.853-1.404h11.507c1.586,0,2.92,1.117,3.264,2.602
			c0.054-0.067,0.088-0.152,0.088-0.245l0,0C68.158,36.914,67.276,35.636,65.714,35.636z"/>
		<path d="M25.376,35.893l-11.44,1.883c-0.701,0.115-0.541,1.092,0.161,0.977l11.031-2.079
			C25.83,36.558,26.078,35.777,25.376,35.893z"/>
		<path d="M66.756,35.96l11.049,1.819c0.677,0.111,0.517,1.088-0.161,0.977l-10.653-2.017C66.314,36.628,66.077,35.849,66.756,35.96
			z"/>
		<g>
			<path style="fill:#B65D89;" d="M36.271,72.289c6.513-0.17,13.027-0.341,19.54-0.511c-1.723,2.826-5.608,4.708-9.858,4.779
				C41.805,76.626,38.018,74.957,36.271,72.289z"/>
			<path style="fill:#DDDDDC;" d="M55.969,71.739c-0.155-0.228-19.692,0.262-19.856,0.541c0.251,0.261,0.928,1.019,1.368,1.433
				c0.148,0.139,0.34,0.21,0.542,0.206c5.258-0.098,10.517-0.196,15.775-0.294c0.174-0.003,0.345-0.062,0.477-0.176
				C54.809,72.988,55.639,72.124,55.969,71.739z"/>
		</g>
	</g>
</g>
</svg>
