<?xml version="1.0" encoding="iso-8859-1"?>
<!-- Generator: Adobe Illustrator 18.1.1, SVG Export Plug-In . SVG Version: 6.00 Build 0)  -->
<svg version="1.1" id="Layer_1" xmlns="http://www.w3.org/2000/svg" xmlns:xlink="http://www.w3.org/1999/xlink" x="0px" y="0px"
	 viewBox="0 0 658.05 1935.4" style="enable-background:new 0 0 658.05 1935.4;" xml:space="preserve">
<style type="text/css">
	.st0{fill:#0E2B47;}
	.st1{fill:#CDCFD1;}
	.st2{fill:#E3A47A;}
	.st3{fill:#050505;}
	.st4{fill:#603813;}
	.st5{opacity:0.6;}
	.st6{fill:#8A5D3B;}
	.st7{fill:#716558;}
	.st8{opacity:0.27;fill:#A0DAE4;}
	.st9{fill:#231F20;}
	.st10{fill:#B65D89;}
	.st11{fill:url(#SVGID_1_);}
	.st12{fill:url(#SVGID_2_);}
	.st13{fill:#A8A8A8;}
	.st14{fill:#989898;}
	.st15{fill:#431117;}
	.st16{fill:#686666;}
</style>
<g>
	<path class="st0" d="M348.9,1931.48l-256.17-2.46c-3.72-0.04-6.73-3.11-6.69-6.82l6.09-633.7c0.04-3.72,3.11-6.73,6.82-6.69
		l256.17,2.46c3.72,0.04,6.73,3.11,6.69,6.82l-6.09,633.7C355.69,1928.51,352.62,1931.52,348.9,1931.48z"/>
	<path class="st0" d="M633.74,1924.56l-255.95,10.83c-3.71,0.16-6.88-2.75-7.04-6.46l-26.79-633.16c-0.16-3.71,2.75-6.88,6.46-7.04
		l255.95-10.83c3.71-0.16,6.88,2.75,7.04,6.46l26.79,633.16C640.36,1921.24,637.45,1924.41,633.74,1924.56z"/>
	<g>
		<path class="st1" d="M147.44,716.17c-43.13,161.2-62.89,297.9-72.65,399.42c-13.34,138.81-6.16,192.79,33.15,232.56
			c53.34,53.96,139.46,55.09,237.15,56.38c101.98,1.34,205.33,2.7,262.65-58.73c28.66-30.71,45.29-60.12,20.4-230.21
			c-13.76-94-40.38-243.66-96.9-401.69C403.31,714.66,275.38,715.41,147.44,716.17z"/>
		<ellipse class="st2" cx="339.26" cy="784.25" rx="100.55" ry="63.23"/>
	</g>
	<polygon class="st1" points="406.11,906.54 346.15,873.48 395.72,771.41 455.67,804.47 	"/>
	<path class="st3" d="M606.43,1346.08c-56.96,55.74-159.65,54.5-260.98,53.29c-97.07-1.17-182.65-2.2-235.64-51.15
		c-23.49-21.7-35.36-48.19-38.27-93.14c-3.86,78.9,6.88,116.32,38.27,145.32c53,48.96,138.57,49.99,235.64,51.15
		c101.33,1.22,204.02,2.45,260.98-53.29c21.72-21.25,36.46-41.88,31.28-118.88C634.19,1315.65,622.14,1330.71,606.43,1346.08z"/>
	<path d="M83.63,1914.36c0,16.79,22.93,20.01,50.24,17.88c59.95-4.67,120.18-4.67,180.13,0c27.32,2.13,50.24-1.09,50.24-17.88
		c0-41.54-62.82-100.28-140.31-100.28S83.63,1872.83,83.63,1914.36z"/>
	<path d="M364.24,1914.36c0,16.79,22.93,20.01,50.24,17.88c59.95-4.67,120.18-4.67,180.13,0c27.32,2.13,50.24-1.09,50.24-17.88
		c0-41.54-62.82-100.28-140.31-100.28S364.24,1872.83,364.24,1914.36z"/>
	<g>
		<path class="st2" d="M591.65,316.96c12.33-4.69,29.97,11.07,37.57,24.99c22.85,41.86-24.11,105.54-40.84,101.63
			C568.04,438.82,564,327.46,591.65,316.96z"/>
		<path class="st2" d="M100.64,316.96c-12.33-4.69-29.97,11.07-37.57,24.99c-22.85,41.86,24.11,105.54,40.84,101.63
			C124.26,438.82,128.3,327.46,100.64,316.96z"/>
		<path class="st4" d="M605.63,286.48c-4.54-22.93-1.54-46.42-0.11-69.66c1.44-23.26,1.11-47.38-9.49-68.66
			c-10.6-21.3-33.78-39.12-59.97-38.72c0.9-1.91,3.95-7.68,11.05-10.7c8.4-3.57,19.05-1.86,26.95,4.36
			c-7.35-7.62-17.84-16.94-32.07-25.61c-19.52-11.9-38.23-17.81-51.24-20.88c9.15-5.74,32.21-18.39,60.51-14.87
			c5.38,0.67,10.26,1.84,14.63,3.25c-5.9-5.29-15.06-12.45-27.77-18.52c-35.25-16.84-70.45-12.32-92.96-9.42
			c-45.05,5.79-78.28,23.59-97.19,35.93c10.13-21.71,33.09-38.28,59.07-42.63c5.44-1.41,10.89-2.81,16.33-4.22
			c-7.15-1.83-17.46-4.05-30.03-5.27c-31.98-3.09-55.06,2.45-95.34,12.9c0,0-64.37,16.96-104.23,39.85
			c-6.85,3.94-12.97,8.15-12.97,8.15c-2.74,1.91-5.28,3.77-7.65,5.57c-1.22-3.07-3.35-9.73-1.79-18.07
			c1.61-8.63,6.31-14.45,8.62-16.98c-4.99,1.27-13.48,4.12-21.38,10.71c-14.22,11.87-16.12,27.21-16.48,31.4
			c-1.83-1.87-4.49-5.11-5.97-9.71c-2.79-8.67,0.61-16.01,1.76-18.23c-5.47,3.29-39.15,24.28-43.29,61.74
			c-1.95,17.62,3.42,31.85,7.26,39.75c-7.16,18.89-16.02,47.25-19.51,82.28c-4.57,45.86,9.57,71.09,8.16,109.56
			C77.47,696.09,206.83,755.46,349.13,755.46c129.36,0,226.44-86.76,239.32-148.43c11.85-56.75,22.11-113.87,23.49-207.34
			C612.49,361.85,613.01,323.74,605.63,286.48z"/>
		<path class="st2" d="M219.15,224.37c32.58-6.09,39.63-2.13,68.11-5.47c70.5-8.27,93.82-40.39,140.6-29.47
			c12.88,3.01,22.54,8.11,28.16,11.5c-4.38-0.97-9.43-1.51-14.95-1.05c-25.18,2.09-39.99,23.23-42.57,27.05
			c19.2-3.72,117.58-21.27,165.18,30.74c7.18,7.85,11.25,15.14,13.7,19.59c24.32,44.16,0.75,71.46-0.37,148.66
			c-0.66,45.02,7.01,59.48-7,84.26c-12.73,22.52-32.6,34.52-39.31,38.47c-38.68,22.77-79.51,17.54-121.14,15.03
			c-156.43-9.41-183.58,7.71-244.04-10.57c-27.75-8.39-38.68-38.86-42.96-65.55c-6.72-41.8-6.78-84.27-6.81-126.56
			c-0.02-16.64-0.03-33.29-0.05-49.94c-0.02-10.78,0.03-21.86,4.26-31.92c7.14-17.02,23.04-25.71,37.99-34.01
			C171.17,237.8,189.36,229.94,219.15,224.37z"/>
		<g class="st5">
			<g>
				<path class="st6" d="M382.69,474.79c0,0,0.84,0.97,2.42,2.79c1.57,1.82,3.89,4.5,6.69,8.02c2.78,3.55,6.2,7.8,9.49,13.29
					c0.4,0.7,0.8,1.41,1.18,2.18c0.18,0.4,0.37,0.77,0.54,1.22c0.09,0.21,0.17,0.45,0.24,0.7c0.03,0.16,0.09,0.26,0.1,0.61
					l0.02,0.31c0.02,0.41,0.05,0.83,0.07,1.25c-0.02,0.47-0.04,0.95-0.05,1.43c-0.01,0.49-0.09,0.94-0.15,1.41
					c-0.06,0.47-0.13,0.93-0.24,1.39c-0.37,1.86-1.04,3.69-1.9,5.44c-0.86,1.76-1.89,3.47-3.07,5.1
					c-4.78,6.52-11.44,12.1-19.08,16.92c-0.96,0.6-1.93,1.19-2.97,1.77c-1.03,0.57-2.1,1.11-3.16,1.6c-2.13,1-4.32,1.91-6.57,2.72
					c-4.51,1.63-9.29,2.84-14.27,3.53c-2.49,0.34-5.02,0.56-7.58,0.62c-2.56,0.04-5.16-0.07-7.76-0.34c-2.6-0.31-5.2-0.78-7.77-1.44
					c-2.56-0.71-5.1-1.57-7.55-2.66c-2.45-1.09-4.85-2.34-7.11-3.8l-0.85-0.54l-0.43-0.27l-0.11-0.07c0.07,0.05-0.22-0.15-0.22-0.15
					l-0.19-0.14l-1.53-1.14c-1.02-0.78-2.04-1.45-3.09-2.44c-1.03-0.93-2.13-1.84-3.08-2.81l-2.8-2.96l-2.55-3.17
					c-0.82-1.08-1.55-2.22-2.33-3.33c-2.93-4.56-5.24-9.48-6.96-14.54c-0.82-2.55-1.58-5.11-2.12-7.72
					c-0.28-1.3-0.53-2.61-0.73-3.93c-0.11-0.66-0.19-1.32-0.27-1.99l-0.11-1l-0.03-0.25c0.01,0.16-0.02-0.36-0.02-0.35l0-0.12
					l-0.01-0.47l-0.02-0.95c-0.01-0.31-0.02-0.62,0.01-1.02c0.05-0.74,0.06-1.51,0.16-2.23c0.11-0.71,0.19-1.41,0.33-2.11
					c0.17-0.69,0.3-1.4,0.5-2.08c0.8-2.74,2.06-5.28,3.56-7.55c3.01-4.55,6.79-8.02,10.12-11.37c3.36-3.32,6.31-6.65,7.73-10.31
					c0.71-1.83,1.02-3.74,0.95-5.69c-0.05-0.97-0.14-1.95-0.36-2.93c-0.22-1.1-0.43-2.19-0.65-3.27c-0.21-1.08-0.43-2.16-0.64-3.22
					c-0.14-1.13-0.28-2.25-0.41-3.36c-0.33-2.24-0.41-4.39-0.5-6.51c-0.16-4.24,0.01-8.32,0.28-12.21
					c0.57-7.78,1.77-14.79,2.88-20.96c1.1-6.17,2.17-11.5,2.84-15.92c0.68-4.42,0.95-7.91,0.94-10.31c0.04-0.6-0.04-1.12-0.07-1.58
					c-0.04-0.46-0.07-0.84-0.1-1.15c-0.05-0.62-0.08-0.94-0.08-0.94s0.06,0.32,0.17,0.93c0.06,0.31,0.13,0.69,0.21,1.14
					c0.07,0.45,0.21,0.98,0.23,1.58c0.23,2.4,0.36,5.98,0,10.48c-0.33,4.5-0.94,9.94-1.66,16.14c-0.68,6.2-1.41,13.19-1.61,20.78
					c-0.07,3.79-0.03,7.74,0.34,11.77c0.09,1.01,0.19,2.02,0.29,3.05c0.06,1.04,0.29,2.01,0.43,3.03c0.16,1.01,0.32,2.02,0.48,3.05
					c0.25,1.06,0.5,2.12,0.76,3.19c0.25,1.07,0.51,2.15,0.77,3.23c0.31,1.19,0.49,2.45,0.6,3.73c0.2,2.56-0.13,5.28-1.01,7.8
					c-0.86,2.53-2.23,4.82-3.76,6.86c-1.53,2.05-3.23,3.87-4.92,5.64c-3.37,3.52-6.75,6.85-9.12,10.64
					c-2.39,3.79-3.59,7.93-3.36,12.5l0.01,0.47l0,0.12c0,0.09-0.02-0.35,0-0.11l0.02,0.22l0.1,0.88c0.08,0.59,0.16,1.18,0.26,1.77
					c0.18,1.18,0.42,2.37,0.69,3.55c0.5,2.37,1.22,4.7,1.98,7.01c1.59,4.6,3.72,9.01,6.36,13.07c0.69,0.99,1.33,2.02,2.06,2.98
					l2.25,2.83l2.46,2.64c0.83,0.86,1.71,1.58,2.56,2.38c0.78,0.79,1.9,1.55,2.89,2.32l1.52,1.15l0.19,0.14
					c0.06,0.04-0.16-0.12-0.02-0.02l0.09,0.06l0.38,0.24l0.75,0.49c1.99,1.31,4.1,2.42,6.25,3.4c2.15,0.99,4.39,1.74,6.64,2.41
					c2.26,0.63,4.56,1.1,6.87,1.43c2.32,0.29,4.64,0.45,6.96,0.46c2.32,0,4.63-0.15,6.91-0.41c4.57-0.51,9.01-1.58,13.27-2.91
					c2.13-0.67,4.2-1.44,6.2-2.3c1.01-0.43,1.97-0.87,2.91-1.34c0.94-0.48,1.89-1,2.81-1.54c3.71-2.14,7.17-4.51,10.33-7
					c3.16-2.49,5.97-5.17,8.28-8.02c2.27-2.86,4.05-5.91,4.9-9.02c0.13-0.39,0.21-0.78,0.28-1.17c0.07-0.39,0.18-0.78,0.2-1.15
					c0.04-0.37,0.08-0.74,0.13-1.11c0-0.42,0.01-0.84,0.01-1.25l0-0.31c0.02,0.15,0,0.04,0,0c-0.04-0.15-0.07-0.3-0.13-0.47
					c-0.1-0.33-0.25-0.69-0.38-1.04c-0.29-0.7-0.62-1.4-0.95-2.08c-2.82-5.43-5.87-9.99-8.34-13.71c-2.53-3.7-4.52-6.61-5.93-8.56
					C383.43,475.84,382.69,474.79,382.69,474.79z"/>
			</g>
		</g>
		<g>
			<g>
				<ellipse class="st7" cx="209.05" cy="334.82" rx="21.58" ry="22.01"/>
				<ellipse cx="209.05" cy="334.82" rx="9.6" ry="9.79"/>
			</g>
			<g>
				<ellipse class="st7" cx="427.94" cy="334.82" rx="21.58" ry="22.01"/>
				<ellipse cx="427.94" cy="334.82" rx="9.6" ry="9.79"/>
			</g>
		</g>
		<g>
			<path class="st8" d="M280.22,296.92h-84.19c-18.17,0-33.04,15.17-33.04,33.7v34.78c0,18.54,14.87,33.7,33.04,33.7h84.19
				c18.17,0,33.04-15.17,33.04-33.7v-34.78C313.27,312.08,298.4,296.92,280.22,296.92z"/>
			<path class="st8" d="M504.49,296.92h-94.96c-15.21,0-27.66,12.7-27.66,28.21v45.76c0,15.52,12.45,28.21,27.66,28.21h94.96
				c15.21,0,27.66-12.7,27.66-28.21v-45.76C532.15,309.61,519.71,296.92,504.49,296.92z"/>
		</g>
		<path class="st9" d="M511.99,296.19H393.54l-15.96,4.4c-1.43,0.39-2.9,0.59-4.38,0.59h-50.93c-1.19,0-2.37-0.13-3.53-0.38
			l-21.03-4.62h-111.3c-12.89,0-23.43,10.75-23.43,23.9v0c0,1.3,0.75,2.42,1.82,2.96c4.47-13.22,16.79-22.8,31.22-22.8h84.19
			c11.09,0,16.2-3.41,28.1,12.54c4.31,5.77,5.53-7.72,12.15-7.72h54.95c6.95,0,6.17,14.28,10.57,6.99
			c5.1-8.44,13.61-11.81,23.54-11.81h94.96c13.08,0,24.1,9.4,26.93,21.9c0.45-0.57,0.73-1.28,0.73-2.06v0
			C532.15,306.95,524.88,296.19,511.99,296.19z"/>
		<path d="M179.12,298.35l-94.4,15.85c-5.79,0.97-4.47,9.19,1.33,8.22l91.03-17.5C182.86,303.95,184.91,297.38,179.12,298.35z"/>
		<path d="M520.58,298.92l91.18,15.31c5.59,0.94,4.27,9.16-1.33,8.22l-87.91-16.98C516.94,304.54,514.99,297.98,520.58,298.92z"/>
		<path class="st10" d="M290.84,607.27c38.93-1.38,77.86-2.75,116.79-4.13c-10.69,7.38-34.17,12.7-59.56,13.49
			C323.27,617.42,300.89,613.75,290.84,607.27z"/>
		
			<radialGradient id="SVGID_1_" cx="800.589" cy="-567.0104" r="289.7056" gradientTransform="matrix(0.3231 0 0 0.1977 226.859 574.3644)" gradientUnits="userSpaceOnUse">
			<stop  offset="0" style="stop-color:#EE4036;stop-opacity:0.6"/>
			<stop  offset="0.1661" style="stop-color:#ED473B;stop-opacity:0.5004"/>
			<stop  offset="0.4023" style="stop-color:#EB5947;stop-opacity:0.3586"/>
			<stop  offset="0.6805" style="stop-color:#E8785C;stop-opacity:0.1917"/>
			<stop  offset="0.9886" style="stop-color:#E3A279;stop-opacity:6.855369e-03"/>
			<stop  offset="1" style="stop-color:#E3A47A;stop-opacity:0"/>
		</radialGradient>
		<ellipse class="st11" cx="485.52" cy="462.26" rx="118.88" ry="59.38"/>
		
			<radialGradient id="SVGID_2_" cx="-79.3581" cy="-577.3257" r="289.7056" gradientTransform="matrix(0.3231 0 0 0.1977 226.859 573.0047)" gradientUnits="userSpaceOnUse">
			<stop  offset="0" style="stop-color:#EE4036;stop-opacity:0.6"/>
			<stop  offset="0.1661" style="stop-color:#ED473B;stop-opacity:0.5004"/>
			<stop  offset="0.4023" style="stop-color:#EB5947;stop-opacity:0.3586"/>
			<stop  offset="0.6805" style="stop-color:#E8785C;stop-opacity:0.1917"/>
			<stop  offset="0.9886" style="stop-color:#E3A279;stop-opacity:6.855369e-03"/>
			<stop  offset="1" style="stop-color:#E3A47A;stop-opacity:0"/>
		</radialGradient>
		<ellipse class="st12" cx="201.22" cy="458.86" rx="118.88" ry="59.38"/>
	</g>
	<g>
		<path class="st1" d="M119.18,1059.26c-20.51,26.6-125.54-41.8-113.72-75.43c99.56-283.25,128.2-265.72,145.62-259.64
			c9.9,3.46,15.14,35.99,52.4,72.09c10.82,10.48,19.06,16.15,25.62,20.05c15.36,9.12,24.43,28.6,20.96,45.63
			C242.45,899.31,232.54,896.38,119.18,1059.26L119.18,1059.26L119.18,1059.26z"/>
		<g>
			<g>
				<path class="st2" d="M145.9,1295.87c18.74,31.76,27.11,62.81,18.7,69.35c-8.41,6.55-30.42-13.89-49.16-45.65
					c-18.74-31.76-27.11-62.81-18.7-69.35S127.16,1264.12,145.9,1295.87z"/>
				<path class="st2" d="M144.82,1326.19c3.5,53.37-17.03,97.84-45.86,99.33s-55.04-40.56-58.54-93.93
					c-3.5-53.37,17.03-97.84,45.86-99.33S141.32,1272.82,144.82,1326.19z"/>
			</g>
			<path class="st1" d="M133.07,1263.8c-0.16,36.45-84.22,63.01-91.57,27.68C-20.41,993.94,2.05,985.81,13.85,977.29
				c6.71-4.85,22.74,16.61,57.38,16.45c10.06-0.05,16.78-1.89,21.87-3.85c11.93-4.58,24.71,3.75,29.78,19.72
				C134.01,1044.65,127.51,1049.91,133.07,1263.8L133.07,1263.8L133.07,1263.8z"/>
			<path class="st13" d="M32.45,1249.75c1,12.19,2.07,24.77,3.28,38.17c3.08,34.08,91.98,21.77,96.68-12.23l0,0
				c1.53-14.64-0.35-28.57,1.04-41.21C112.87,1259.94,53.58,1269.37,32.45,1249.75z"/>
		</g>
	</g>
	<g>
		<path class="st1" d="M530.96,1040.72c18.19,27.18,128.13-26.3,119.14-59.2c-75.66-277.11-105.55-263.58-123.34-259.67
			c-10.12,2.23-17.99,32.31-57.97,62.44c-11.61,8.75-20.26,13.23-27.1,16.21c-16.01,6.99-26.61,24.39-24.56,40.79
			C421.64,877.26,431.72,875.53,530.96,1040.72L530.96,1040.72L530.96,1040.72z"/>
		<g>
			<path class="st2" d="M529,1293.8c-16.47,31.59-22.61,61.46-13.7,66.72c8.9,5.26,29.47-16.09,45.94-47.68s22.61-61.46,13.7-66.72
				C566.04,1240.86,545.47,1262.21,529,1293.8z"/>
			<path class="st2" d="M534.23,1317.55c0.37,50.23,24.18,89.7,53.18,88.15c29-1.55,52.21-43.52,51.84-93.76
				s-24.18-89.7-53.18-88.15C557.07,1225.34,533.86,1267.32,534.23,1317.55z"/>
			<path class="st1" d="M541.46,1258.04c2.81,34.04,88.98,50.29,93.78,16.53c40.42-284.39,17.31-289.69,4.87-296.45
				c-7.08-3.84-21.59,17.85-56.31,21.23c-10.08,0.98-16.95-0.06-22.2-1.37c-12.29-3.06-24.49,6.03-28.41,21.47
				C524.6,1053.34,531.49,1057.59,541.46,1258.04L541.46,1258.04L541.46,1258.04z"/>
			<path class="st13" d="M640.18,1238.71c-1.62,12.12-3.33,24.63-5.22,37.94c-4.81,33.87-91.25,17.57-94.07-16.58l0,0
				c-0.73-14.68-1.44-28.19-2.13-40.87C557.57,1245.55,618.45,1257.33,640.18,1238.71z"/>
		</g>
	</g>
	<rect x="307.95" y="871.18" class="st13" width="69.58" height="533.34"/>
	<polygon class="st14" points="531.76,715.25 436.15,827.1 396.27,769.65 	"/>
	<polygon class="st13" points="376.96,870.76 321,910.21 241.21,808.71 297.18,769.26 	"/>
	<circle class="st15" cx="343.19" cy="889.38" r="14.83"/>
	<circle class="st15" cx="343.19" cy="1042.54" r="14.83"/>
	<circle class="st15" cx="343.19" cy="1195.7" r="14.83"/>
	<circle class="st15" cx="343.19" cy="1348.86" r="14.83"/>
	<path class="st16" d="M405.19,1463.92H303.75c-0.86,0-1.56-0.7-1.56-1.56v-67.94c0-0.86,0.7-1.56,1.56-1.56h101.44
		c0.86,0,1.56,0.7,1.56,1.56v67.94C406.75,1463.22,406.05,1463.92,405.19,1463.92z"/>
	<polygon class="st14" points="147.23,715.53 256.99,842.46 297.14,770 	"/>
</g>
</svg>
