<?xml version="1.0" encoding="iso-8859-1"?>
<!-- Generator: Adobe Illustrator 18.1.1, SVG Export Plug-In . SVG Version: 6.00 Build 0)  -->
<svg version="1.1" id="Layer_1" xmlns="http://www.w3.org/2000/svg" xmlns:xlink="http://www.w3.org/1999/xlink" x="0px" y="0px"
	 viewBox="0 0 595.28 595.28" style="enable-background:new 0 0 595.28 595.28;" xml:space="preserve">
<desc  xmlns:shape="http://adobe.com/products/shape">
	<shape:version>1.1.2</shape:version>
	<shape:captureDetail>0.882063</shape:captureDetail>
	<shape:source>1</shape:source>
</desc>
<desc  xmlns:shape="http://adobe.com/products/shape">
	<shape:version>1.1.2</shape:version>
	<shape:captureDetail>0.882063</shape:captureDetail>
	<shape:source>1</shape:source>
</desc>
<g>
	<path style="fill:#E4A579;" d="M114.198,66.596c1.907-0.711,4.634,1.678,5.809,3.788c3.532,6.345-3.727,15.998-6.314,15.405
		C110.547,85.068,109.923,68.189,114.198,66.596z"/>
	<path style="fill:#E4A579;" d="M38.286,66.596c-1.907-0.711-4.634,1.678-5.809,3.788c-3.532,6.345,3.727,15.998,6.314,15.405
		C41.936,85.068,42.561,68.189,38.286,66.596z"/>
	<path style="fill:#603913;" d="M115.656,61.409c-0.702-3.475-0.237-7.036-0.018-10.56c0.222-3.526,0.172-7.181-1.467-10.408
		c-1.639-3.228-5.223-5.931-9.271-5.869c0.139-0.289,0.61-1.163,1.709-1.622c1.298-0.541,2.945-0.282,4.167,0.661
		c-1.137-1.156-2.759-2.567-4.958-3.881c-3.018-1.803-5.91-2.699-7.922-3.166c1.414-0.869,4.98-2.788,9.355-2.254
		c0.831,0.101,1.587,0.278,2.262,0.492c-0.911-0.802-2.328-1.887-4.293-2.808c-5.449-2.553-10.892-1.867-14.371-1.428
		c-6.965,0.878-12.103,3.576-15.026,5.446c1.566-3.29,5.117-5.803,9.132-6.461c0.842-0.213,1.683-0.426,2.525-0.64
		c-1.106-0.278-2.7-0.614-4.643-0.799c-4.944-0.469-8.513,0.371-14.739,1.955c0,0-9.951,2.571-16.115,6.041
		c-1.06,0.597-2.006,1.235-2.006,1.236c-0.424,0.289-0.816,0.572-1.182,0.844c-0.189-0.466-0.518-1.475-0.277-2.738
		c0.249-1.308,0.975-2.191,1.333-2.574c-0.772,0.193-2.084,0.625-3.305,1.624c-2.199,1.8-2.492,4.125-2.548,4.759
		c-0.283-0.284-0.694-0.775-0.923-1.472c-0.431-1.315,0.095-2.426,0.273-2.764c-0.846,0.499-6.052,3.681-6.692,9.359
		c-0.301,2.671,0.528,4.829,1.122,6.026c-1.107,2.863-2.476,7.162-3.016,12.473c-0.707,6.952,1.479,10.776,1.261,16.608
		C34,123.5,54,132.5,76,132.5c20,0,35.009-13.152,37-22.5c1.833-8.603,3.419-17.26,3.631-31.429
		C116.717,72.834,116.798,67.058,115.656,61.409z"/>
	<path style="fill:#E4A579;" d="M56.607,52.561c5.037-0.924,6.127-0.322,10.53-0.828c10.899-1.253,14.504-6.122,21.737-4.467
		c1.991,0.456,3.484,1.229,4.354,1.743c-0.678-0.147-1.458-0.228-2.311-0.159c-3.893,0.317-6.182,3.521-6.581,4.1
		c2.968-0.565,18.178-3.224,25.537,4.66c1.11,1.189,1.74,2.296,2.118,2.969c3.76,6.694,0.116,10.832-0.058,22.535
		c-0.101,6.824,1.084,9.016-1.082,12.773c-1.968,3.413-5.04,5.232-6.078,5.831c-5.98,3.451-12.293,2.659-18.728,2.279
		c-24.185-1.427-28.382,1.169-37.73-1.603c-4.29-1.272-5.979-5.89-6.642-9.936c-1.04-6.336-1.048-12.774-1.053-19.185
		c-0.002-2.522-0.005-5.046-0.007-7.57c-0.003-1.635,0.005-3.313,0.658-4.839c1.104-2.58,3.562-3.898,5.873-5.155
		C49.189,54.597,52.002,53.406,56.607,52.561z"/>
	<g style="opacity:0.6;">
		<g>
			<path style="fill:#8B5E3C;" d="M81.891,90.521c0,0,0.534,0.573,1.405,1.637c0.428,0.539,0.951,1.187,1.464,2.016
				c0.115,0.235,0.271,0.378,0.32,0.774c0.009,0.25,0.012,0.511-0.061,0.819c-0.127,0.58-0.413,1.11-0.776,1.609
				c-0.75,0.977-1.773,1.814-2.94,2.547c-1.199,0.74-2.6,1.237-4.115,1.451c-1.507,0.212-3.163,0.091-4.673-0.543
				c-0.378-0.156-0.748-0.332-1.096-0.553c-0.162-0.092-0.382-0.22-0.527-0.335c-0.158-0.118-0.314-0.219-0.474-0.352
				c-0.673-0.54-1.215-1.15-1.693-1.834c-0.923-1.381-1.468-2.961-1.639-4.581l0.011-0.631c0.018-0.206,0.073-0.448,0.115-0.668
				c0.117-0.427,0.299-0.81,0.517-1.169c0.453-0.701,1.031-1.233,1.544-1.744c0.518-0.506,0.977-1.01,1.221-1.559
				c0.261-0.568,0.193-1.112,0.048-1.794c-0.284-1.34-0.301-2.685-0.219-3.86c0.175-2.379,0.698-4.276,0.88-5.628
				c0.101-0.675,0.147-1.208,0.144-1.574c-0.013-0.364-0.04-0.56-0.04-0.56s0.046,0.19,0.094,0.557
				c0.035,0.367,0.055,0.912-0.004,1.599c-0.104,1.372-0.43,3.316-0.511,5.632c-0.026,1.167,0.039,2.391,0.368,3.674
				c0.071,0.313,0.176,0.678,0.194,1.077c0.018,0.393-0.04,0.809-0.193,1.184c-0.294,0.768-0.857,1.336-1.367,1.864
				c-0.519,0.527-1.036,1.031-1.397,1.611c-0.17,0.291-0.308,0.6-0.39,0.912c-0.021,0.156-0.063,0.288-0.079,0.463l-0.007,0.523
				c0.171,1.44,0.7,2.899,1.536,4.109c0.406,0.607,0.912,1.181,1.45,1.627c0.137,0.119,0.307,0.234,0.459,0.351
				c0.159,0.128,0.279,0.19,0.451,0.295c0.306,0.202,0.632,0.362,0.965,0.505c1.329,0.581,2.81,0.717,4.201,0.543
				c1.387-0.19,2.74-0.587,3.858-1.217c1.138-0.646,2.146-1.406,2.867-2.267c0.352-0.432,0.613-0.909,0.75-1.366
				c0.076-0.21,0.099-0.47,0.106-0.728c0.01-0.111-0.13-0.397-0.221-0.584c-0.433-0.829-0.91-1.517-1.295-2.079
				C82.359,91.152,81.891,90.521,81.891,90.521z"/>
		</g>
	</g>
	<g>
		<circle style="fill:#726658;" cx="60.046" cy="71.303" r="3.336"/>
		<circle cx="60.046" cy="71.303" r="1.484"/>
	</g>
	<g>
		<circle style="fill:#726658;" cx="93.887" cy="71.303" r="3.336"/>
		<circle cx="93.887" cy="71.303" r="1.484"/>
	</g>
	<g>
		<path style="opacity:0.27;fill:#A1DBE5;" d="M66.049,63.559H53.032c-2.81,0-5.109,2.299-5.109,5.109v5.272
			c0,2.81,2.299,5.109,5.109,5.109h13.017c2.81,0,5.109-2.299,5.109-5.109v-5.272C71.158,65.858,68.859,63.559,66.049,63.559z"/>
		<path style="opacity:0.27;fill:#A1DBE5;" d="M100.722,63.559H86.041c-2.352,0-4.277,1.924-4.277,4.277v6.936
			c0,2.352,1.924,4.277,4.277,4.277h14.681c2.352,0,4.277-1.924,4.277-4.277v-6.936C104.999,65.483,103.074,63.559,100.722,63.559z"
			/>
	</g>
	<path d="M101.881,63.449H83.569l-2.468,0.668c-0.221,0.06-0.449,0.09-0.677,0.09h-7.874c-0.183,0-0.366-0.019-0.546-0.058
		l-3.251-0.7H51.546c-1.992,0-3.622,1.63-3.622,3.622l0,0c0,0.197,0.116,0.366,0.281,0.448c0.692-2.004,2.596-3.456,4.827-3.456
		h13.017c1.715,0,2.505-0.517,4.345,1.901c0.666,0.875,0.855-1.17,1.879-1.17h8.495c1.075,0,0.953,2.164,1.634,1.06
		c0.788-1.279,2.105-1.791,3.639-1.791h14.681c2.023,0,3.726,1.425,4.164,3.32c0.069-0.086,0.113-0.194,0.113-0.312l0,0
		C104.999,65.079,103.874,63.449,101.881,63.449z"/>
	<path d="M50.418,63.777l-14.595,2.403c-0.894,0.147-0.691,1.393,0.205,1.246l14.074-2.653
		C50.996,64.625,51.314,63.629,50.418,63.777z"/>
	<path d="M103.21,63.862l14.096,2.321c0.864,0.142,0.66,1.388-0.205,1.246l-13.591-2.573
		C102.646,64.714,102.345,63.72,103.21,63.862z"/>
	<g>
		<path style="fill:#B75E8A;" d="M64.318,110.211c8.31-0.217,16.62-0.435,24.93-0.652c-2.198,3.605-7.155,6.007-12.576,6.097
			C71.378,115.744,66.547,113.615,64.318,110.211z"/>
		<path style="fill:#DEDDDD;" d="M89.448,109.51c-0.197-0.291-25.124,0.334-25.332,0.691c0.32,0.332,1.184,1.299,1.746,1.828
			c0.188,0.177,0.433,0.268,0.692,0.263c6.709-0.125,13.418-0.25,20.126-0.375c0.222-0.004,0.44-0.079,0.608-0.224
			C87.968,111.102,89.027,110,89.448,109.51z"/>
	</g>
</g>
<g>
	<path style="fill:#E4A579;" d="M221.693,67.381c1.907-0.711,4.634,1.678,5.809,3.788c3.532,6.345-3.727,15.998-6.314,15.405
		C218.042,85.853,217.417,68.974,221.693,67.381z"/>
	<path style="fill:#E4A579;" d="M145.78,67.381c-1.907-0.711-4.634,1.678-5.809,3.788c-3.532,6.345,3.727,15.998,6.314,15.405
		C149.431,85.853,150.056,68.974,145.78,67.381z"/>
	<path style="fill:#603913;" d="M224.156,61.409c-0.702-3.475-0.237-7.036-0.018-10.56c0.222-3.526,0.172-7.181-1.467-10.408
		c-1.639-3.228-5.223-5.931-9.271-5.869c0.139-0.289,0.61-1.163,1.709-1.622c1.298-0.541,2.945-0.282,4.167,0.661
		c-1.137-1.156-2.759-2.567-4.958-3.881c-3.018-1.803-5.91-2.699-7.922-3.166c1.414-0.869,4.98-2.788,9.355-2.254
		c0.831,0.101,1.587,0.278,2.262,0.492c-0.911-0.802-2.328-1.887-4.293-2.808c-5.449-2.553-10.892-1.867-14.371-1.428
		c-6.965,0.878-12.103,3.576-15.026,5.446c1.566-3.29,5.117-5.803,9.132-6.461c0.842-0.213,1.683-0.426,2.525-0.64
		c-1.106-0.278-2.7-0.614-4.643-0.799c-4.944-0.469-8.513,0.371-14.739,1.955c0,0-9.951,2.571-16.115,6.041
		c-1.06,0.597-2.006,1.235-2.006,1.236c-0.424,0.289-0.816,0.572-1.182,0.844c-0.189-0.466-0.518-1.475-0.277-2.738
		c0.249-1.308,0.975-2.191,1.333-2.574c-0.772,0.193-2.084,0.625-3.305,1.624c-2.199,1.8-2.492,4.125-2.548,4.759
		c-0.283-0.284-0.694-0.775-0.923-1.472c-0.431-1.315,0.095-2.426,0.273-2.764c-0.846,0.499-6.052,3.681-6.692,9.359
		c-0.301,2.671,0.528,4.829,1.122,6.026c-1.107,2.863-2.476,7.162-3.016,12.473c-0.707,6.952,1.479,10.776,1.261,16.608
		C142.5,123.5,162.5,132.5,184.5,132.5c20,0,35.009-13.152,37-22.5c1.833-8.603,3.419-17.26,3.631-31.429
		C225.217,72.834,225.298,67.058,224.156,61.409z"/>
	<path style="fill:#E4A579;" d="M164.102,53.346c5.037-0.924,6.127-0.322,10.53-0.828c10.899-1.253,14.504-6.122,21.737-4.467
		c1.991,0.456,3.484,1.229,4.354,1.743c-0.678-0.147-1.458-0.228-2.311-0.159c-3.893,0.317-6.182,3.521-6.581,4.1
		c2.968-0.565,18.178-3.224,25.537,4.66c1.11,1.189,1.74,2.296,2.118,2.969c3.76,6.694,0.116,10.832-0.058,22.535
		c-0.101,6.824,1.084,9.016-1.082,12.773c-1.968,3.413-5.04,5.232-6.078,5.831c-5.98,3.451-12.293,2.659-18.728,2.279
		c-24.185-1.427-28.382,1.169-37.729-1.603c-4.29-1.272-5.979-5.89-6.642-9.936c-1.04-6.336-1.048-12.774-1.053-19.185
		c-0.002-2.522-0.005-5.046-0.007-7.57c-0.003-1.635,0.005-3.313,0.658-4.839c1.104-2.58,3.562-3.898,5.873-5.155
		C156.684,55.383,159.497,54.191,164.102,53.346z"/>
	<g style="opacity:0.6;">
		<g>
			<path style="fill:#8B5E3C;" d="M189.386,91.306c0,0,0.534,0.573,1.405,1.637c0.428,0.539,0.951,1.187,1.464,2.016
				c0.115,0.235,0.271,0.378,0.32,0.774c0.009,0.25,0.012,0.511-0.061,0.819c-0.127,0.58-0.413,1.11-0.776,1.609
				c-0.75,0.977-1.773,1.814-2.94,2.547c-1.199,0.74-2.6,1.237-4.115,1.451c-1.507,0.212-3.163,0.091-4.673-0.543
				c-0.378-0.156-0.748-0.332-1.096-0.553c-0.162-0.092-0.382-0.22-0.527-0.335c-0.158-0.118-0.314-0.219-0.474-0.352
				c-0.673-0.54-1.215-1.15-1.693-1.834c-0.923-1.381-1.468-2.961-1.639-4.581l0.011-0.631c0.018-0.206,0.073-0.448,0.115-0.668
				c0.117-0.427,0.299-0.81,0.517-1.169c0.453-0.701,1.031-1.233,1.544-1.744c0.518-0.506,0.977-1.01,1.221-1.559
				c0.261-0.568,0.193-1.112,0.048-1.794c-0.284-1.34-0.301-2.685-0.219-3.86c0.175-2.379,0.698-4.276,0.88-5.628
				c0.101-0.675,0.147-1.208,0.144-1.574c-0.013-0.364-0.04-0.56-0.04-0.56s0.046,0.19,0.094,0.557
				c0.035,0.367,0.055,0.912-0.004,1.599c-0.104,1.372-0.43,3.316-0.511,5.632c-0.026,1.167,0.038,2.391,0.368,3.674
				c0.071,0.313,0.176,0.678,0.194,1.077c0.018,0.393-0.04,0.809-0.193,1.184c-0.294,0.768-0.857,1.336-1.367,1.864
				c-0.519,0.527-1.036,1.031-1.397,1.611c-0.17,0.291-0.308,0.6-0.39,0.912c-0.021,0.156-0.063,0.288-0.079,0.463l-0.007,0.523
				c0.171,1.44,0.7,2.899,1.536,4.109c0.406,0.607,0.912,1.181,1.45,1.627c0.137,0.119,0.307,0.234,0.459,0.351
				c0.159,0.128,0.279,0.19,0.451,0.295c0.306,0.202,0.632,0.362,0.965,0.505c1.329,0.581,2.81,0.717,4.201,0.543
				c1.387-0.19,2.74-0.587,3.858-1.217c1.138-0.646,2.146-1.406,2.867-2.267c0.352-0.432,0.613-0.909,0.75-1.366
				c0.076-0.21,0.099-0.47,0.106-0.728c0.01-0.111-0.13-0.397-0.221-0.584c-0.433-0.829-0.91-1.517-1.295-2.079
				C189.853,91.937,189.386,91.306,189.386,91.306z"/>
		</g>
	</g>
	<g>
		<g>
			<circle style="fill:#726658;" cx="172.54" cy="72.089" r="3.336"/>
			<circle cx="172.54" cy="72.089" r="1.484"/>
		</g>
		<g>
			<circle style="fill:#726658;" cx="206.381" cy="72.089" r="3.336"/>
			<circle cx="206.381" cy="72.089" r="1.484"/>
		</g>
	</g>
	<g>
		<path style="opacity:0.27;fill:#A1DBE5;" d="M173.544,64.344h-13.017c-2.81,0-5.109,2.299-5.109,5.109v5.272
			c0,2.81,2.299,5.109,5.109,5.109h13.017c2.81,0,5.109-2.299,5.109-5.109v-5.272C178.652,66.643,176.353,64.344,173.544,64.344z"/>
		<path style="opacity:0.27;fill:#A1DBE5;" d="M208.217,64.344h-14.681c-2.352,0-4.277,1.924-4.277,4.277v6.936
			c0,2.352,1.924,4.277,4.277,4.277h14.681c2.352,0,4.277-1.924,4.277-4.277v-6.936C212.493,66.268,210.569,64.344,208.217,64.344z"
			/>
	</g>
	<path d="M209.376,64.234h-18.313l-2.468,0.668c-0.221,0.06-0.449,0.09-0.677,0.09h-7.874c-0.183,0-0.366-0.019-0.546-0.058
		l-3.251-0.7h-17.207c-1.992,0-3.622,1.63-3.622,3.622l0,0c0,0.197,0.116,0.366,0.281,0.448c0.692-2.004,2.596-3.456,4.827-3.456
		h13.017c1.715,0,2.505-0.517,4.345,1.901c0.666,0.875,0.855-1.17,1.879-1.17h8.495c1.075,0,0.953,2.164,1.634,1.06
		c0.788-1.279,2.105-1.791,3.639-1.791h14.681c2.023,0,3.726,1.425,4.164,3.32c0.069-0.086,0.113-0.194,0.113-0.312l0,0
		C212.493,65.864,211.368,64.234,209.376,64.234z"/>
	<path d="M157.912,64.562l-14.595,2.403c-0.894,0.147-0.691,1.393,0.205,1.246l14.074-2.653
		C158.491,65.411,158.808,64.414,157.912,64.562z"/>
	<path d="M210.705,64.648l14.096,2.321c0.864,0.142,0.66,1.388-0.205,1.246l-13.591-2.573
		C210.141,65.499,209.839,64.505,210.705,64.648z"/>
	<g>
		<path style="fill:#B75E8A;" d="M171.813,110.048c8.31-0.355,16.62-0.709,24.93-1.064c-2.198,5.885-7.155,9.805-12.576,9.953
			C178.873,119.081,174.041,115.605,171.813,110.048z"/>
		<path style="fill:#DEDDDD;" d="M196.943,108.904c-0.197-0.475-25.124,0.545-25.332,1.127c0.32,0.543,1.184,2.121,1.746,2.984
			c0.188,0.289,0.433,0.437,0.692,0.429c6.709-0.204,13.418-0.408,20.126-0.612c0.222-0.007,0.44-0.128,0.608-0.366
			C195.463,111.504,196.522,109.705,196.943,108.904z"/>
	</g>
</g>
<g>
	<path style="fill:#E4A579;" d="M325.995,65.529c1.907-0.711,4.634,1.678,5.809,3.788c3.532,6.345-3.727,15.998-6.314,15.405
		C322.345,84.001,321.72,67.122,325.995,65.529z"/>
	<path style="fill:#E4A579;" d="M250.083,65.529c-1.907-0.711-4.634,1.678-5.809,3.788c-3.532,6.345,3.727,15.998,6.314,15.405
		C253.734,84.001,254.359,67.122,250.083,65.529z"/>
	<path style="fill:#603913;" d="M328.156,60.909c-0.702-3.475-0.237-7.036-0.018-10.56c0.222-3.526,0.172-7.181-1.467-10.408
		c-1.639-3.228-5.223-5.931-9.271-5.869c0.139-0.289,0.61-1.163,1.709-1.622c1.298-0.541,2.945-0.282,4.167,0.661
		c-1.137-1.156-2.759-2.567-4.958-3.881c-3.018-1.803-5.91-2.699-7.922-3.166c1.414-0.869,4.98-2.788,9.355-2.254
		c0.831,0.101,1.587,0.278,2.262,0.492c-0.911-0.802-2.328-1.887-4.293-2.808c-5.449-2.553-10.892-1.867-14.371-1.428
		c-6.965,0.878-12.103,3.576-15.026,5.446c1.566-3.29,5.117-5.803,9.132-6.461c0.842-0.213,1.683-0.426,2.525-0.64
		c-1.106-0.278-2.7-0.614-4.643-0.799c-4.944-0.469-8.513,0.371-14.739,1.955c0,0-9.951,2.571-16.115,6.041
		c-1.06,0.597-2.006,1.235-2.006,1.236c-0.424,0.289-0.816,0.572-1.182,0.844c-0.189-0.466-0.518-1.475-0.277-2.738
		c0.249-1.308,0.975-2.191,1.333-2.574c-0.772,0.193-2.084,0.625-3.305,1.624c-2.199,1.8-2.492,4.125-2.548,4.759
		c-0.283-0.284-0.694-0.775-0.923-1.472c-0.431-1.315,0.095-2.426,0.273-2.764c-0.846,0.499-6.052,3.681-6.692,9.359
		c-0.301,2.671,0.528,4.829,1.122,6.026c-1.107,2.863-2.476,7.162-3.016,12.473c-0.707,6.952,1.479,10.776,1.261,16.608
		C246.5,123,266.5,132,288.5,132c20,0,35.009-13.152,37-22.5c1.833-8.603,3.419-17.26,3.631-31.429
		C329.217,72.334,329.298,66.558,328.156,60.909z"/>
	<path style="fill:#E4A579;" d="M268.405,51.494c5.037-0.924,6.127-0.322,10.53-0.828c10.899-1.253,14.504-6.122,21.737-4.467
		c1.991,0.456,3.484,1.229,4.354,1.743c-0.678-0.147-1.458-0.228-2.311-0.159c-3.893,0.317-6.182,3.521-6.581,4.1
		c2.968-0.565,18.178-3.224,25.537,4.66c1.11,1.189,1.74,2.296,2.118,2.969c3.76,6.694,0.116,10.832-0.058,22.535
		c-0.101,6.824,1.084,9.016-1.082,12.773c-1.968,3.413-5.04,5.232-6.078,5.831c-5.98,3.451-12.293,2.659-18.728,2.279
		c-24.185-1.427-28.382,1.169-37.73-1.603c-4.29-1.272-5.979-5.89-6.642-9.936c-1.04-6.336-1.048-12.774-1.053-19.185
		c-0.002-2.522-0.005-5.046-0.007-7.57c-0.003-1.635,0.005-3.313,0.658-4.839c1.104-2.58,3.562-3.898,5.873-5.155
		C260.987,53.531,263.8,52.339,268.405,51.494z"/>
	<g style="opacity:0.6;">
		<g>
			<path style="fill:#8B5E3C;" d="M293.688,89.454c0,0,0.534,0.573,1.405,1.637c0.428,0.539,0.951,1.187,1.464,2.016
				c0.115,0.235,0.271,0.378,0.32,0.774c0.009,0.25,0.012,0.511-0.061,0.819c-0.127,0.58-0.413,1.11-0.776,1.609
				c-0.75,0.977-1.773,1.814-2.94,2.547c-1.199,0.74-2.6,1.237-4.115,1.451c-1.507,0.212-3.163,0.091-4.673-0.543
				c-0.378-0.156-0.748-0.332-1.096-0.553c-0.162-0.092-0.382-0.22-0.527-0.335c-0.158-0.118-0.314-0.219-0.474-0.352
				c-0.673-0.54-1.215-1.15-1.693-1.834c-0.923-1.381-1.468-2.961-1.639-4.581l0.011-0.631c0.018-0.206,0.073-0.448,0.115-0.668
				c0.117-0.427,0.299-0.81,0.517-1.169c0.453-0.701,1.031-1.233,1.544-1.744c0.518-0.506,0.977-1.01,1.221-1.559
				c0.261-0.568,0.193-1.112,0.048-1.794c-0.284-1.34-0.301-2.685-0.219-3.86c0.175-2.379,0.698-4.276,0.88-5.628
				c0.101-0.675,0.147-1.208,0.144-1.574c-0.013-0.364-0.04-0.56-0.04-0.56s0.046,0.19,0.094,0.557
				c0.035,0.367,0.055,0.912-0.004,1.599c-0.104,1.372-0.43,3.316-0.511,5.632c-0.026,1.167,0.039,2.391,0.368,3.674
				c0.071,0.313,0.176,0.678,0.194,1.077c0.018,0.393-0.04,0.809-0.193,1.184c-0.294,0.768-0.857,1.336-1.367,1.864
				c-0.519,0.527-1.036,1.031-1.397,1.611c-0.17,0.291-0.308,0.6-0.39,0.912c-0.021,0.156-0.063,0.288-0.079,0.463l-0.007,0.523
				c0.171,1.44,0.7,2.899,1.536,4.109c0.406,0.607,0.912,1.181,1.45,1.627c0.137,0.119,0.307,0.234,0.459,0.351
				c0.159,0.128,0.279,0.19,0.451,0.295c0.306,0.202,0.632,0.362,0.965,0.505c1.329,0.581,2.81,0.717,4.201,0.543
				c1.387-0.19,2.74-0.587,3.858-1.217c1.138-0.646,2.146-1.406,2.867-2.267c0.352-0.432,0.613-0.909,0.75-1.366
				c0.076-0.21,0.099-0.47,0.106-0.728c0.01-0.111-0.13-0.397-0.221-0.584c-0.433-0.829-0.91-1.517-1.295-2.079
				C294.156,90.085,293.688,89.454,293.688,89.454z"/>
		</g>
	</g>
	<g>
		<g>
			<circle style="fill:#726658;" cx="266.843" cy="68.237" r="3.336"/>
			<circle cx="266.843" cy="68.237" r="1.484"/>
		</g>
		<g>
			<circle style="fill:#726658;" cx="300.684" cy="68.237" r="3.336"/>
			<circle cx="300.684" cy="68.237" r="1.484"/>
		</g>
	</g>
	<g>
		<path style="opacity:0.27;fill:#A1DBE5;" d="M277.847,62.492H264.83c-2.81,0-5.109,2.299-5.109,5.109v5.272
			c0,2.81,2.299,5.109,5.109,5.109h13.017c2.81,0,5.109-2.299,5.109-5.109v-5.272C282.955,64.791,280.656,62.492,277.847,62.492z"/>
		<path style="opacity:0.27;fill:#A1DBE5;" d="M312.52,62.492h-14.681c-2.352,0-4.277,1.924-4.277,4.277v6.936
			c0,2.352,1.924,4.277,4.277,4.277h14.681c2.352,0,4.277-1.924,4.277-4.277v-6.936C316.796,64.416,314.872,62.492,312.52,62.492z"
			/>
	</g>
	<path d="M313.679,62.382h-18.313l-2.468,0.668c-0.221,0.06-0.449,0.09-0.677,0.09h-7.874c-0.183,0-0.366-0.019-0.546-0.058
		l-3.251-0.7h-17.207c-1.992,0-3.622,1.63-3.622,3.622l0,0c0,0.197,0.116,0.366,0.281,0.448c0.692-2.004,2.596-3.456,4.827-3.456
		h13.017c1.715,0,2.505-0.517,4.345,1.901c0.666,0.875,0.855-1.17,1.879-1.17h8.495c1.075,0,0.953,2.164,1.634,1.06
		c0.788-1.279,2.105-1.791,3.639-1.791h14.681c2.023,0,3.726,1.425,4.164,3.32c0.069-0.086,0.113-0.194,0.113-0.312l0,0
		C316.796,64.012,315.671,62.382,313.679,62.382z"/>
	<path d="M262.215,62.71l-14.595,2.403c-0.894,0.147-0.691,1.393,0.205,1.246l14.074-2.653
		C262.794,63.559,263.111,62.562,262.215,62.71z"/>
	<path d="M315.008,62.796l14.096,2.321c0.864,0.142,0.66,1.388-0.205,1.246l-13.591-2.573
		C314.444,63.647,314.142,62.653,315.008,62.796z"/>
	<path style="fill:#B75E8A;" d="M279.488,109.537c6.019-0.208,12.037-0.417,18.056-0.625c-1.653,1.119-5.282,1.924-9.208,2.045
		C284.503,111.074,281.042,110.519,279.488,109.537z"/>
	
		<radialGradient id="SVGID_1_" cx="309.5866" cy="87.5548" r="14.471" gradientTransform="matrix(1 0 0 0.6 0 35.0219)" gradientUnits="userSpaceOnUse">
		<stop  offset="0" style="stop-color:#EF4136;stop-opacity:0.6"/>
		<stop  offset="0.1396" style="stop-color:#EE4839;stop-opacity:0.5163"/>
		<stop  offset="0.3381" style="stop-color:#EC5A42;stop-opacity:0.3971"/>
		<stop  offset="0.5719" style="stop-color:#EA7351;stop-opacity:0.2568"/>
		<stop  offset="0.8306" style="stop-color:#E79067;stop-opacity:0.1016"/>
		<stop  offset="1" style="stop-color:#E4A579;stop-opacity:0"/>
	</radialGradient>
	<ellipse style="fill:url(#SVGID_1_);" cx="309.587" cy="87.555" rx="18.379" ry="9.001"/>
	
		<radialGradient id="SVGID_2_" cx="265.6325" cy="87.0395" r="14.471" gradientTransform="matrix(1 0 0 0.6 0 34.8158)" gradientUnits="userSpaceOnUse">
		<stop  offset="0" style="stop-color:#EF4136;stop-opacity:0.6"/>
		<stop  offset="0.1396" style="stop-color:#EE4839;stop-opacity:0.5163"/>
		<stop  offset="0.3381" style="stop-color:#EC5A42;stop-opacity:0.3971"/>
		<stop  offset="0.5719" style="stop-color:#EA7351;stop-opacity:0.2568"/>
		<stop  offset="0.8306" style="stop-color:#E79067;stop-opacity:0.1016"/>
		<stop  offset="1" style="stop-color:#E4A579;stop-opacity:0"/>
	</radialGradient>
	<ellipse style="fill:url(#SVGID_2_);" cx="265.633" cy="87.04" rx="18.379" ry="9.001"/>
</g>
<g>
	<path style="fill:#E4A579;" d="M428.948,64.045c1.907-0.711,4.634,1.678,5.809,3.788c3.532,6.345-3.727,15.998-6.314,15.405
		C425.297,82.517,424.673,65.638,428.948,64.045z"/>
	<path style="fill:#E4A579;" d="M353.036,64.045c-1.907-0.711-4.634,1.678-5.809,3.788c-3.532,6.345,3.727,15.998,6.314,15.405
		C356.687,82.517,357.311,65.638,353.036,64.045z"/>
	<path style="fill:#603913;" d="M431.156,58.909c-0.702-3.475-0.237-7.036-0.018-10.56c0.222-3.526,0.172-7.181-1.467-10.408
		c-1.639-3.228-5.223-5.931-9.271-5.869c0.139-0.289,0.61-1.163,1.709-1.622c1.298-0.541,2.945-0.282,4.167,0.661
		c-1.137-1.156-2.759-2.567-4.958-3.881c-3.018-1.803-5.91-2.699-7.922-3.166c1.414-0.869,4.98-2.788,9.355-2.254
		c0.831,0.101,1.587,0.278,2.262,0.492c-0.911-0.802-2.328-1.887-4.293-2.808c-5.449-2.553-10.892-1.867-14.371-1.428
		c-6.965,0.878-12.103,3.576-15.026,5.446c1.566-3.29,5.117-5.803,9.132-6.461c0.842-0.213,1.683-0.426,2.525-0.64
		c-1.106-0.278-2.7-0.614-4.643-0.799c-4.944-0.469-8.513,0.371-14.739,1.955c0,0-9.951,2.571-16.115,6.041
		c-1.06,0.597-2.006,1.235-2.006,1.236c-0.424,0.289-0.816,0.572-1.182,0.844c-0.189-0.466-0.518-1.475-0.277-2.738
		c0.249-1.308,0.975-2.191,1.333-2.574c-0.772,0.193-2.084,0.625-3.305,1.624c-2.199,1.8-2.492,4.125-2.548,4.759
		c-0.283-0.284-0.694-0.775-0.923-1.472c-0.431-1.315,0.095-2.426,0.273-2.764c-0.846,0.499-6.052,3.681-6.692,9.359
		c-0.301,2.671,0.528,4.829,1.122,6.026c-1.107,2.863-2.476,7.162-3.016,12.473c-0.707,6.952,1.479,10.776,1.261,16.608
		C349.5,121,369.5,130,391.5,130c20,0,35.009-13.152,37-22.5c1.833-8.603,3.419-17.26,3.631-31.429
		C432.217,70.334,432.298,64.558,431.156,58.909z"/>
	<path style="fill:#E4A579;" d="M371.357,50.01c5.037-0.924,6.127-0.322,10.53-0.828c10.899-1.253,14.504-6.122,21.737-4.467
		c1.991,0.456,3.484,1.229,4.354,1.743c-0.678-0.147-1.458-0.228-2.311-0.159c-3.893,0.317-6.182,3.521-6.581,4.1
		c2.968-0.565,18.178-3.224,25.537,4.66c1.11,1.189,1.74,2.296,2.118,2.969c3.76,6.694,0.116,10.832-0.058,22.535
		c-0.101,6.824,1.084,9.016-1.082,12.773c-1.968,3.413-5.04,5.232-6.078,5.831c-5.98,3.451-12.293,2.659-18.728,2.279
		c-24.185-1.427-28.382,1.169-37.729-1.603c-4.29-1.272-5.979-5.89-6.642-9.936c-1.04-6.336-1.048-12.774-1.053-19.185
		c-0.002-2.522-0.005-5.046-0.007-7.57c-0.003-1.635,0.005-3.313,0.658-4.839c1.104-2.58,3.562-3.898,5.873-5.155
		C363.939,52.046,366.752,50.855,371.357,50.01z"/>
	<g style="opacity:0.6;">
		<g>
			<path style="fill:#8B5E3C;" d="M396.641,87.97c0,0,0.534,0.573,1.405,1.637c0.428,0.539,0.951,1.187,1.464,2.016
				c0.115,0.235,0.271,0.378,0.32,0.774c0.009,0.25,0.012,0.511-0.061,0.819c-0.127,0.58-0.413,1.11-0.776,1.609
				c-0.75,0.977-1.773,1.814-2.94,2.547c-1.199,0.74-2.6,1.237-4.115,1.451c-1.507,0.212-3.163,0.091-4.673-0.543
				c-0.378-0.156-0.748-0.332-1.096-0.553c-0.162-0.092-0.382-0.22-0.527-0.335c-0.158-0.118-0.314-0.219-0.474-0.352
				c-0.673-0.54-1.215-1.15-1.693-1.834c-0.923-1.381-1.468-2.961-1.639-4.581l0.011-0.631c0.018-0.206,0.073-0.448,0.115-0.668
				c0.117-0.427,0.298-0.81,0.517-1.169c0.453-0.701,1.031-1.233,1.544-1.744c0.518-0.506,0.977-1.01,1.221-1.559
				c0.261-0.568,0.193-1.112,0.048-1.794c-0.284-1.34-0.301-2.685-0.219-3.86c0.175-2.379,0.698-4.276,0.88-5.628
				c0.1-0.675,0.147-1.208,0.144-1.574c-0.013-0.364-0.04-0.56-0.04-0.56s0.046,0.19,0.094,0.557
				c0.035,0.367,0.055,0.912-0.004,1.599c-0.104,1.372-0.43,3.316-0.511,5.632c-0.026,1.167,0.039,2.391,0.368,3.674
				c0.071,0.313,0.176,0.678,0.194,1.077c0.018,0.393-0.04,0.809-0.193,1.184c-0.294,0.768-0.857,1.336-1.367,1.864
				c-0.519,0.527-1.036,1.031-1.397,1.611c-0.17,0.291-0.308,0.6-0.39,0.912c-0.021,0.156-0.063,0.288-0.079,0.463l-0.007,0.523
				c0.171,1.44,0.7,2.899,1.536,4.109c0.406,0.607,0.912,1.181,1.45,1.627c0.137,0.119,0.307,0.234,0.459,0.351
				c0.159,0.128,0.279,0.19,0.451,0.295c0.306,0.202,0.632,0.362,0.965,0.505c1.329,0.581,2.81,0.717,4.201,0.543
				c1.387-0.19,2.74-0.587,3.858-1.217c1.138-0.646,2.146-1.406,2.867-2.267c0.352-0.432,0.613-0.909,0.75-1.366
				c0.076-0.21,0.099-0.47,0.106-0.728c0.01-0.111-0.13-0.397-0.221-0.584c-0.433-0.829-0.91-1.517-1.295-2.079
				C397.109,88.601,396.641,87.97,396.641,87.97z"/>
		</g>
	</g>
	<g>
		<circle style="fill:#726658;" cx="374.796" cy="68.753" r="3.336"/>
		<circle cx="374.796" cy="68.753" r="1.484"/>
	</g>
	<g>
		<circle style="fill:#726658;" cx="408.637" cy="68.753" r="3.336"/>
		<circle cx="408.637" cy="68.753" r="1.484"/>
	</g>
	<g>
		<path style="opacity:0.27;fill:#A1DBE5;" d="M380.799,61.008h-13.017c-2.81,0-5.109,2.299-5.109,5.109v5.272
			c0,2.81,2.299,5.109,5.109,5.109h13.017c2.81,0,5.109-2.299,5.109-5.109v-5.272C385.908,63.307,383.609,61.008,380.799,61.008z"/>
		<path style="opacity:0.27;fill:#A1DBE5;" d="M415.472,61.008h-14.681c-2.352,0-4.277,1.924-4.277,4.277v6.936
			c0,2.352,1.924,4.277,4.277,4.277h14.681c2.352,0,4.277-1.924,4.277-4.277v-6.936C419.749,62.932,417.824,61.008,415.472,61.008z"
			/>
	</g>
	<path d="M416.632,60.898h-18.313l-2.468,0.668c-0.221,0.06-0.449,0.09-0.677,0.09h-7.874c-0.183,0-0.366-0.019-0.546-0.058
		l-3.251-0.7h-17.207c-1.992,0-3.622,1.63-3.622,3.622l0,0c0,0.197,0.116,0.366,0.281,0.448c0.692-2.004,2.596-3.456,4.827-3.456
		h13.017c1.715,0,2.505-0.517,4.345,1.901c0.666,0.875,0.855-1.17,1.879-1.17h8.495c1.075,0,0.953,2.164,1.634,1.06
		c0.788-1.279,2.105-1.791,3.639-1.791h14.681c2.023,0,3.726,1.425,4.164,3.32c0.069-0.086,0.113-0.194,0.113-0.312l0,0
		C419.749,62.528,418.624,60.898,416.632,60.898z"/>
	<path d="M365.168,61.226l-14.595,2.403c-0.894,0.147-0.691,1.393,0.205,1.246l14.074-2.653
		C365.746,62.074,366.064,61.078,365.168,61.226z"/>
	<path d="M417.96,61.311l14.096,2.321c0.864,0.142,0.66,1.388-0.205,1.246l-13.591-2.573
		C417.396,62.163,417.095,61.169,417.96,61.311z"/>
	<path style="fill:#B75E8A;" d="M386.651,107.748c0.124-0.044,2.598-0.882,6.504-0.472c3.347,0.351,5.035,1.334,5.239,1.457
		c-0.204,1.025-2.987,1.668-6.173,1.379C389.73,109.887,387.551,108.963,386.651,107.748z"/>
</g>
<g>
	<g>
		<path style="fill:#E4A579;" d="M115.106,190.879c1.907-0.711,4.634,1.678,5.809,3.788c3.532,6.345-3.727,15.998-6.314,15.405
			C111.455,209.351,110.83,192.472,115.106,190.879z"/>
		<path style="fill:#E4A579;" d="M39.194,190.879c-1.907-0.711-4.634,1.678-5.809,3.788c-3.532,6.345,3.727,15.998,6.314,15.405
			C42.844,209.351,43.469,192.472,39.194,190.879z"/>
	</g>
	<path style="fill:#603913;" d="M117.656,188.409c-0.702-3.475-0.237-7.036-0.018-10.56c0.222-3.526,0.172-7.181-1.467-10.408
		c-1.639-3.228-5.223-5.931-9.271-5.869c0.139-0.289,0.61-1.163,1.709-1.622c1.298-0.541,2.945-0.282,4.167,0.661
		c-1.137-1.156-2.759-2.567-4.958-3.881c-3.018-1.803-5.91-2.699-7.922-3.166c1.414-0.869,4.98-2.788,9.355-2.254
		c0.831,0.101,1.587,0.278,2.262,0.492c-0.911-0.802-2.328-1.887-4.293-2.808c-5.449-2.553-10.892-1.867-14.371-1.428
		c-6.965,0.878-12.103,3.576-15.026,5.446c1.566-3.29,5.117-5.803,9.132-6.461c0.842-0.213,1.683-0.426,2.525-0.64
		c-1.106-0.278-2.7-0.614-4.643-0.799c-4.944-0.469-8.513,0.371-14.739,1.955c0,0-9.951,2.571-16.115,6.041
		c-1.06,0.597-2.006,1.236-2.006,1.236c-0.424,0.289-0.816,0.572-1.182,0.844c-0.189-0.466-0.518-1.475-0.277-2.738
		c0.249-1.308,0.975-2.191,1.333-2.574c-0.772,0.193-2.084,0.625-3.305,1.624c-2.199,1.8-2.492,4.125-2.548,4.759
		c-0.283-0.284-0.694-0.775-0.923-1.472c-0.431-1.315,0.095-2.426,0.273-2.764c-0.846,0.499-6.052,3.681-6.692,9.359
		c-0.301,2.671,0.528,4.829,1.122,6.026c-1.107,2.863-2.476,7.162-3.016,12.473c-0.707,6.952,1.479,10.776,1.261,16.608
		C36,250.5,56,259.5,78,259.5c20,0,35.009-13.152,37-22.5c1.833-8.603,3.419-17.26,3.631-31.429
		C118.717,199.834,118.798,194.058,117.656,188.409z"/>
	<path style="fill:#E4A579;" d="M57.515,176.844c5.037-0.924,6.127-0.322,10.53-0.828c10.899-1.253,14.504-6.122,21.737-4.467
		c1.991,0.456,3.484,1.229,4.354,1.743c-0.678-0.147-1.458-0.228-2.311-0.159c-3.893,0.317-6.182,3.521-6.581,4.1
		c2.968-0.565,18.178-3.224,25.537,4.66c1.11,1.189,1.74,2.296,2.118,2.969c3.76,6.694,0.116,10.832-0.058,22.535
		c-0.101,6.824,1.084,9.016-1.082,12.773c-1.968,3.413-5.04,5.232-6.078,5.831c-5.98,3.451-12.293,2.659-18.728,2.279
		c-24.185-1.427-28.382,1.169-37.73-1.603c-4.29-1.272-5.979-5.89-6.642-9.936c-1.04-6.336-1.048-12.774-1.053-19.185
		c-0.002-2.522-0.005-5.046-0.007-7.57c-0.003-1.635,0.005-3.313,0.658-4.839c1.104-2.58,3.562-3.898,5.873-5.155
		C50.097,178.881,52.91,177.689,57.515,176.844z"/>
	<g style="opacity:0.6;">
		<g>
			<path style="fill:#8B5E3C;" d="M82.799,214.805c0,0,0.534,0.573,1.405,1.637c0.428,0.539,0.951,1.187,1.464,2.016
				c0.115,0.235,0.271,0.378,0.32,0.774c0.009,0.25,0.012,0.511-0.061,0.819c-0.127,0.58-0.413,1.11-0.776,1.609
				c-0.75,0.977-1.773,1.814-2.94,2.547c-1.199,0.74-2.6,1.237-4.115,1.451c-1.507,0.212-3.163,0.091-4.673-0.543
				c-0.378-0.156-0.748-0.332-1.096-0.553c-0.162-0.092-0.382-0.22-0.527-0.335c-0.158-0.118-0.314-0.219-0.474-0.352
				c-0.673-0.54-1.215-1.15-1.693-1.834c-0.923-1.381-1.468-2.961-1.639-4.581l0.011-0.631c0.018-0.206,0.073-0.448,0.115-0.668
				c0.117-0.427,0.299-0.81,0.517-1.169c0.453-0.701,1.031-1.233,1.544-1.744c0.518-0.506,0.977-1.01,1.221-1.559
				c0.261-0.568,0.193-1.112,0.048-1.794c-0.284-1.34-0.301-2.685-0.219-3.86c0.175-2.379,0.698-4.276,0.88-5.628
				c0.101-0.675,0.147-1.208,0.144-1.574c-0.013-0.364-0.04-0.56-0.04-0.56s0.046,0.19,0.094,0.557
				c0.035,0.367,0.055,0.912-0.004,1.599c-0.104,1.372-0.43,3.316-0.511,5.632c-0.026,1.167,0.039,2.391,0.368,3.674
				c0.071,0.313,0.176,0.678,0.194,1.077c0.018,0.393-0.04,0.809-0.193,1.184c-0.294,0.768-0.857,1.336-1.367,1.864
				c-0.519,0.527-1.036,1.031-1.397,1.611c-0.17,0.291-0.308,0.6-0.39,0.912c-0.021,0.156-0.063,0.288-0.079,0.463l-0.007,0.523
				c0.171,1.44,0.7,2.899,1.536,4.109c0.406,0.607,0.912,1.181,1.45,1.627c0.137,0.119,0.307,0.234,0.459,0.351
				c0.159,0.128,0.279,0.19,0.451,0.295c0.306,0.202,0.632,0.362,0.965,0.505c1.329,0.581,2.81,0.717,4.201,0.543
				c1.387-0.19,2.74-0.587,3.858-1.217c1.138-0.646,2.146-1.406,2.867-2.267c0.352-0.432,0.613-0.909,0.75-1.366
				c0.076-0.21,0.099-0.47,0.106-0.728c0.01-0.111-0.13-0.397-0.221-0.584c-0.433-0.829-0.91-1.517-1.295-2.079
				C83.267,215.436,82.799,214.805,82.799,214.805z"/>
		</g>
	</g>
	<g>
		<path style="opacity:0.27;fill:#A1DBE5;" d="M66.957,187.842H53.94c-2.81,0-5.109,2.299-5.109,5.109v5.272
			c0,2.81,2.299,5.109,5.109,5.109h13.017c2.81,0,5.109-2.299,5.109-5.109v-5.272C72.066,190.141,69.767,187.842,66.957,187.842z"/>
		<path style="opacity:0.27;fill:#A1DBE5;" d="M101.63,187.842H86.949c-2.352,0-4.277,1.924-4.277,4.277v6.936
			c0,2.352,1.924,4.277,4.277,4.277h14.681c2.352,0,4.277-1.924,4.277-4.277v-6.936C105.907,189.767,103.982,187.842,101.63,187.842
			z"/>
	</g>
	<path d="M102.789,187.732H84.476l-2.468,0.668c-0.221,0.06-0.449,0.09-0.677,0.09h-7.874c-0.183,0-0.366-0.019-0.546-0.058
		l-3.251-0.7H52.454c-1.992,0-3.622,1.63-3.622,3.622l0,0c0,0.197,0.116,0.366,0.281,0.448c0.692-2.004,2.596-3.456,4.827-3.456
		h13.017c1.715,0,2.505-0.517,4.345,1.901c0.666,0.875,0.855-1.17,1.879-1.17h8.495c1.075,0,0.953,2.164,1.634,1.06
		c0.788-1.279,2.105-1.791,3.639-1.791h14.681c2.023,0,3.726,1.425,4.164,3.32c0.069-0.086,0.113-0.194,0.113-0.312l0,0
		C105.907,189.362,104.782,187.732,102.789,187.732z"/>
	<path d="M51.326,188.06l-14.595,2.403c-0.894,0.147-0.691,1.393,0.205,1.246l14.074-2.653
		C51.904,188.909,52.221,187.912,51.326,188.06z"/>
	<path d="M104.118,188.146l14.096,2.321c0.864,0.142,0.66,1.388-0.205,1.246l-13.591-2.573
		C103.554,188.997,103.253,188.003,104.118,188.146z"/>
	<g>
		<path style="fill:#B75E8A;" d="M65.226,233.546c8.31-0.355,16.62-0.709,24.93-1.064c-2.198,5.885-7.155,9.805-12.576,9.953
			C72.286,242.579,67.454,239.103,65.226,233.546z"/>
		<path style="fill:#DEDDDD;" d="M90.356,232.402c-0.197-0.475-25.124,0.545-25.332,1.127c0.32,0.543,1.184,2.121,1.746,2.984
			c0.188,0.289,0.433,0.437,0.692,0.429c6.709-0.204,13.418-0.408,20.126-0.612c0.222-0.007,0.44-0.128,0.608-0.366
			C88.876,235.002,89.935,233.203,90.356,232.402z"/>
	</g>
	<path style="opacity:0.6;fill:none;stroke:#8B5E3C;stroke-miterlimit:10;" d="M52.86,196c1.402-0.605,3.314-1.242,5.64-1.5
		c4.534-0.503,8.16,0.708,10.041,1.5"/>
	<path style="opacity:0.6;fill:none;stroke:#8B5E3C;stroke-miterlimit:10;" d="M86.541,196.809c1.402-0.605,3.314-1.242,5.64-1.5
		c4.534-0.503,8.16,0.708,10.041,1.5"/>
</g>
<g>
	<g>
		<path style="fill:#E4A579;" d="M538.198,62.045c1.907-0.711,4.634,1.678,5.809,3.788c3.532,6.345-3.727,15.998-6.314,15.405
			C534.547,80.517,533.923,63.638,538.198,62.045z"/>
		<path style="fill:#E4A579;" d="M462.286,62.045c-1.907-0.711-4.634,1.678-5.809,3.788c-3.532,6.345,3.727,15.998,6.314,15.405
			C465.936,80.517,466.561,63.638,462.286,62.045z"/>
	</g>
	<path style="fill:#603913;" d="M540.156,56.909c-0.702-3.475-0.237-7.036-0.018-10.56c0.222-3.526,0.172-7.181-1.467-10.408
		c-1.639-3.228-5.223-5.931-9.271-5.869c0.139-0.289,0.61-1.163,1.709-1.622c1.298-0.541,2.945-0.282,4.167,0.661
		c-1.137-1.156-2.759-2.567-4.958-3.881c-3.018-1.803-5.91-2.699-7.922-3.166c1.414-0.869,4.98-2.788,9.355-2.254
		c0.831,0.101,1.587,0.278,2.262,0.492c-0.911-0.802-2.328-1.887-4.293-2.808c-5.449-2.553-10.892-1.867-14.371-1.428
		c-6.965,0.878-12.103,3.576-15.026,5.446c1.566-3.29,5.117-5.803,9.132-6.461c0.842-0.213,1.683-0.426,2.525-0.64
		c-1.106-0.278-2.7-0.614-4.643-0.799c-4.944-0.469-8.513,0.371-14.739,1.955c0,0-9.951,2.571-16.115,6.041
		c-1.06,0.597-2.006,1.235-2.006,1.236c-0.424,0.289-0.816,0.572-1.182,0.844c-0.189-0.466-0.518-1.475-0.277-2.738
		c0.249-1.308,0.975-2.191,1.333-2.574c-0.772,0.193-2.084,0.625-3.305,1.624c-2.199,1.8-2.492,4.125-2.548,4.759
		c-0.283-0.284-0.694-0.775-0.923-1.472c-0.431-1.315,0.095-2.426,0.273-2.764c-0.846,0.499-6.052,3.681-6.692,9.359
		c-0.301,2.671,0.528,4.829,1.122,6.026c-1.107,2.863-2.476,7.162-3.016,12.473c-0.707,6.952,1.479,10.776,1.261,16.608
		C458.5,119,478.5,128,500.5,128c20,0,35.009-13.152,37-22.5c1.833-8.603,3.419-17.26,3.631-31.429
		C541.217,68.334,541.298,62.558,540.156,56.909z"/>
	<path style="fill:#E4A579;" d="M480.607,50.01c5.037-0.924,6.127-0.322,10.53-0.828c10.899-1.253,14.504-6.122,21.737-4.467
		c1.991,0.456,3.484,1.229,4.354,1.743c-0.678-0.147-1.458-0.228-2.311-0.159c-3.893,0.317-6.182,3.521-6.581,4.1
		c2.968-0.565,18.178-3.224,25.537,4.66c1.11,1.189,1.74,2.296,2.118,2.969c3.76,6.694,0.116,10.832-0.058,22.535
		c-0.101,6.824,1.084,9.016-1.082,12.773c-1.968,3.413-5.04,5.232-6.078,5.831c-5.98,3.451-12.293,2.659-18.728,2.279
		c-24.185-1.427-28.382,1.169-37.73-1.603c-4.29-1.272-5.979-5.89-6.642-9.936c-1.04-6.336-1.048-12.774-1.053-19.185
		c-0.002-2.522-0.005-5.046-0.007-7.57c-0.003-1.635,0.005-3.313,0.658-4.839c1.104-2.58,3.562-3.898,5.873-5.155
		C473.189,52.046,476.002,50.855,480.607,50.01z"/>
	<g style="opacity:0.6;">
		<g>
			<path style="fill:#8B5E3C;" d="M505.891,87.97c0,0,0.534,0.573,1.405,1.637c0.428,0.539,0.951,1.187,1.464,2.016
				c0.115,0.235,0.271,0.378,0.32,0.774c0.009,0.25,0.012,0.511-0.061,0.819c-0.127,0.58-0.413,1.11-0.776,1.609
				c-0.75,0.977-1.773,1.814-2.94,2.547c-1.199,0.74-2.6,1.237-4.115,1.451c-1.507,0.212-3.163,0.091-4.673-0.543
				c-0.378-0.156-0.748-0.332-1.096-0.553c-0.162-0.092-0.382-0.22-0.527-0.335c-0.158-0.118-0.314-0.219-0.474-0.352
				c-0.673-0.54-1.215-1.15-1.693-1.834c-0.923-1.381-1.468-2.961-1.639-4.581l0.011-0.631c0.018-0.206,0.073-0.448,0.115-0.668
				c0.117-0.427,0.299-0.81,0.517-1.169c0.453-0.701,1.031-1.233,1.544-1.744c0.518-0.506,0.977-1.01,1.221-1.559
				c0.261-0.568,0.193-1.112,0.048-1.794c-0.284-1.34-0.301-2.685-0.219-3.86c0.175-2.379,0.698-4.276,0.88-5.628
				c0.101-0.675,0.147-1.208,0.144-1.574c-0.013-0.364-0.04-0.56-0.04-0.56s0.046,0.19,0.094,0.557
				c0.035,0.367,0.055,0.912-0.004,1.599c-0.104,1.372-0.43,3.316-0.511,5.632c-0.026,1.167,0.039,2.391,0.368,3.674
				c0.071,0.313,0.176,0.678,0.194,1.077c0.018,0.393-0.04,0.809-0.193,1.184c-0.294,0.768-0.857,1.336-1.367,1.864
				c-0.519,0.527-1.036,1.031-1.397,1.611c-0.17,0.291-0.308,0.6-0.39,0.912c-0.021,0.156-0.063,0.288-0.079,0.463l-0.007,0.523
				c0.171,1.44,0.7,2.899,1.536,4.109c0.406,0.607,0.912,1.181,1.45,1.627c0.137,0.119,0.307,0.234,0.459,0.351
				c0.159,0.128,0.279,0.19,0.451,0.295c0.306,0.202,0.632,0.362,0.965,0.505c1.329,0.581,2.81,0.717,4.201,0.543
				c1.387-0.19,2.74-0.587,3.858-1.217c1.138-0.646,2.146-1.406,2.867-2.267c0.352-0.432,0.613-0.909,0.75-1.366
				c0.076-0.21,0.099-0.47,0.106-0.728c0.01-0.111-0.13-0.397-0.221-0.584c-0.433-0.829-0.91-1.517-1.295-2.079
				C506.359,88.601,505.891,87.97,505.891,87.97z"/>
		</g>
	</g>
	<g>
		<circle style="fill:#726658;" cx="484.046" cy="68.753" r="3.336"/>
		<circle cx="484.046" cy="68.753" r="1.484"/>
	</g>
	<g>
		<circle style="fill:#726658;" cx="517.887" cy="68.753" r="3.336"/>
		<circle cx="517.887" cy="68.753" r="1.484"/>
	</g>
	<g>
		<path style="opacity:0.27;fill:#A1DBE5;" d="M490.049,59.008h-13.017c-2.81,0-5.109,2.299-5.109,5.109v5.272
			c0,2.81,2.299,5.109,5.109,5.109h13.017c2.81,0,5.109-2.299,5.109-5.109v-5.272C495.158,61.307,492.859,59.008,490.049,59.008z"/>
		<path style="opacity:0.27;fill:#A1DBE5;" d="M524.722,59.008h-14.681c-2.352,0-4.277,1.924-4.277,4.277v6.936
			c0,2.352,1.924,4.277,4.277,4.277h14.681c2.352,0,4.277-1.924,4.277-4.277v-6.936C528.999,60.932,527.074,59.008,524.722,59.008z"
			/>
	</g>
	<path d="M525.881,58.898h-18.313l-2.468,0.668c-0.221,0.06-0.449,0.09-0.677,0.09h-7.874c-0.183,0-0.366-0.019-0.546-0.058
		l-3.251-0.7h-17.207c-1.992,0-3.622,1.63-3.622,3.622v0c0,0.197,0.116,0.366,0.281,0.448c0.692-2.004,2.596-3.456,4.827-3.456
		h13.017c1.715,0,2.505-0.517,4.345,1.901c0.666,0.875,0.855-1.17,1.879-1.17h8.495c1.075,0,0.953,2.164,1.634,1.06
		c0.788-1.279,2.105-1.791,3.639-1.791h14.681c2.023,0,3.726,1.425,4.164,3.32c0.069-0.086,0.113-0.194,0.113-0.312v0
		C528.999,60.528,527.874,58.898,525.881,58.898z"/>
	<path d="M474.418,59.226l-14.595,2.403c-0.894,0.147-0.691,1.393,0.205,1.246l14.074-2.653
		C474.996,60.074,475.314,59.078,474.418,59.226z"/>
	<path d="M527.21,59.311l14.096,2.321c0.864,0.142,0.66,1.388-0.205,1.246l-13.591-2.573
		C526.646,60.163,526.345,59.169,527.21,59.311z"/>
	<path style="fill:#B75E8A;" d="M513.383,109.335c-8.308,0.263-16.616,0.526-24.924,0.789c2.253-2.264,7.243-3.826,12.663-3.966
		C506.413,106.022,511.208,107.264,513.383,109.335z"/>
	<path style="fill:#65A6DB;" d="M508.542,82.396c0.189,0.401,0.656,0.954,1.25,0.938c0.709-0.019,1.125-0.835,1.176-0.938
		c0.63-1.278-1.176-3.312-1.176-3.312S507.931,81.102,508.542,82.396z"/>
</g>
<g>
	<g>
		<path style="fill:#E4A579;" d="M221.263,190.167c1.907-0.711,4.634,1.678,5.809,3.788c3.532,6.345-3.727,15.998-6.314,15.405
			C217.612,208.639,216.987,191.76,221.263,190.167z"/>
		<path style="fill:#E4A579;" d="M145.351,190.167c-1.907-0.711-4.634,1.678-5.809,3.788c-3.532,6.345,3.727,15.998,6.314,15.405
			C149.001,208.639,149.626,191.76,145.351,190.167z"/>
	</g>
	<path style="fill:#603913;" d="M223.156,187.409c-0.702-3.475-0.237-7.036-0.018-10.56c0.222-3.526,0.172-7.181-1.467-10.408
		c-1.639-3.228-5.223-5.931-9.271-5.869c0.139-0.289,0.61-1.163,1.709-1.622c1.298-0.541,2.945-0.282,4.167,0.661
		c-1.137-1.156-2.759-2.567-4.958-3.881c-3.018-1.803-5.91-2.699-7.922-3.166c1.414-0.869,4.98-2.788,9.355-2.254
		c0.831,0.101,1.587,0.278,2.262,0.492c-0.911-0.802-2.328-1.887-4.293-2.808c-5.449-2.553-10.892-1.867-14.371-1.428
		c-6.965,0.878-12.103,3.576-15.026,5.446c1.566-3.29,5.117-5.803,9.132-6.461c0.842-0.213,1.683-0.426,2.525-0.64
		c-1.106-0.278-2.7-0.614-4.643-0.799c-4.944-0.469-8.513,0.371-14.739,1.955c0,0-9.951,2.571-16.115,6.041
		c-1.06,0.597-2.006,1.236-2.006,1.236c-0.424,0.289-0.816,0.572-1.182,0.844c-0.189-0.466-0.518-1.475-0.277-2.738
		c0.249-1.308,0.975-2.191,1.333-2.574c-0.772,0.193-2.084,0.625-3.305,1.624c-2.199,1.8-2.492,4.125-2.548,4.759
		c-0.283-0.284-0.694-0.775-0.923-1.472c-0.431-1.315,0.095-2.426,0.273-2.764c-0.846,0.499-6.052,3.681-6.692,9.359
		c-0.301,2.671,0.528,4.829,1.122,6.026c-1.107,2.863-2.476,7.162-3.016,12.473c-0.707,6.952,1.479,10.776,1.261,16.608
		C141.5,249.5,161.5,258.5,183.5,258.5c20,0,35.009-13.152,37-22.5c1.833-8.603,3.419-17.26,3.631-31.429
		C224.217,198.834,224.298,193.058,223.156,187.409z"/>
	<path style="fill:#E4A579;" d="M163.672,179.132c5.037-0.924,6.127-0.322,10.53-0.828c10.899-1.253,14.504-6.122,21.737-4.467
		c1.991,0.456,3.484,1.229,4.354,1.743c-0.678-0.147-1.458-0.228-2.311-0.159c-3.893,0.317-6.182,3.521-6.581,4.1
		c2.968-0.565,18.178-3.224,25.537,4.66c1.11,1.189,1.74,2.296,2.118,2.969c3.76,6.694,0.116,10.832-0.058,22.535
		c-0.101,6.824,1.084,9.016-1.082,12.773c-1.968,3.413-5.04,5.232-6.078,5.831c-5.98,3.451-12.293,2.658-18.728,2.279
		c-24.185-1.427-28.382,1.169-37.729-1.603c-4.29-1.272-5.979-5.89-6.642-9.936c-1.04-6.336-1.048-12.774-1.053-19.185
		c-0.002-2.522-0.005-5.046-0.007-7.57c-0.003-1.635,0.005-3.313,0.658-4.839c1.104-2.58,3.562-3.898,5.873-5.155
		C156.254,181.168,159.067,179.977,163.672,179.132z"/>
	<g style="opacity:0.6;">
		<g>
			<path style="fill:#8B5E3C;" d="M188.956,217.092c0,0,0.534,0.573,1.405,1.637c0.428,0.539,0.951,1.187,1.464,2.016
				c0.115,0.235,0.271,0.378,0.32,0.774c0.009,0.25,0.012,0.511-0.061,0.819c-0.127,0.58-0.413,1.11-0.776,1.609
				c-0.75,0.977-1.773,1.814-2.94,2.547c-1.199,0.74-2.6,1.237-4.115,1.451c-1.507,0.212-3.163,0.091-4.673-0.543
				c-0.378-0.156-0.748-0.332-1.096-0.553c-0.162-0.092-0.382-0.22-0.527-0.335c-0.158-0.118-0.314-0.219-0.474-0.352
				c-0.673-0.54-1.215-1.15-1.693-1.833c-0.923-1.381-1.468-2.961-1.639-4.581l0.011-0.631c0.018-0.206,0.073-0.448,0.115-0.668
				c0.117-0.427,0.299-0.81,0.517-1.169c0.453-0.701,1.031-1.233,1.544-1.744c0.518-0.506,0.977-1.01,1.221-1.559
				c0.261-0.568,0.193-1.112,0.048-1.794c-0.284-1.34-0.301-2.685-0.219-3.86c0.175-2.379,0.698-4.276,0.88-5.628
				c0.101-0.675,0.147-1.208,0.144-1.574c-0.013-0.364-0.04-0.56-0.04-0.56s0.046,0.19,0.094,0.557
				c0.035,0.367,0.055,0.912-0.004,1.599c-0.104,1.372-0.43,3.316-0.511,5.632c-0.026,1.167,0.038,2.391,0.368,3.674
				c0.071,0.313,0.176,0.678,0.194,1.077c0.018,0.393-0.04,0.809-0.193,1.184c-0.294,0.768-0.857,1.336-1.367,1.864
				c-0.519,0.527-1.036,1.031-1.397,1.611c-0.17,0.291-0.308,0.6-0.39,0.912c-0.021,0.156-0.063,0.288-0.079,0.463l-0.007,0.523
				c0.171,1.44,0.7,2.899,1.536,4.109c0.406,0.607,0.912,1.181,1.45,1.627c0.137,0.119,0.307,0.234,0.459,0.351
				c0.159,0.128,0.279,0.19,0.451,0.295c0.306,0.202,0.632,0.362,0.965,0.505c1.329,0.581,2.81,0.717,4.201,0.543
				c1.387-0.19,2.74-0.587,3.858-1.217c1.138-0.646,2.146-1.406,2.867-2.267c0.352-0.432,0.613-0.909,0.75-1.366
				c0.076-0.21,0.099-0.47,0.106-0.728c0.01-0.111-0.13-0.397-0.221-0.584c-0.433-0.829-0.91-1.517-1.295-2.079
				C189.424,217.723,188.956,217.092,188.956,217.092z"/>
		</g>
	</g>
	<g>
		<circle style="fill:#726658;" cx="167.111" cy="196.874" r="3.336"/>
		<circle style="fill:#726658;" cx="200.952" cy="196.874" r="3.336"/>
		<circle cx="200.952" cy="196.874" r="2.05"/>
		<circle cx="167.111" cy="196.874" r="2.05"/>
	</g>
	<g>
		<path style="opacity:0.27;fill:#A1DBE5;" d="M173.114,187.13h-13.017c-2.81,0-5.109,2.299-5.109,5.109v5.272
			c0,2.81,2.299,5.109,5.109,5.109h13.017c2.81,0,5.109-2.299,5.109-5.109v-5.272C178.223,189.429,175.924,187.13,173.114,187.13z"
			/>
		<path style="opacity:0.27;fill:#A1DBE5;" d="M207.787,187.13h-14.681c-2.352,0-4.277,1.924-4.277,4.277v6.936
			c0,2.352,1.924,4.277,4.277,4.277h14.681c2.352,0,4.277-1.924,4.277-4.277v-6.936C212.064,189.054,210.139,187.13,207.787,187.13z
			"/>
	</g>
	<g>
		<path d="M208.946,187.02h-18.313l-2.468,0.668c-0.221,0.06-0.449,0.09-0.677,0.09h-7.874c-0.183,0-0.366-0.019-0.546-0.058
			l-3.251-0.7h-17.207c-1.992,0-3.622,1.63-3.622,3.622l0,0c0,0.197,0.116,0.366,0.281,0.448c0.692-2.004,2.596-3.456,4.827-3.456
			h13.017c1.715,0,2.505-0.517,4.345,1.901c0.666,0.875,0.855-1.17,1.879-1.17h8.495c1.075,0,0.953,2.164,1.634,1.06
			c0.788-1.279,2.105-1.791,3.639-1.791h14.681c2.023,0,3.726,1.425,4.164,3.32c0.069-0.086,0.113-0.194,0.113-0.312l0,0
			C212.064,188.65,210.939,187.02,208.946,187.02z"/>
		<path d="M157.483,187.347l-14.595,2.403c-0.894,0.147-0.691,1.393,0.205,1.246l14.074-2.653
			C158.061,188.196,158.378,187.2,157.483,187.347z"/>
		<path d="M210.275,187.433l14.096,2.321c0.864,0.142,0.66,1.388-0.205,1.246l-13.591-2.573
			C209.711,188.285,209.41,187.291,210.275,187.433z"/>
	</g>
	<ellipse style="fill:#B75E8A;" cx="184.321" cy="239.549" rx="8.508" ry="5.089"/>
</g>
</svg>
