<svg xmlns="http://www.w3.org/2000/svg" version="1.1" x="0" y="0" viewBox="10.21 231 583.09 133.29" xml:space="preserve" preserveAspectRatio="none" enable-background="new 10.211 230.995 583.087 133.29" width="1110px" height="240px"><rect x="10.22" y="246.64" width="583.09px" height="117.09px" fill="#477DBF"/><rect x="10.21" y="326.01" width="583.09" height="38.27" fill="#6E6460"/><rect x="10.23" y="231" width="583.08" height="19.69" fill="#7F6138"/><rect x="495.38" y="303.74" width="10.46" height="3.57" fill="#FFF"/><rect x="495.38" y="323.88" width="10.46" height="3.57" fill="#FFF"/><rect x="398.15" y="303.74" width="10.46" height="3.57" fill="#FFF"/><rect x="398.15" y="323.88" width="10.46" height="3.57" fill="#FFF"/><rect x="301.1" y="303.74" width="10.46" height="3.57" fill="#FFF"/><rect x="301.1" y="323.88" width="10.46" height="3.57" fill="#FFF"/><rect x="204.31" y="303.74" width="10.46" height="3.57" fill="#FFF"/><rect x="204.31" y="323.88" width="10.46" height="3.57" fill="#FFF"/><rect x="107.22" y="303.74" width="10.46" height="3.57" fill="#FFF"/><rect x="107.22" y="323.88" width="10.46" height="3.57" fill="#FFF"/><rect x="10.13" y="303.74" width="10.46" height="3.57" fill="#FFF"/><rect x="10.13" y="323.88" width="10.46" height="3.57" fill="#FFF"/><path d="M15.95 297.36H14.84c-1.75 0-3.17 1.42-3.17 3.17v29.88c0 1.75 1.42 3.17 3.17 3.17h1.11c1.75 0 3.17-1.42 3.17-3.17V300.53C19.12 298.78 17.7 297.36 15.95 297.36z" fill="#155490"/><rect x="10.75" y="297.4" width="9.21" height="2.1" fill="#155490"/><rect x="10.75" y="331.48" width="9.21" height="2.1" fill="#155490"/><path d="M113.05 297.36h-1.11c-1.75 0-3.17 1.42-3.17 3.17v29.88c0 1.75 1.42 3.17 3.17 3.17h1.11c1.75 0 3.17-1.42 3.17-3.17V300.53C116.21 298.78 114.79 297.36 113.05 297.36z" fill="#155490"/><rect x="107.84" y="297.4" width="9.21" height="2.1" fill="#155490"/><rect x="107.84" y="331.48" width="9.21" height="2.1" fill="#155490"/><path d="M210.14 297.17h-1.11c-1.75 0-3.17 1.42-3.17 3.17v29.88c0 1.75 1.42 3.17 3.17 3.17h1.11c1.75 0 3.17-1.42 3.17-3.17v-29.88C213.3 298.59 211.89 297.17 210.14 297.17z" fill="#155490"/><rect x="204.93" y="297.21" width="9.21" height="2.1" fill="#155490"/><rect x="204.93" y="331.29" width="9.21" height="2.1" fill="#155490"/><path d="M307.23 297.36h-1.11c-1.75 0-3.17 1.42-3.17 3.17v29.88c0 1.75 1.42 3.17 3.17 3.17h1.11c1.75 0 3.17-1.42 3.17-3.17V300.53C310.39 298.78 308.98 297.36 307.23 297.36z" fill="#155490"/><rect x="302.02" y="297.4" width="9.21" height="2.1" fill="#155490"/><rect x="302.02" y="331.48" width="9.21" height="2.1" fill="#155490"/><path d="M404.32 297.36h-1.11c-1.75 0-3.17 1.42-3.17 3.17v29.88c0 1.75 1.42 3.17 3.17 3.17h1.11c1.75 0 3.17-1.42 3.17-3.17V300.53C407.49 298.78 406.07 297.36 404.32 297.36z" fill="#155490"/><rect x="399.12" y="297.4" width="9.21" height="2.1" fill="#155490"/><rect x="399.12" y="331.48" width="9.21" height="2.1" fill="#155490"/><path d="M501.31 297.36H500.2c-1.75 0-3.17 1.42-3.17 3.17v29.88c0 1.75 1.42 3.17 3.17 3.17h1.11c1.75 0 3.17-1.42 3.17-3.17V300.53C504.48 298.78 503.06 297.36 501.31 297.36z" fill="#155490"/><rect x="496.11" y="297.4" width="9.21" height="2.1" fill="#155490"/><rect x="496.11" y="331.48" width="9.21" height="2.1" fill="#155490"/><rect x="20.25" y="299.87" width="87.6" height="1.93" fill="#FFF"/><rect x="20.25" y="328.76" width="87.6" height="1.93" fill="#FFF"/><rect x="20.25" y="299.92" width="1.93" height="30.53" fill="#FFF"/><rect x="105.91" y="300.17" width="1.93" height="30.53" fill="#FFF"/><rect x="24.26" y="300.83" width="0.81" height="28.9" fill="#FFF"/><rect x="29.47" y="300.83" width="0.81" height="28.9" fill="#FFF"/><rect x="34.67" y="300.83" width="0.81" height="28.9" fill="#FFF"/><rect x="39.87" y="300.83" width="0.81" height="28.9" fill="#FFF"/><rect x="45.08" y="300.83" width="0.81" height="28.9" fill="#FFF"/><rect x="50.28" y="300.83" width="0.81" height="28.9" fill="#FFF"/><rect x="55.49" y="300.83" width="0.81" height="28.9" fill="#FFF"/><rect x="60.69" y="300.83" width="0.81" height="28.9" fill="#FFF"/><rect x="65.89" y="300.83" width="0.81" height="28.9" fill="#FFF"/><rect x="71.1" y="300.83" width="0.81" height="28.9" fill="#FFF"/><rect x="76.3" y="300.83" width="0.81" height="28.9" fill="#FFF"/><rect x="81.5" y="300.83" width="0.81" height="28.9" fill="#FFF"/><rect x="86.71" y="300.83" width="0.81" height="28.9" fill="#FFF"/><rect x="91.91" y="300.83" width="0.81" height="28.9" fill="#FFF"/><rect x="97.11" y="300.83" width="0.81" height="28.9" fill="#FFF"/><rect x="102.32" y="300.83" width="0.81" height="28.9" fill="#FFF"/><rect x="117.34" y="299.87" width="87.6" height="1.93" fill="#FFF"/><rect x="117.34" y="328.76" width="87.6" height="1.93" fill="#FFF"/><rect x="117.34" y="299.92" width="1.93" height="30.53" fill="#FFF"/><rect x="203" y="300.17" width="1.93" height="30.53" fill="#FFF"/><rect x="121.36" y="300.83" width="0.81" height="28.9" fill="#FFF"/><rect x="126.56" y="300.83" width="0.81" height="28.9" fill="#FFF"/><rect x="131.76" y="300.83" width="0.81" height="28.9" fill="#FFF"/><rect x="136.97" y="300.83" width="0.81" height="28.9" fill="#FFF"/><rect x="142.17" y="300.83" width="0.81" height="28.9" fill="#FFF"/><rect x="147.37" y="300.83" width="0.81" height="28.9" fill="#FFF"/><rect x="152.58" y="300.83" width="0.81" height="28.9" fill="#FFF"/><rect x="157.78" y="300.83" width="0.81" height="28.9" fill="#FFF"/><rect x="162.98" y="300.83" width="0.81" height="28.9" fill="#FFF"/><rect x="168.19" y="300.83" width="0.81" height="28.9" fill="#FFF"/><rect x="173.39" y="300.83" width="0.81" height="28.9" fill="#FFF"/><rect x="178.59" y="300.83" width="0.81" height="28.9" fill="#FFF"/><rect x="183.8" y="300.83" width="0.81" height="28.9" fill="#FFF"/><rect x="189" y="300.83" width="0.81" height="28.9" fill="#FFF"/><rect x="194.2" y="300.83" width="0.81" height="28.9" fill="#FFF"/><rect x="199.41" y="300.83" width="0.81" height="28.9" fill="#FFF"/><rect x="214.43" y="299.87" width="87.6" height="1.93" fill="#FFF"/><rect x="214.43" y="328.76" width="87.6" height="1.93" fill="#FFF"/><rect x="214.43" y="299.92" width="1.93" height="30.53" fill="#FFF"/><rect x="300.09" y="300.17" width="1.93" height="30.53" fill="#FFF"/><rect x="218.45" y="300.83" width="0.81" height="28.9" fill="#FFF"/><rect x="223.65" y="300.83" width="0.81" height="28.9" fill="#FFF"/><rect x="228.85" y="300.83" width="0.81" height="28.9" fill="#FFF"/><rect x="234.06" y="300.83" width="0.81" height="28.9" fill="#FFF"/><rect x="239.26" y="300.83" width="0.81" height="28.9" fill="#FFF"/><rect x="244.46" y="300.83" width="0.81" height="28.9" fill="#FFF"/><rect x="249.67" y="300.83" width="0.81" height="28.9" fill="#FFF"/><rect x="254.87" y="300.83" width="0.81" height="28.9" fill="#FFF"/><rect x="260.07" y="300.83" width="0.81" height="28.9" fill="#FFF"/><rect x="265.28" y="300.83" width="0.81" height="28.9" fill="#FFF"/><rect x="270.48" y="300.83" width="0.81" height="28.9" fill="#FFF"/><rect x="275.69" y="300.83" width="0.81" height="28.9" fill="#FFF"/><rect x="280.89" y="300.83" width="0.81" height="28.9" fill="#FFF"/><rect x="286.09" y="300.83" width="0.81" height="28.9" fill="#FFF"/><rect x="291.3" y="300.83" width="0.81" height="28.9" fill="#FFF"/><rect x="296.5" y="300.83" width="0.81" height="28.9" fill="#FFF"/><rect x="408.61" y="299.87" width="87.6" height="1.93" fill="#FFF"/><rect x="408.61" y="328.76" width="87.6" height="1.93" fill="#FFF"/><rect x="408.61" y="299.92" width="1.93" height="30.53" fill="#FFF"/><rect x="494.27" y="300.17" width="1.93" height="30.53" fill="#FFF"/><rect x="412.63" y="300.83" width="0.81" height="28.9" fill="#FFF"/><rect x="417.83" y="300.83" width="0.81" height="28.9" fill="#FFF"/><rect x="423.04" y="300.83" width="0.81" height="28.9" fill="#FFF"/><rect x="428.24" y="300.83" width="0.81" height="28.9" fill="#FFF"/><rect x="433.44" y="300.83" width="0.81" height="28.9" fill="#FFF"/><rect x="438.65" y="300.83" width="0.81" height="28.9" fill="#FFF"/><rect x="443.85" y="300.83" width="0.81" height="28.9" fill="#FFF"/><rect x="449.05" y="300.83" width="0.81" height="28.9" fill="#FFF"/><rect x="454.26" y="300.83" width="0.81" height="28.9" fill="#FFF"/><rect x="459.46" y="300.83" width="0.81" height="28.9" fill="#FFF"/><rect x="464.66" y="300.83" width="0.81" height="28.9" fill="#FFF"/><rect x="469.87" y="300.83" width="0.81" height="28.9" fill="#FFF"/><rect x="475.07" y="300.83" width="0.81" height="28.9" fill="#FFF"/><rect x="480.28" y="300.83" width="0.81" height="28.9" fill="#FFF"/><rect x="485.48" y="300.83" width="0.81" height="28.9" fill="#FFF"/><rect x="490.68" y="300.83" width="0.81" height="28.9" fill="#FFF"/><rect x="311.52" y="299.87" width="87.6" height="1.93" fill="#FFF"/><rect x="311.52" y="328.76" width="87.6" height="1.93" fill="#FFF"/><rect x="311.52" y="299.92" width="1.93" height="30.53" fill="#FFF"/><rect x="397.18" y="300.17" width="1.93" height="30.53" fill="#FFF"/><rect x="315.54" y="300.83" width="0.81" height="28.9" fill="#FFF"/><rect x="320.74" y="300.83" width="0.81" height="28.9" fill="#FFF"/><rect x="325.94" y="300.83" width="0.81" height="28.9" fill="#FFF"/><rect x="331.15" y="300.83" width="0.81" height="28.9" fill="#FFF"/><rect x="336.35" y="300.83" width="0.81" height="28.9" fill="#FFF"/><rect x="341.55" y="300.83" width="0.81" height="28.9" fill="#FFF"/><rect x="346.76" y="300.83" width="0.81" height="28.9" fill="#FFF"/><rect x="351.96" y="300.83" width="0.81" height="28.9" fill="#FFF"/><rect x="357.17" y="300.83" width="0.81" height="28.9" fill="#FFF"/><rect x="362.37" y="300.83" width="0.81" height="28.9" fill="#FFF"/><rect x="367.57" y="300.83" width="0.81" height="28.9" fill="#FFF"/><rect x="372.78" y="300.83" width="0.81" height="28.9" fill="#FFF"/><rect x="377.98" y="300.83" width="0.81" height="28.9" fill="#FFF"/><rect x="383.18" y="300.83" width="0.81" height="28.9" fill="#FFF"/><rect x="388.39" y="300.83" width="0.81" height="28.9" fill="#FFF"/><rect x="393.59" y="300.83" width="0.81" height="28.9" fill="#FFF"/><rect x="505.7" y="299.87" width="87.6" height="1.93" fill="#FFF"/><rect x="505.7" y="328.76" width="87.6" height="1.93" fill="#FFF"/><rect x="505.7" y="299.92" width="1.93" height="30.53" fill="#FFF"/><rect x="591.37" y="300.17" width="1.93" height="30.53" fill="#FFF"/><rect x="509.72" y="300.83" width="0.81" height="28.9" fill="#FFF"/><rect x="514.92" y="300.83" width="0.81" height="28.9" fill="#FFF"/><rect x="520.13" y="300.83" width="0.81" height="28.9" fill="#FFF"/><rect x="525.33" y="300.83" width="0.81" height="28.9" fill="#FFF"/><rect x="530.53" y="300.83" width="0.81" height="28.9" fill="#FFF"/><rect x="535.74" y="300.83" width="0.81" height="28.9" fill="#FFF"/><rect x="540.94" y="300.83" width="0.81" height="28.9" fill="#FFF"/><rect x="546.14" y="300.83" width="0.81" height="28.9" fill="#FFF"/><rect x="551.35" y="300.83" width="0.81" height="28.9" fill="#FFF"/><rect x="556.55" y="300.83" width="0.81" height="28.9" fill="#FFF"/><rect x="561.75" y="300.83" width="0.81" height="28.9" fill="#FFF"/><rect x="566.96" y="300.83" width="0.81" height="28.9" fill="#FFF"/><rect x="572.16" y="300.83" width="0.81" height="28.9" fill="#FFF"/><rect x="577.37" y="300.83" width="0.81" height="28.9" fill="#FFF"/><rect x="582.57" y="300.83" width="0.81" height="28.9" fill="#FFF"/><rect x="587.77" y="300.83" width="0.81" height="28.9" fill="#FFF"/><rect x="167.02" y="258.53" width="3.24" height="83.54" fill="#155490"/><path d="M168.69 293.84h-0.09c-1.69 0-3.06 1.37-3.06 3.06v43.76c0 1.69 1.37 3.06 3.06 3.06h0.09c1.69 0 3.06-1.37 3.06-3.06V296.9C171.75 295.21 170.38 293.84 168.69 293.84z" fill="#155490"/><circle cx="168.47" cy="248.77" r="10.77" fill="#FFF"/><path d="M179.92 250.5c0 0.48-0.38 0.89-0.87 0.93 -3.23 0.26-6.73 0.43-10.46 0.43 -3.82 0-7.4-0.16-10.7-0.43 -0.5-0.04-0.87-0.44-0.87-0.93v-2.44c0-0.54 0.48-0.97 1.04-0.92 3.21 0.26 6.68 0.42 10.39 0.42 3.73 0 7.22-0.16 10.45-0.42 0.56-0.04 1.03 0.38 1.03 0.92v2.44H179.92z" fill="#155490"/></svg>
