<?xml version="1.0" encoding="utf-8"?>
<!-- Generator: Adobe Illustrator 18.1.1, SVG Export Plug-In . SVG Version: 6.00 Build 0)  -->
<svg version="1.1" id="Layer_1" xmlns="http://www.w3.org/2000/svg" xmlns:xlink="http://www.w3.org/1999/xlink" x="0px" y="0px"
	 viewBox="0 0 841.9 595.3" enable-background="new 0 0 841.9 595.3" xml:space="preserve">
<path fill="#545554" d="M280.1,456.4h227.2c1.7,0,3.2-1.4,3.2-3.2v-251c0-1.7-1.4-3.2-3.2-3.2H280.1c-1.7,0-3.2,1.4-3.2,3.2v251
	C276.9,455,278.4,456.4,280.1,456.4z"/>
<path fill="#3D5E80" d="M508.7,307.7c4.8,9.6-28.5,32.1-36.4,24.2c-66.4-66.9-57.6-73.2-53.6-77.6c2.3-2.5,12.1,0.2,27.2-6.2
	c4.4-1.9,7.1-3.6,9.1-5c4.6-3.4,11.3-3.6,15.6-0.3C480.2,249.8,478,252.4,508.7,307.7L508.7,307.7L508.7,307.7z"/>
<path fill="#E3A47A" d="M581.4,332c14.7,7.5,22.7,20.3,18,28.6c-4.7,8.3-20.5,8.9-35.1,1.4c-14.7-7.5-22.7-20.3-18-28.6
	C551,325.1,566.8,324.5,581.4,332z"/>
<path fill="#3D5E80" d="M562.9,325.4c9.6,5.9,1.6,33.5-9,29.9c-89.4-30.1-87.5-37.7-87.7-42.3c-0.1-2.7,8.4-3.7,14.5-13.4
	c1.8-2.8,2.5-5,2.9-6.7c0.9-4.1,5.4-6.3,10.5-5.2C505.4,290.2,505.6,292.8,562.9,325.4L562.9,325.4L562.9,325.4z"/>
<path fill="#0B142D" d="M581,327.6c1.6,0.1,4,0.2,6.6,1.6c2,1,3.8,2.5,5.2,4.3c-0.8-0.6-1.9-1.3-3.2-1.2c-0.9,0.1-1.5,0.6-1.8,0.7
	c-2.9,2.1-8.8-1.2-11.8,0.7c-2.5,1.6-2.2,6.3-1.9,10.3c0.3,3.9,0.6,8.4,3.4,9.9c1.8,1,4.6,0.8,9.3,0.6c0.1,0,1.2-0.1,2.6,0.1
	c1.4,0.2,2.2,0.3,2.3,0.7c0.3,1-4.9,4.5-10.9,4.7c-2,0.1-5.9,0.3-8.9-2.2c-3.6-2.9-3.9-7.7-4.2-14.1c-0.3-6.6-0.6-11.4,2.7-14.2
	C573.5,327.1,577.8,327.4,581,327.6z"/>
<path fill="#0B142D" d="M624,371.1c-5.6,0.9-12.2,1.5-19.7,1.5c-6.7-0.1-12.8-0.6-17.9-1.4c-0.3,0-1.7,0-2.8-1.2
	c-0.7-0.7-1.2-1.7-1.2-2.8l0-45.6c0-2.2,1.8-4,4-4c5.2-1.1,11.8-2,19.4-1.9c7.1,0,13.3,0.9,18.2,1.9c0.3,0,1.7,0,2.8,1.2
	c0.7,0.7,1.2,1.7,1.2,2.8l0,45.6C628,369.3,626.2,371.1,624,371.1z"/>
<path fill="#26A9E0" d="M598.9,336.3c0.9-1.4,1.8-2.8,2.8-4.1c1.2-1.6,2.7-3,4.5-3.9c3.2-1.6,6.4-0.8,8.5,2c1.5,2,2.2,4.2,2.7,6.6
	c0.8,4.4,0.3,8.6-0.9,12.8c-0.8,2.7-1.8,5.3-3.3,7.6c-1.3,2.2-3,4.1-5.2,5.4c-2,1.2-4.2,1.7-6.4,0.7c-0.7-0.3-1.4-0.8-2-1.3
	c-2-1.9-3.2-4.2-3.8-6.8c-0.8-3.5-0.7-7-0.2-10.4c0.7-4.2,1.9-8.2,4.1-11.9c0.4-0.7,0.8-1.3,1.2-1.9c0.1-0.1,0.3-0.2,0.5-0.2
	c0,0.2,0,0.4-0.1,0.5c-0.8,1.5-1.5,3-2.3,4.6C599,336.1,598.9,336.2,598.9,336.3C598.9,336.3,598.9,336.3,598.9,336.3z M599.6,352.5
	c0.1,0,0.1,0,0.2-0.1c0.1,0.2,0.2,0.4,0.3,0.6c0.4,1.4,1,2.8,1.9,4c1.2,1.5,2.6,2.3,4.5,2c1-0.2,1.9-0.7,2.7-1.4
	c1.6-1.4,2.8-3.1,3.6-5c2.2-4.8,3-9.8,2.3-15.1c-0.1-0.7-0.3-1.4-0.4-2.2c-0.1,0.2-0.1,0.4-0.1,0.5c0.3,2.9-0.1,5.8-0.9,8.6
	c-0.1,0.2-0.3,0.4-0.4,0.6c0-0.2-0.1-0.5-0.1-0.7c0.6-2.4,0.8-4.9,0.5-7.4c-0.2-1.6-0.7-3.2-1.7-4.5c-1.1-1.5-2.5-2.1-4.1-1.6
	c-0.7,0.2-1.5,0.6-2.1,1c-1.3,0.9-2.3,2.1-3.1,3.4c-3.8,6.1-5.2,12.7-3.9,19.8c0.3,1.9,1.1,3.7,2.4,5.2c1.5,1.8,4,2.2,6.1,1
	c-0.3,0-0.5,0.1-0.7,0.1c-0.5,0-1,0-1.4-0.1c-1.4-0.3-2.5-1.3-3.3-2.5c-1.1-1.6-1.7-3.4-2.1-5.4C599.7,353,599.7,352.7,599.6,352.5z
	"/>
<path fill="#E3A47A" d="M587.5,332c6.7,0,12.3,2.8,12.5,6.2c0.2,3.4-5.1,6.1-11.9,6.1c-6.7,0-12.3-2.8-12.5-6.2
	C575.4,334.7,580.7,332,587.5,332z"/>
<path fill="#31516C" d="M542.9,352c3.9,1.1,7.8,2.3,12.1,3.5c10.8,3,17.4-25,7.5-30.4l0,0c-4.3-2.2-8.3-4.2-12-6.1
	C556,328.2,551.4,348,542.9,352z"/>
<path fill="#3D5E80" d="M334.5,233.4c-14.1,52.9-20.6,97.8-23.8,131.1c-4.4,45.6-2,63.3,10.9,76.3c17.5,17.7,45.8,18.1,77.8,18.5
	c33.5,0.4,67.4,0.9,86.2-19.3c9.4-10.1,14.9-19.7,6.7-75.5c-4.5-30.8-13.3-80-31.8-131.9C418.5,232.9,376.5,233.2,334.5,233.4z"/>
<ellipse fill="#E3A47A" cx="397.5" cy="255.8" rx="33" ry="20.8"/>
<polygon fill="#3D5E80" points="419.4,295.9 399.7,285.1 416,251.5 435.7,262.4 "/>
<rect x="387.2" y="284.3" fill="#31516C" width="22.8" height="175.1"/>
<polygon fill="#31516C" points="409.8,284.2 391.5,297.1 365.3,263.8 383.6,250.8 "/>
<polygon fill="#31516C" points="334.4,233.2 370.5,274.9 383.6,251.1 "/>
<polygon fill="#31516C" points="460.7,233.1 428.8,270.7 415.4,251.3 "/>
<circle fill="#431117" cx="398.8" cy="290.3" r="4.9"/>
<circle fill="#431117" cx="398.8" cy="340.5" r="4.9"/>
<circle fill="#431117" cx="398.8" cy="390.8" r="4.9"/>
<circle fill="#431117" cx="398.8" cy="441.1" r="4.9"/>
<path fill="#E3A47A" d="M478.7,109.4c4.1-1.5,9.9,3.6,12.4,8.1c7.6,13.6-8,34.3-13.5,33C470.8,149,469.5,112.8,478.7,109.4z"/>
<path fill="#E3A47A" d="M315.9,109.4c-4.1-1.5-9.9,3.6-12.4,8.1c-7.6,13.6,8,34.3,13.5,33C323.8,149,325.1,112.8,315.9,109.4z"/>
<path fill="#603813" d="M484,96.6c-1.5-7.5-0.5-15.1,0-22.6c0.5-7.6,0.4-15.4-3.2-22.3c-3.5-6.9-11.2-12.7-19.9-12.6
	c0.3-0.6,1.3-2.5,3.7-3.5c2.8-1.2,6.3-0.6,8.9,1.4c-2.4-2.5-5.9-5.5-10.6-8.3c-6.5-3.9-12.7-5.8-17-6.8c3-1.9,10.7-6,20.1-4.8
	c1.8,0.2,3.4,0.6,4.9,1.1c-1.9-1.7-5-4-9.2-6c-11.7-5.5-23.3-4-30.8-3.1c-14.9,1.9-26,7.6-32.2,11.7c3.4-7.1,11-12.4,19.6-13.8
	c1.8-0.4,3.6-0.9,5.4-1.4c-2.4-0.6-5.8-1.3-9.9-1.7C403,2.8,395.4,4.6,382,8c0,0-21.3,5.5-34.5,12.9c-2.3,1.3-4.3,2.7-4.3,2.7
	c-0.9,0.6-1.8,1.2-2.5,1.8c-0.4-1-1.1-3.2-0.6-5.9c0.5-2.8,2.1-4.7,2.9-5.5c-1.7,0.4-4.5,1.3-7.1,3.5c-4.7,3.9-5.4,8.8-5.5,10.2
	c-0.6-0.6-1.5-1.7-2-3.2c-0.9-2.8,0.2-5.2,0.6-5.9c-1.8,1.1-13,7.9-14.4,20.1c-0.7,5.7,1.1,10.3,2.4,12.9
	c-2.4,6.1-5.3,15.4-6.5,26.7c-1.5,14.9,3.2,23.1,2.7,35.6c-4.3,115.7,38.6,135,85.7,135c42.9,0,75-28.2,79.3-48.2
	c3.9-18.5,7.3-37,7.8-67.4C486.2,121.1,486.4,108.7,484,96.6z"/>
<path fill="#E3A47A" d="M355.2,79.3c10.8-2,13.1-0.7,22.6-1.8c23.4-2.7,31.1-13.1,46.6-9.6c4.3,1,7.5,2.6,9.3,3.7
	c-1.4-0.3-3.1-0.5-5-0.3c-8.3,0.7-13.3,7.6-14.1,8.8c6.4-1.2,39-6.9,54.7,10c2.4,2.5,3.7,4.9,4.5,6.4c8.1,14.4,0.3,23.2-0.1,48.3
	c-0.2,14.6,2.3,19.3-2.3,27.4c-4.2,7.3-10.8,11.2-13,12.5c-12.8,7.4-26.4,5.7-40.2,4.9c-51.8-3-60.8,2.5-80.9-3.4
	c-9.2-2.7-12.8-12.6-14.2-21.3c-2.2-13.6-2.3-27.4-2.3-41.1c0-5.4,0-10.8,0-16.2c0-3.5,0-7.1,1.4-10.4c2.4-5.5,7.6-8.3,12.6-11.1
	C339.3,83.7,345.3,81.1,355.2,79.3z"/>
<g opacity="0.6">
	<path fill="#8A5D3B" d="M409.4,160.7c0,0,0.3,0.3,0.8,0.9c0.3,0.3,0.6,0.7,0.9,1.1c0.4,0.4,0.8,0.9,1.3,1.5c0.9,1.2,2,2.5,3.2,4.3
		c0.1,0.2,0.3,0.5,0.4,0.7c0.1,0.1,0.1,0.3,0.2,0.4c0,0.1,0.1,0.2,0.1,0.2l0,0.1c0,0,0,0.1,0,0.1v0.1v0.1c0,0.1,0,0.3,0,0.4
		c0,0.2,0,0.3,0,0.5c0,0.2,0,0.3-0.1,0.5l0,0.2l-0.1,0.2c-0.1,0.6-0.3,1.2-0.6,1.8s-0.6,1.1-1,1.7c-1.6,2.1-3.8,3.9-6.3,5.5
		c-0.3,0.2-0.6,0.4-1,0.6c-0.3,0.2-0.7,0.4-1,0.5c-0.7,0.3-1.4,0.6-2.2,0.9c-1.5,0.5-3,0.9-4.7,1.2c-1.6,0.2-3.3,0.3-5,0.1
		c-1.7-0.2-3.4-0.6-5-1.3c-0.4-0.2-0.8-0.4-1.2-0.6c-0.2-0.1-0.4-0.2-0.6-0.3c-0.2-0.1-0.4-0.2-0.6-0.3l-0.6-0.3l-0.1-0.1l0,0
		c0,0,0,0-0.1-0.1l-0.1-0.1l-0.3-0.2l-0.5-0.4l-0.3-0.2l-0.1-0.1l-0.1-0.1l-1-0.9c-0.3-0.3-0.6-0.6-0.9-0.9
		c-0.2-0.2-0.3-0.3-0.4-0.5l-0.4-0.5c-0.3-0.3-0.5-0.7-0.8-1.1c-1-1.5-1.8-3.1-2.4-4.7c-0.2-0.4-0.3-0.8-0.4-1.3
		c-0.1-0.4-0.2-0.8-0.3-1.3c-0.2-0.8-0.3-1.7-0.4-2.6c0-0.2,0-0.1,0-0.1v0v-0.1V166v-0.3c0-0.2,0-0.5,0-0.7c0.1-0.5,0.1-0.9,0.2-1.4
		c0.2-0.9,0.6-1.8,1.1-2.5c1-1.5,2.2-2.7,3.3-3.7c1.1-1.1,2.1-2.2,2.6-3.3c0.3-0.6,0.4-1.2,0.4-1.8v-0.2c0-0.1,0-0.2,0-0.2
		c0-0.2,0-0.3-0.1-0.5l-0.1-0.2l0-0.1l0-0.2c-0.1-0.2-0.1-0.3-0.1-0.5c-0.7-2.9-0.6-5.7-0.4-8.3c0.2-2.5,0.6-4.8,0.9-6.9
		c0.4-2,0.7-3.8,0.9-5.2c0.2-1.4,0.3-2.6,0.3-3.4c0-0.2,0-0.4,0-0.5c0-0.2,0-0.3,0-0.4c0-0.2,0-0.3,0-0.3s0,0.1,0.1,0.3
		c0,0.1,0.1,0.2,0.1,0.4c0,0.2,0.1,0.3,0.1,0.5c0.1,0.8,0.1,2,0,3.4c-0.1,1.5-0.3,3.3-0.6,5.3c-0.2,2-0.5,4.3-0.5,6.8
		c0,1.2,0,2.5,0.1,3.9c0.1,1.3,0.3,2.7,0.7,4c0.1,0.2,0.1,0.3,0.1,0.5c0.1,0.2,0.1,0.4,0.1,0.6s0.1,0.4,0.1,0.6c0,0.1,0,0.2,0.1,0.3
		l0,0.3c0.1,0.8-0.1,1.7-0.4,2.5c-0.3,0.8-0.8,1.5-1.3,2.2c-0.5,0.7-1.1,1.2-1.6,1.8c-1.1,1.1-2.2,2.2-3,3.5c-0.8,1.2-1.1,2.6-1,4
		c0.1,0.8,0.2,1.5,0.4,2.3c0.1,0.4,0.2,0.8,0.3,1.2c0.1,0.4,0.2,0.8,0.4,1.1c0.6,1.5,1.3,2.9,2.2,4.2c0.2,0.3,0.4,0.7,0.7,1l0.4,0.5
		c0.1,0.2,0.2,0.3,0.4,0.4c0.3,0.3,0.6,0.6,0.8,0.8l0.8,0.8l0.1,0.1l0.1,0.1l0.3,0.2l0.5,0.4l0.3,0.2l0.1,0.1c-0.1-0.1,0,0,0,0l0,0
		l0.1,0l0.5,0.3c0.2,0.1,0.3,0.2,0.5,0.3c0.2,0.1,0.3,0.2,0.5,0.3c0.3,0.2,0.7,0.3,1.1,0.5c1.4,0.6,2.9,1,4.4,1.2
		c1.5,0.2,3,0.2,4.5,0c1.5-0.2,3-0.5,4.4-0.9c0.7-0.2,1.4-0.5,2-0.7c0.3-0.1,0.7-0.3,0.9-0.4c0.3-0.2,0.6-0.3,0.9-0.5
		c1.2-0.7,2.4-1.4,3.4-2.3s2-1.7,2.7-2.6c0.8-0.9,1.3-1.9,1.6-2.9l0.1-0.2l0-0.2c0-0.1,0.1-0.3,0.1-0.4c0-0.1,0-0.2,0.1-0.4
		c0-0.1,0-0.3,0-0.4v-0.1c0,0,0-0.1,0,0v0v0c0-0.1,0-0.1-0.1-0.2c0-0.1-0.1-0.2-0.1-0.3c-0.1-0.2-0.2-0.4-0.3-0.7
		c-0.9-1.8-1.9-3.3-2.8-4.5c-0.8-1.2-1.5-2.2-2-2.8C409.7,161,409.4,160.7,409.4,160.7z"/>
</g>
<circle fill="#716558" cx="362.4" cy="127.6" r="7.1"/>
<circle cx="362.4" cy="127.6" r="3.2"/>
<circle fill="#716558" cx="435" cy="127.6" r="7.1"/>
<circle cx="435" cy="127.6" r="3.2"/>
<path opacity="0.3" fill="#A0DAE4" enable-background="new    " d="M375.5,102.8h-27.9c-6,0-10.9,4.9-10.9,10.9v11.3
	c0,6,4.9,10.9,10.9,10.9h27.9c6,0,10.9-4.9,10.9-10.9v-11.3C386.4,107.8,381.5,102.8,375.5,102.8z"/>
<path opacity="0.3" fill="#A0DAE4" enable-background="new    " d="M449.8,102.8h-31.5c-5,0-9.2,4.1-9.2,9.2v14.9
	c0,5,4.1,9.2,9.2,9.2h31.5c5,0,9.2-4.1,9.2-9.2V112C459,107,454.8,102.8,449.8,102.8z"/>
<path fill="#231F20" d="M452.3,102.6H413l-5.3,1.4c-0.5,0.1-1,0.2-1.4,0.2h-16.9c-0.4,0-0.8-0.1-1.2-0.1l-7-1.5h-36.9
	c-4.3,0-7.8,3.5-7.8,7.8l0,0c0,0.4,0.2,0.8,0.6,1c1.5-4.3,5.6-7.4,10.3-7.4h27.9c3.7,0,5.4-1.1,9.3,4.1c1.4,1.9,1.8-2.5,4-2.5H407
	c2.3,0,2,4.6,3.5,2.3c1.7-2.7,4.5-3.8,7.8-3.8h31.5c4.3,0,8,3,8.9,7.1c0.2-0.2,0.2-0.4,0.2-0.7l0,0
	C459,106.1,456.5,102.6,452.3,102.6z"/>
<path d="M342,103.3l-31.3,5.1c-1.9,0.3-1.5,3,0.4,2.7l30.2-5.7C343.2,105.1,343.9,103,342,103.3z"/>
<path d="M455.1,103.5l30.2,5c1.9,0.3,1.4,3-0.4,2.7l-29.1-5.5C453.9,105.3,453.3,103.2,455.1,103.5z"/>
<path fill="#B65D89" d="M371.8,200.8c17.8-0.8,35.6-1.5,53.4-2.3c-4.7,12.6-15.3,21-27,21.3C386.9,220.2,376.5,212.7,371.8,200.8z"
	/>
<path fill="#DDDDDC" d="M425.6,198.4c-0.4-1-53.9,1.2-54.3,2.4c0.7,1.2,2.5,4.5,3.8,6.4c0.4,0.6,0.9,0.9,1.5,0.9
	c14.4-0.4,28.8-0.9,43.2-1.3c0.5,0,0.9-0.3,1.3-0.8C422.5,203.9,424.7,200.1,425.6,198.4z"/>
<path fill="#0E2B47" d="M400.7,579.7l-85-0.8c-1,0-1.8-0.8-1.8-1.8l2-208.9c0-1,0.8-1.8,1.8-1.8l85,0.8c1,0,1.8,0.8,1.8,1.8
	l-2,208.9C402.4,578.9,401.7,579.7,400.7,579.7z"/>
<path fill="#0E2B47" d="M494.2,577.4l-84.9,3.6c-1,0.1-1.8-0.7-1.8-1.7l-8.8-208.7c-0.1-1,0.7-1.8,1.7-1.8l84.9-3.6
	c1-0.1,1.8,0.7,1.8,1.7l8.8,208.7C495.9,576.5,495.1,577.4,494.2,577.4z"/>
<path d="M313.2,574.1c0,5.5,7.5,6.6,16.5,5.9c19.7-1.5,39.5-1.5,59.1,0c9,0.7,16.5-0.4,16.5-5.9c0-13.6-20.6-32.9-46-32.9
	C333.8,541.2,313.2,560.4,313.2,574.1z"/>
<path d="M405.2,574.1c0,5.5,7.5,6.6,16.5,5.9c19.7-1.5,39.5-1.5,59.1,0c9,0.7,16.5-0.4,16.5-5.9c0-13.6-20.6-32.9-46-32.9
	C425.9,541.2,405.2,560.4,405.2,574.1z"/>
<path fill="#050505" d="M481.9,442c-18.1,18.3-50.9,17.9-83.2,17.5c-30.9-0.4-58.2-0.7-75.1-16.8c-7.5-7.1-11.3-15.8-12.2-30.6
	c-1.2,25.9,2.2,38.2,12.2,47.7c16.9,16.1,44.2,16.4,75.1,16.8c32.3,0.4,65,0.8,83.2-17.5c6.9-7,11.6-13.8,10-39
	C490.7,432,486.9,437,481.9,442z"/>
<circle fill="#431117" cx="398.1" cy="442.9" r="4.9"/>
<path fill="#686666" d="M418.8,476.7h-33.5c-0.2,0-0.4-0.2-0.4-0.4v-15c0-0.2,0.2-0.4,0.4-0.4h33.5c0.2,0,0.4,0.2,0.4,0.4v15
	C419.2,476.5,419,476.7,418.8,476.7z"/>
<path fill="#3D5E80" d="M302.3,351.6c-8.3,7.2-37.7-21.5-31.8-31.6c50.1-84.8,58.2-77.4,63.4-74.3c3,1.7,2.6,12.5,12.3,26.6
	c2.8,4.1,5.1,6.4,7,8.1c4.4,3.9,6,10.8,3.8,16C352.2,308,349.3,306.4,302.3,351.6L302.3,351.6L302.3,351.6z"/>
<path fill="#3D5E80" d="M348,406.3c9.2,7.9,15,16.7,13.1,19.6c-1.9,2.9-10.9-1.2-20.1-9.1c-9.1-7.9-15-16.7-13.1-19.6
	C329.9,394.4,338.9,398.4,348,406.3z"/>
<path fill="#3D5E80" d="M350.8,415.9c6.7,16.2,4.9,32.2-3.9,35.7c-8.8,3.5-21.4-6.9-28-23.1c-6.7-16.2-4.9-32.2,3.9-35.7
	S344.2,399.6,350.8,415.9z"/>
<path fill="#3D5E80" d="M340.7,397.7c3.8,11.4-19.6,28.4-25.6,18.2c-50.3-86.1-44.2-91-41.4-94.9c1.6-2.2,8.8,2.8,19.6-0.9
	c3.1-1.1,5-2.3,6.4-3.5c3.2-2.7,8.1-1.4,11.3,3C318.1,329.4,316.6,331.7,340.7,397.7L340.7,397.7L340.7,397.7z"/>
<path fill="#2D2D2D" d="M482.6,161.9h21.5c0.5,0,0.9-0.4,0.9-0.9V94.2c0-0.5-0.4-0.9-0.9-0.9h-21.5c-0.5,0-0.9,0.4-0.9,0.9V161
	C481.7,161.5,482.1,161.9,482.6,161.9z"/>
<path fill="#2D2D2D" d="M294.2,161.9h21.5c0.5,0,0.9-0.4,0.9-0.9V94.2c0-0.5-0.4-0.9-0.9-0.9h-21.5c-0.5,0-0.9,0.4-0.9,0.9V161
	C293.3,161.5,293.7,161.9,294.2,161.9z"/>
<path fill="#2D2D2D" d="M438.6,22.9h-75.3c-65.7-1.2-59.7,84.7-59.7,84.7c0,6,1.8,11.7,4.9,16.7c0-0.6-0.1-1.2-0.1-1.7
	c0,0,1.1-89,54.9-87.4h75.3c60.2,1.8,53.3,87.4,53.3,87.4c0,0.6-4.5,1-4.5,1.6c3.1-5,9.3-10.6,9.3-16.6
	C496.8,107.6,512.6,22.6,438.6,22.9z"/>
<rect x="203.7" y="392.5" fill="#6E4523" width="434.4" height="15.2"/>
<rect x="209.4" y="406.8" fill="#785328" width="424.8" height="181.2"/>
<rect x="293.8" y="280" fill="#C0C0C0" width="207.5" height="112.8"/>
<path fill="#A6A8AB" d="M414.7,326c-0.5-0.5-0.9-0.8-1.5-1c-2.8-3.7-7.8-4.2-12.2-3.7c0,0,0,0,0,0c-1-1.8-0.7-4.4-1-6.3
	c-0.2-1.3-1.4-0.7-2.3-0.3c-0.1,0.1-0.2,0.1-0.2,0.2c0.5,2.3,0.6,4.5,0.3,6.8c-1.7,0.3-3.4,0.7-4.8,1.5c-1.6,0.9-3.9,2.6-4.4,4.6
	c-0.1,0-0.1,0.1-0.2,0.1c-0.2,0.1-0.3,0.2-0.4,0.3c-2.6,3.5-3.8,7.2-2.8,11.6c1.9,8.1,6.9,13.8,14.2,17.4c3.5,1.8,6.9,1.4,9.8-1.2
	c2.8-2.4,5-5.1,6.6-8.1c-0.2,0-0.3-0.1-0.4-0.2c-0.7-0.4-1-1.2-0.8-1.9c0,0,0,0-0.1,0c-0.7-0.4-1.1-1.2-1.1-2
	c-0.1,0-0.1-0.1-0.2-0.1c-1.3-0.7-1.7-2.3-1-3.5c0.1-0.1,0.1-0.2,0.2-0.3h0c-1.4-0.8-1.9-2.5-1.1-4c0.2-0.3,0.3-0.5,0.6-0.7
	c-0.3-0.8-0.4-1.6,0.1-2.4c0.4-0.7,1.1-1.2,1.9-1.3c0.1-0.2,0.2-0.4,0.3-0.6c0.6-1.1,1.4-1.9,2.4-2.4
	C416.2,327.8,415.6,326.9,414.7,326z M398.6,318.4c0-0.7-0.1-1.3-0.2-1.9c-0.1-0.7-0.4-1.3,0.3-1.5c0.3,0,0.6,0,0.9,0
	c0,0.2,0,0.3,0.1,0.4c0.1,0.3,0.1,0.6,0.1,0.9c0.1,0.7,0.1,1.3,0.2,2c0.1,1.1,0.1,2.3,0.7,3.3c-0.7,0.1-1.4,0.2-2.2,0.3
	C398.6,320.6,398.6,319.5,398.6,318.4z M389.2,339.3c-0.3,0-0.7-0.5-1.1-0.9c0.5-0.5,0.8-0.9,1.1-1.2c0.3,0.4,0.8,0.8,0.8,1.2
	C390.1,338.7,389.5,339.3,389.2,339.3z M393.5,346c-0.2,0.2-1,0.2-1.2,0c-0.6-0.8-0.2-1.4,0.6-1.9
	C393.5,344.6,394.1,345.2,393.5,346z M394.5,335.6c0.1-0.5,0.5-0.9,0.7-1.3c0.3,0.3,0.7,0.7,1.2,1.1c-0.4,0.4-0.7,1-1,1
	C395.1,336.4,394.5,335.9,394.5,335.6z M397.7,341.3c1,0.7,1.3,1.5,0.7,1.9c-0.3,0.2-0.9,0.2-1.2,0
	C396.7,342.9,396.9,342,397.7,341.3z M399.6,351.1c-0.3,0-0.9-0.6-0.9-0.8c0.1-0.4,0.4-0.9,0.7-1.3c0.4,0.3,0.7,0.7,1.3,1.2
	C400.2,350.7,399.9,351.2,399.6,351.1z M404.8,354.7c-0.3,0.1-0.7-0.4-1.3-0.7c0.5-0.6,0.8-1,1.1-1.4c0.3,0.4,0.8,0.7,0.9,1.1
	C405.5,354,405.1,354.6,404.8,354.7z M402.5,338.4c0-0.4,0.4-0.9,0.7-1.3c0.4,0.3,0.7,0.6,1.3,1.1c-0.4,0.4-0.7,1-1,1
	C403.1,339.1,402.5,338.6,402.5,338.4z M404.7,345.8c-0.3,0.1-0.7-0.4-1.2-0.8c0.4-0.6,0.7-0.9,1-1.3c0.3,0.4,0.8,0.7,0.9,1.2
	C405.5,345.1,405,345.7,404.7,345.8z M410.4,350.1c-0.3,0.1-0.7-0.4-1.3-0.7c0.5-0.6,0.8-1,1.1-1.4c0.3,0.4,0.8,0.7,0.9,1.1
	C411.2,349.4,410.7,350,410.4,350.1z M408.3,339.4c0-0.5,0.4-0.9,0.6-1.4c0.3,0.4,0.8,0.7,1,1.2c0.1,0.3-0.3,0.7-0.6,1.4
	C408.8,340,408.3,339.7,408.3,339.4z M411.3,333.6c-0.3-0.3-0.8-0.6-0.9-1c-0.1-0.4,0.3-0.9,0.5-1.3c0.1,0,0.3,0,0.4,0
	c0.3,0.4,0.7,0.9,0.8,1.4C412.1,332.9,411.6,333.3,411.3,333.6z M412,325.1c-0.7,0.2-1.5,0.1-2.3,0.1c-0.8,0-1.5,0-2.5,0
	c1.8,1.9,2.4,4,2.4,6.4c-3.2-0.5-5.2-2.5-7.1-4.7c0.2,1.4,0.3,2.7,0.4,3.9c0.1,1.3,0,2.6-0.7,3.8c-2.8-1.5-3.7-4.1-3.9-7.3
	c-2.3,2.7-4.8,4.5-8,5.1c-0.2-3,1.3-5,3.1-6.8c-1.3,0.7-2.6,1.3-3.9,2c0.4-0.9,1.1-1.5,1.9-2.2c0.9-0.8,1.8-1.5,2.8-2
	c2.1-1,4.8-1.2,7-1.5c4-0.5,8.7-0.1,11.5,3.2C412.4,325,412.2,325,412,325.1z"/>
<path fill="#E85A29" d="M304.5,300.5c-0.1-0.4-0.1-0.4,0.3-0.5c7-2.4,14-4.8,21.1-7.3c0.4-0.1,0.4-0.1,0.5,0.3c-0.1,0.1,0,0.1,0,0.2
	c0.2,0.8,0.4,1.5,0.6,2.3c0.5,2.1,1.1,4.3,1.6,6.4c0.5,2.1,1.1,4.3,1.6,6.4c0.6,2.3,1.2,4.7,1.7,7c0,0.2,0,0.2-0.1,0.3
	c-2.6,1.8-5.2,3.5-7.8,5.3c-0.1,0.1-0.2,0.1-0.3,0.1c-3.1,0.2-6.2,0.4-9.4,0.6c-0.2,0-0.2,0-0.3-0.2c-0.4-0.9-0.8-1.8-1.2-2.8
	c-0.8-1.8-1.7-3.7-2.5-5.5c-0.9-2-1.8-4-2.7-6c-0.8-1.9-1.7-3.8-2.5-5.7C304.9,301.2,304.8,300.8,304.5,300.5z M321.2,313.5
	c0,0-0.1,0-0.1,0c-1,0.1-2,0.1-3,0.2c-0.1,0-0.2,0-0.2-0.2c-0.3-0.6-0.5-1.2-0.8-1.8c-0.1-0.2-0.1-0.2-0.3-0.1
	c-0.8,0.3-1.5,0.5-2.3,0.8c-0.3,0.1-0.3,0.1-0.2,0.4c0.5,1.2,1.1,2.4,1.6,3.6c0.1,0.2,0.2,0.3,0.4,0.3c1.9-0.1,3.9-0.2,5.8-0.4
	c0.1,0.1,0.1,0.2,0.2,0.3c0.3,0.8,0.5,1.5,0.8,2.3c0.1,0.2,0.1,0.3,0.3,0.1c0.3-0.2,0.6-0.4,0.9-0.6c1.8-1.2,3.5-2.4,5.3-3.6
	c0.1-0.1,0.2-0.2,0.1-0.4c-0.1-0.5-0.3-0.9-0.4-1.4c-0.2-0.8-0.4-1.7-0.6-2.5c-0.2-0.6-0.3-1.3-0.5-1.9c-0.2-0.7-0.3-1.3-0.5-2
	c-0.1-0.5-0.2-0.9-0.3-1.4c-0.2-0.6-0.3-1.3-0.4-1.9c-0.2-0.6-0.3-1.3-0.5-1.9c-0.2-0.9-0.4-1.7-0.6-2.6c-0.1-0.5-0.2-1-0.4-1.5
	c-0.2-0.6-0.3-1.3-0.5-1.9c-0.1-0.2-0.2-0.3-0.4-0.2c-2.8,1-5.6,1.9-8.4,2.9c-0.2,0.1-0.2,0.2-0.2,0.3c0.3,0.8,0.6,1.6,0.8,2.4
	c-0.1,0-0.2,0.1-0.3,0.1c-2.1,0.7-4.2,1.5-6.3,2.2c-0.2,0.1-0.2,0.2-0.1,0.3c0.2,0.4,0.4,0.9,0.6,1.3c0.5,1.1,1,2.3,1.5,3.4
	c0.4,1,0.9,2,1.3,3c0.1,0.1,0.2,0,0.3-0.1c1.8-0.6,3.7-1.3,5.5-1.9c0.2-0.1,0.3,0,0.4,0.2C320.3,310.8,320.8,312.1,321.2,313.5z"/>
<path fill="#F2722F" d="M316.9,300.9c-0.3-0.8-0.6-1.6-0.8-2.4c-0.1-0.2,0-0.3,0.2-0.3c2.8-0.9,5.6-1.9,8.4-2.9
	c0.2-0.1,0.3,0,0.4,0.2c0.2,0.6,0.3,1.3,0.5,1.9c0.1,0.5,0.2,1,0.4,1.5c0.2,0.9,0.4,1.7,0.6,2.6c0.2,0.6,0.3,1.3,0.5,1.9
	c0.2,0.6,0.3,1.3,0.4,1.9c0.1,0.5,0.2,0.9,0.3,1.4c0.2,0.7,0.3,1.3,0.5,2c0.2,0.6,0.3,1.3,0.5,1.9c0.2,0.8,0.4,1.7,0.6,2.5
	c0.1,0.5,0.2,0.9,0.4,1.4c0.1,0.2,0,0.3-0.1,0.4c-1.8,1.2-3.5,2.4-5.3,3.6c-0.3,0.2-0.6,0.4-0.9,0.6c-0.2,0.2-0.2,0.1-0.3-0.1
	c-0.3-0.8-0.5-1.5-0.8-2.3c0-0.1-0.1-0.2-0.2-0.3c0,0,0,0,0.1,0c0,0,0,0,0.1,0c1.6-1.1,3.3-2.3,4.9-3.4c0.1-0.1,0.1-0.1,0.1-0.2
	c-0.1-0.3-0.2-0.7-0.3-1.1c-0.3-1.2-0.6-2.4-0.9-3.6s-0.6-2.4-0.9-3.6c-0.1-0.2-0.1-0.3-0.3-0.2c-1.9,0.7-3.9,1.3-5.9,2
	c-0.1,0-0.2,0.1-0.2,0.1v0c-0.3-0.9-0.6-1.8-0.9-2.8v0c2.2-0.7,4.3-1.5,6.5-2.2c0.1-0.1,0.2-0.1,0.1-0.2c-0.2-0.8-0.4-1.6-0.6-2.4
	c-0.1-0.2-0.1-0.2-0.3-0.2c-1.1,0.4-2.3,0.8-3.4,1.2C319,300.2,317.9,300.5,316.9,300.9L316.9,300.9z"/>
<path fill="#EEECEB" d="M313.6,311.3c-0.4-1-0.9-2-1.3-3c-0.5-1.1-1-2.3-1.5-3.4c-0.2-0.4-0.4-0.9-0.6-1.3c-0.1-0.2-0.1-0.3,0.1-0.3
	c2.1-0.7,4.2-1.4,6.3-2.2c0.1,0,0.2-0.1,0.3-0.1v0c0.3,0.9,0.6,1.8,0.9,2.7v0c-1.2,0.4-2.5,0.8-3.7,1.3c-0.1,0-0.1,0.1-0.1,0.2
	c0.4,0.8,0.7,1.6,1.1,2.4c0.1,0.1,0.1,0.1,0.2,0.1c1.2-0.4,2.3-0.8,3.5-1.2v0c0.3,0.9,0.6,1.8,0.9,2.7c-0.1,0-0.2,0.1-0.3,0.1
	c-1.9,0.6-3.7,1.3-5.6,1.9C313.8,311.2,313.7,311.2,313.6,311.3z"/>
<path fill="#EEECEB" d="M322.2,316.3C322.2,316.3,322.2,316.4,322.2,316.3c-2,0.2-3.9,0.3-5.9,0.4c-0.3,0-0.4-0.1-0.4-0.3
	c-0.5-1.2-1.1-2.4-1.6-3.6c-0.1-0.3-0.1-0.3,0.2-0.4c0.8-0.3,1.5-0.5,2.3-0.8c0.2-0.1,0.2,0,0.3,0.1c0.3,0.6,0.5,1.2,0.8,1.8
	c0.1,0.1,0.1,0.2,0.2,0.2c1-0.1,2-0.1,3-0.2c0,0,0.1,0,0.1,0v0C321.6,314.5,321.9,315.4,322.2,316.3z"/>
<path fill="#F27231" d="M313.6,311.3c0.1,0,0.2-0.1,0.3-0.1c1.9-0.6,3.7-1.3,5.6-1.9c0.1,0,0.2-0.1,0.3-0.1c1-0.3,2-0.7,3.1-1.1
	c0.2-0.1,0.3-0.1,0.4,0.2c0.2,1.1,0.5,2.1,0.8,3.2c0.1,0.2,0,0.2-0.1,0.3c-0.9,0.6-1.7,1.2-2.6,1.7v0c-0.4-1.3-0.9-2.7-1.4-4
	c-0.1-0.2-0.2-0.3-0.4-0.2c-1.8,0.7-3.7,1.3-5.5,1.9C313.8,311.3,313.7,311.3,313.6,311.3z"/>
<path fill="#FFFFFF" d="M321.2,313.5c0.9-0.6,1.7-1.2,2.6-1.7c0.1-0.1,0.2-0.2,0.1-0.3c-0.3-1.1-0.5-2.1-0.8-3.2
	c-0.1-0.2-0.1-0.3-0.4-0.2c-1,0.4-2,0.7-3.1,1.1c-0.3-0.9-0.6-1.8-0.9-2.7c0.1,0,0.2-0.1,0.2-0.1c1.9-0.7,3.9-1.3,5.9-2
	c0.2-0.1,0.3,0,0.3,0.2c0.3,1.2,0.6,2.4,0.9,3.6c0.3,1.2,0.6,2.4,0.9,3.6c0.1,0.3,0.2,0.7,0.3,1.1c0,0.1,0,0.2-0.1,0.2
	c-1.6,1.1-3.3,2.3-4.9,3.4c0,0,0,0-0.1,0C321.9,315.4,321.6,314.5,321.2,313.5z"/>
<path fill="#FFFFFF" d="M317.8,303.6c-0.3-0.9-0.6-1.8-0.9-2.7c1.1-0.4,2.1-0.7,3.2-1.1c1.2-0.4,2.3-0.8,3.4-1.2
	c0.2-0.1,0.2,0,0.3,0.2c0.2,0.8,0.4,1.6,0.6,2.4c0,0.1,0,0.2-0.1,0.2C322.1,302.2,320,302.9,317.8,303.6z"/>
<path fill="#E85A29" d="M318.8,306.4c-1.2,0.4-2.3,0.8-3.5,1.2c-0.1,0-0.2,0-0.2-0.1c-0.4-0.8-0.7-1.6-1.1-2.4
	c-0.1-0.1,0-0.2,0.1-0.2c1.2-0.4,2.5-0.8,3.7-1.3C318.1,304.6,318.5,305.5,318.8,306.4z"/>
<path fill="#1A7EBD" d="M465.5,343.4c0.1-0.3,0.2-0.6,0.3-0.8c0.2,0.1,0.4,0.2,0.7,0.2c8.6,3.3,17.2,6.5,25.9,9.8
	c0.8,0.3,0.8,0.3,0.4,1c-2,4.1-4,8.2-6,12.4c-2.2,4.4-4.3,8.9-6.4,13.3c-0.1,0.3-0.3,0.4-0.6,0.4c-3.9-0.4-7.7-0.7-11.6-1.1
	c-0.2,0-0.3-0.1-0.4-0.2c-3.2-2.3-6.4-4.7-9.5-7c-0.2-0.1-0.2-0.2-0.2-0.4c0.6-2,1.1-4.1,1.7-6.1c0.8-3,1.7-6,2.5-9
	c1-3.5,1.9-6.9,2.9-10.4C465.2,344.8,465.5,344.1,465.5,343.4z M474.8,360c-1.2-0.4-2.5-0.9-3.7-1.4c-0.3-0.1-0.4-0.1-0.5,0.2
	c-0.2,0.9-0.5,1.8-0.8,2.7c-0.1,0.4,0,0.5,0.4,0.7c1.1,0.4,2.2,0.8,3.3,1.3c-0.7,1.8-1.4,3.6-2,5.4c-1.1-0.7-2.2-1.5-3.3-2.3
	c-0.2-0.1-0.2-0.3-0.1-0.4c0.2-0.7,0.4-1.4,0.6-2.2c0.1-0.3,0.1-0.4-0.2-0.5c-0.9-0.3-1.8-0.7-2.7-1c-0.3-0.1-0.4-0.1-0.4,0.2
	c-0.4,1.6-0.9,3.2-1.4,4.8c-0.1,0.3,0,0.5,0.2,0.7c2,1.4,4,2.9,5.9,4.4c-0.4,1.1-0.8,2.2-1.2,3.3c-0.2,0.5,0,0.5,0.4,0.6
	c2.9,0.3,5.9,0.5,8.8,0.8c0.4,0.1,0.7-0.1,0.8-0.5c0.5-1.2,1.1-2.3,1.7-3.5c0.8-1.5,1.5-3.1,2.3-4.6c0.5-1.1,1-2.2,1.6-3.3
	c0.7-1.5,1.5-3.1,2.2-4.6c0.4-0.8,0.8-1.6,1.2-2.5c0.6-1.2,1.2-2.4,1.7-3.6c0.2-0.3,0.1-0.4-0.2-0.6c-3.4-1.3-6.9-2.6-10.3-3.9
	c-0.3-0.1-0.4-0.1-0.6,0.2c-0.3,0.9-0.7,1.9-1.1,2.8c-0.2-0.1-0.4-0.1-0.6-0.2c-2.5-0.9-5-1.9-7.5-2.9c-0.3-0.1-0.5-0.1-0.6,0.3
	c-0.3,1-0.6,2-0.8,3.1c0.1,0.2,0.3,0.2,0.4,0.2c2.4,0.9,4.8,1.8,7.2,2.7c0.2,0.1,0.3,0.2,0.5,0.1c0.1,0,0.1,0.1,0.2,0.1
	C475.6,357.7,475.2,358.8,474.8,360z"/>
<path fill="#3CB0DF" d="M477.4,353.1c0.3-0.9,0.7-1.9,1.1-2.8c0.1-0.3,0.2-0.4,0.6-0.2c3.4,1.3,6.9,2.6,10.3,3.9
	c0.3,0.1,0.4,0.3,0.2,0.6c-0.6,1.2-1.2,2.4-1.7,3.6c-0.4,0.8-0.8,1.6-1.2,2.5c-0.7,1.5-1.5,3.1-2.2,4.6c-0.5,1.1-1.1,2.2-1.6,3.3
	c-0.8,1.5-1.5,3.1-2.3,4.6c-0.6,1.2-1.1,2.3-1.7,3.5c-0.2,0.4-0.4,0.6-0.8,0.5c-2.9-0.3-5.9-0.6-8.8-0.8c-0.4,0-0.6-0.1-0.4-0.6
	c0.4-1.1,0.8-2.2,1.2-3.3l0-0.1c0.1,0,0.1,0.1,0.2,0.1c2.3,0.2,4.6,0.4,6.9,0.7c0.5,0.1,0.8-0.1,0.9-0.6c0.4-0.8,0.8-1.7,1.2-2.5
	c0.9-1.9,1.8-3.7,2.7-5.6c0.7-1.5,1.5-3,2.2-4.5c0.6-1.2,1.1-2.4,1.7-3.6c0-0.1,0-0.1-0.1-0.1c-1.5-0.6-3-1.2-4.5-1.7
	C480,354.2,478.6,353.7,477.4,353.1C477.4,353.1,477.4,353.1,477.4,353.1z"/>
<path fill="#EBECED" d="M470.1,372.5c-2-1.4-3.9-2.9-5.9-4.4c-0.2-0.2-0.3-0.3-0.2-0.7c0.5-1.6,0.9-3.2,1.4-4.8
	c0.1-0.3,0.2-0.4,0.4-0.2c0.9,0.4,1.8,0.7,2.7,1c0.3,0.1,0.3,0.2,0.2,0.5c-0.2,0.7-0.4,1.4-0.6,2.2c-0.1,0.2-0.1,0.3,0.1,0.4
	c1.1,0.8,2.1,1.6,3.3,2.3l0,0.1C471,370.1,470.5,371.3,470.1,372.5L470.1,372.5z"/>
<path fill="#EBECED" d="M467.9,353.4c0.3-1,0.6-2,0.8-3.1c0.1-0.4,0.3-0.4,0.6-0.3c2.5,1,5,1.9,7.5,2.9c0.2,0.1,0.4,0.1,0.6,0.2
	c0,0,0,0,0,0.1c-0.4,1.1-0.8,2.2-1.3,3.3c0,0,0,0,0,0.1c-0.1,0-0.1-0.1-0.2-0.1c-0.2-0.1-0.4-0.2-0.5-0.2
	C472.9,355.3,470.4,354.4,467.9,353.4z"/>
<path fill="#3CB0DF" d="M471.4,368.8c0.7-1.8,1.4-3.6,2-5.4c0,0,0,0,0-0.1c0.2,0.1,0.3,0.2,0.5,0.2c1.1,0.4,2.1,0.8,3.2,1.2
	c0.3,0.1,0.5,0.2,0.3,0.6c-0.6,1.1-1.1,2.3-1.7,3.4c-0.1,0.3-0.3,0.4-0.7,0.3C473.9,369.1,472.7,369,471.4,368.8L471.4,368.8z"/>
<path fill="#3CB0DF" d="M474.8,360c0.4-1.2,0.9-2.3,1.3-3.4c0,0,0,0,0-0.1c0.1,0,0.1,0.1,0.2,0.1c1.4,0.5,2.8,1.1,4.2,1.6
	c0.3,0.1,0.4,0.2,0.3,0.5c-0.4,0.9-0.9,1.8-1.3,2.7c-0.1,0.3-0.3,0.3-0.5,0.2c-0.9-0.4-1.9-0.7-2.8-1
	C475.7,360.4,475.3,360.1,474.8,360C474.7,360.1,474.8,360,474.8,360z"/>
<path fill="#EBECED" d="M473.4,363.5c-1.1-0.4-2.2-0.9-3.3-1.3c-0.4-0.1-0.5-0.3-0.4-0.7c0.3-0.9,0.6-1.8,0.8-2.7
	c0.1-0.3,0.2-0.3,0.5-0.2c1.2,0.5,2.5,0.9,3.7,1.4c0,0,0,0.1,0,0.1C474.3,361.2,473.9,362.3,473.4,363.5
	C473.5,363.4,473.4,363.5,473.4,363.5z"/>
<path fill="#3CB0DF" d="M467.9,353.4c2.5,0.9,5,1.9,7.5,2.8c0.2,0.1,0.4,0.2,0.5,0.2c-0.2,0.1-0.3-0.1-0.5-0.1
	c-2.4-0.9-4.8-1.8-7.2-2.7C468.1,353.6,467.9,353.6,467.9,353.4z"/>
<path fill="#FCFDFF" d="M473.5,363.4c0.4-1.1,0.8-2.2,1.3-3.4c0.5,0.1,0.9,0.3,1.4,0.4c0.9,0.3,1.9,0.7,2.8,1.1
	c0.2,0.1,0.4,0.1,0.5-0.2c0.4-0.9,0.9-1.8,1.3-2.7c0.2-0.3,0-0.4-0.3-0.5c-1.4-0.5-2.8-1.1-4.2-1.6c-0.1,0-0.1-0.1-0.2-0.1
	c0.4-1.1,0.8-2.2,1.3-3.3c1.3,0.5,2.6,1,3.9,1.5c1.5,0.6,3,1.2,4.5,1.7c0,0,0,0.1,0.1,0.1c-0.6,1.2-1.1,2.4-1.7,3.6
	c-0.7,1.5-1.4,3-2.2,4.5c-0.9,1.9-1.8,3.7-2.7,5.6c-0.4,0.8-0.8,1.6-1.2,2.5c-0.2,0.4-0.4,0.6-0.9,0.6c-2.3-0.2-4.6-0.4-6.9-0.7
	c-0.1,0-0.1,0-0.2-0.1c0.4-1.2,0.9-2.3,1.3-3.5c1.3,0.1,2.5,0.2,3.8,0.4c0.3,0,0.5-0.1,0.7-0.3c0.5-1.2,1.1-2.3,1.7-3.4
	c0.2-0.4,0.1-0.5-0.3-0.6c-1.1-0.4-2.1-0.8-3.2-1.2C473.8,363.6,473.6,363.5,473.5,363.4z"/>
<path fill="#EBECED" d="M485.8,356.4C485.8,356.4,485.8,356.4,485.8,356.4C485.8,356.3,485.9,356.4,485.8,356.4z"/>
<rect x="226" y="332" transform="matrix(-1 -1.927526e-03 1.927526e-03 -1 479.9881 668.4049)" fill="#333366" width="28.7" height="3.9"/>
<rect x="224.5" y="334.2" transform="matrix(-1 -1.927526e-03 1.927526e-03 -1 480.0103 672.7101)" fill="#2D2D59" width="31.7" height="3.9"/>
<rect x="224.4" y="337.8" transform="matrix(-1 -1.927526e-03 1.927526e-03 -1 479.7706 730.7232)" fill="#333366" width="31.7" height="54.6"/>
<rect x="223.1" y="390.8" transform="matrix(-1 -1.927526e-03 1.927526e-03 -1 479.6648 785.9541)" fill="#333366" width="34.2" height="3.9"/>
<rect x="223.2" y="336.5" transform="matrix(-1 -1.927526e-03 1.927526e-03 -1 479.9794 677.4351)" fill="#333366" width="34.2" height="3.9"/>
<rect x="228.3" y="340.7" transform="matrix(-1 -1.927526e-03 1.927526e-03 -1 466.1302 693.2508)" fill="#D0D0D1" width="10.1" height="11.4"/>
<rect x="242.2" y="340.7" transform="matrix(-1 -1.927526e-03 1.927526e-03 -1 493.7981 693.3299)" fill="#D0D0D1" width="10.1" height="11.4"/>
<rect x="228.3" y="353.5" transform="matrix(-1 -1.927526e-03 1.927526e-03 -1 466.0005 718.871)" fill="#2D2D59" width="10.1" height="11.4"/>
<rect x="242.1" y="353.5" transform="matrix(-1 -1.927526e-03 1.927526e-03 -1 493.6684 718.9501)" fill="#2D2D59" width="10.1" height="11.4"/>
<rect x="228.3" y="366.3" transform="matrix(-1 -1.927526e-03 1.927526e-03 -1 465.9233 744.5439)" fill="#2D2D59" width="10.1" height="11.4"/>
<rect x="242.1" y="366.4" transform="matrix(-1 -1.927526e-03 1.927526e-03 -1 493.5912 744.623)" fill="#2D2D59" width="10.1" height="11.4"/>
<rect x="228.2" y="379.2" transform="matrix(-1 -1.927526e-03 1.927526e-03 -1 465.8461 770.2167)" fill="#2D2D59" width="10.1" height="11.4"/>
<rect x="242.1" y="379.2" transform="matrix(-1 -1.927526e-03 1.927526e-03 -1 493.514 770.2958)" fill="#2D2D59" width="10.1" height="11.4"/>
<rect x="238.3" y="328.9" transform="matrix(1 1.927522e-03 -1.927522e-03 1 0.6371 -0.4624)" fill="#DFD7B5" width="3.8" height="2.9"/>
<rect x="238.3" y="329" fill="#333366" width="0.2" height="2.6"/>
<rect x="241.9" y="329" fill="#333366" width="0.2" height="2.6"/>
<rect x="238.1" y="331.5" transform="matrix(-1 -1.927526e-03 1.927526e-03 -1 479.7558 664.3358)" fill="#333366" width="4.3" height="0.9"/>
<path fill="#333366" d="M242.4,329h-4.3v-0.9c0.2-0.2,0.9-0.6,2-0.6c1.2,0,2,0.5,2.3,0.6C242.4,328.4,242.4,328.7,242.4,329z"/>
<rect x="231.5" y="340.5" fill="#333366" width="0.3" height="11.7"/>
<rect x="235" y="340.6" fill="#333366" width="0.3" height="11.7"/>
<rect x="245.4" y="340.6" fill="#333366" width="0.3" height="11.7"/>
<rect x="248.8" y="340.6" fill="#333366" width="0.3" height="11.7"/>
<rect x="227.7" y="346.3" fill="#333366" width="25.4" height="0.3"/>
<rect x="214.5" y="365.1" transform="matrix(1.927569e-03 -1 1 1.927569e-03 -126.013 604.9514)" fill="#2D2D59" width="51.2" height="1"/>
<path fill="#7A7B7B" d="M241.5,361h-0.4l0,0v-3.4l0,0h0.4l0,0V361L241.5,361z"/>
<path fill="#7A7B7B" d="M238,361h-0.4l0,0v-3.4l0,0h0.4l0,0V361L238,361z"/>
<circle fill="#7A7B7B" cx="241.4" cy="365.7" r="0.4"/>
<polygon fill="#4C4C4D" points="241.5,365.5 241.4,365.5 241.4,365.5 241.4,366 241.4,366 241.5,366 241.5,366 241.5,365.5 "/>
<rect x="228.8" y="354.4" transform="matrix(-1 -1.927526e-03 1.927526e-03 -1 465.3705 718.8704)" fill="#E1E1E1" width="8.5" height="9.6"/>
<path d="M229.3,355v0.2c0,0,0,0.1,0,0.1s0,0,0.1,0h0v0h-0.2v0h0c0,0,0.1,0,0.1,0c0,0,0,0,0-0.1v-0.3c0,0,0-0.1,0-0.1s0,0-0.1,0h0v0
	h0.2c0.1,0,0.1,0,0.1,0c0,0,0.1,0,0.1,0.1c0,0,0,0.1,0,0.1c0,0.1,0,0.1-0.1,0.1C229.5,355,229.4,355.1,229.3,355
	C229.4,355.1,229.4,355.1,229.3,355C229.3,355.1,229.3,355.1,229.3,355z M229.3,355C229.3,355,229.3,355,229.3,355L229.3,355
	c0.1,0,0.1,0,0.1,0c0,0,0-0.1,0-0.1c0,0,0-0.1,0-0.1c0,0,0,0-0.1-0.1c0,0,0,0-0.1,0c0,0,0,0-0.1,0L229.3,355z"/>
<path d="M229.9,354.7c0.1,0,0.1,0,0.2,0.1c0.1,0.1,0.1,0.1,0.1,0.2s0,0.2-0.1,0.2c-0.1,0.1-0.1,0.1-0.2,0.1s-0.1,0-0.2-0.1
	c-0.1-0.1-0.1-0.1-0.1-0.2s0-0.2,0.1-0.2S229.8,354.7,229.9,354.7z M229.9,354.8c-0.1,0-0.1,0-0.1,0.1c0,0.1-0.1,0.1-0.1,0.2
	c0,0.1,0,0.2,0.1,0.2c0,0,0.1,0.1,0.1,0.1c0.1,0,0.1,0,0.1-0.1c0-0.1,0.1-0.1,0.1-0.2c0-0.1,0-0.2-0.1-0.2
	C230,354.8,229.9,354.8,229.9,354.8z"/>
<path d="M230.7,355.2L230.7,355.2l0,0.2h-0.4v0h0c0,0,0,0,0.1,0c0,0,0,0,0-0.1v-0.3c0,0,0-0.1,0-0.1s0,0-0.1,0h0v0h0.2v0
	c0,0-0.1,0-0.1,0s0,0,0,0c0,0,0,0,0,0.1v0.3c0,0,0,0,0,0.1c0,0,0,0,0,0c0,0,0,0,0.1,0h0.1c0.1,0,0.1,0,0.1,0
	C230.6,355.3,230.6,355.2,230.7,355.2C230.6,355.2,230.7,355.2,230.7,355.2z"/>
<path d="M230.9,355.3L230.9,355.3l-0.2,0v0h0c0,0,0,0,0.1,0c0,0,0,0,0-0.1v-0.3c0,0,0-0.1,0-0.1s0,0,0,0h0h0v0h0.2v0h0
	c0,0,0,0-0.1,0c0,0,0,0,0,0.1L230.9,355.3C230.9,355.2,230.9,355.3,230.9,355.3C230.9,355.3,230.9,355.3,230.9,355.3
	C230.9,355.3,230.9,355.3,230.9,355.3L230.9,355.3z"/>
<path d="M231.4,354.7v0.2l0,0C231.4,354.9,231.4,354.8,231.4,354.7c-0.1,0-0.2,0-0.2,0c0,0-0.1,0-0.1,0s-0.1,0.1-0.1,0.1
	c0,0.1,0,0.1,0,0.2c0,0.1,0,0.1,0,0.1c0,0,0,0.1,0.1,0.1c0,0,0.1,0,0.1,0c0,0,0.1,0,0.1,0c0,0,0.1-0.1,0.1-0.1l0,0
	c0,0.1-0.1,0.1-0.1,0.1c0,0-0.1,0-0.1,0c-0.1,0-0.2,0-0.2-0.1c0-0.1-0.1-0.1-0.1-0.2c0-0.1,0-0.1,0-0.2c0-0.1,0.1-0.1,0.1-0.1
	c0.1,0,0.1,0,0.1,0c0,0,0.1,0,0.1,0h0H231.4C231.4,354.8,231.4,354.8,231.4,354.7L231.4,354.7z"/>
<path d="M231.7,354.8v0.2h0.1c0,0,0.1,0,0.1,0c0,0,0,0,0-0.1h0v0.2h0c0,0,0-0.1,0-0.1s0,0,0,0c0,0,0,0-0.1,0h-0.1v0.2c0,0,0,0,0,0.1
	l0,0h0h0.1c0,0,0.1,0,0.1,0c0,0,0,0,0.1,0c0,0,0-0.1,0.1-0.1h0l-0.1,0.1h-0.4v0h0h0c0,0,0,0,0,0c0,0,0,0,0-0.1L231.7,354.8
	C231.6,354.8,231.6,354.8,231.7,354.8c-0.1,0-0.1,0-0.1,0h0v0h0.4v0.1h0c0,0,0-0.1,0-0.1l0,0c0,0,0,0-0.1,0L231.7,354.8z"/>
<path d="M232.7,354.8v0.1h0C232.7,354.9,232.7,354.9,232.7,354.8C232.7,354.8,232.6,354.8,232.7,354.8c-0.1,0.1-0.1,0.1-0.1,0.1
	h-0.1v0.4c0,0,0,0.1,0,0.1s0,0,0.1,0h0v0h-0.2v0h0c0,0,0,0,0.1,0c0,0,0,0,0-0.1v-0.4h-0.1c0,0-0.1,0-0.1,0c0,0,0,0,0,0
	c0,0,0,0,0,0.1h0v-0.1H232.7z"/>
<path d="M232.9,354.8v0.2h0.1c0,0,0.1,0,0.1,0c0,0,0,0,0-0.1h0v0.2h0c0,0,0-0.1,0-0.1s0,0,0,0c0,0,0,0-0.1,0h-0.1v0.2c0,0,0,0,0,0.1
	l0,0h0h0.1c0,0,0.1,0,0.1,0c0,0,0,0,0.1,0s0-0.1,0.1-0.1h0l-0.1,0.1h-0.4v0h0h0c0,0,0,0,0,0c0,0,0,0,0-0.1L232.9,354.8
	C232.8,354.8,232.8,354.8,232.9,354.8c-0.1,0-0.1,0-0.1,0h0v0h0.4v0.1h0c0,0,0-0.1,0-0.1l0,0c0,0,0,0-0.1,0L232.9,354.8z"/>
<path d="M233.7,355.2L233.7,355.2l0,0.2h-0.4v0h0c0,0,0,0,0.1,0c0,0,0,0,0-0.1v-0.3c0,0,0-0.1,0-0.1s0,0-0.1,0h0v0h0.2v0
	c0,0-0.1,0-0.1,0s0,0,0,0c0,0,0,0,0,0.1v0.3c0,0,0,0,0,0.1c0,0,0,0,0,0c0,0,0,0,0.1,0h0.1c0.1,0,0.1,0,0.1,0
	C233.6,355.3,233.6,355.2,233.7,355.2C233.6,355.2,233.6,355.2,233.7,355.2z"/>
<path d="M233.9,354.8v0.2h0.1c0,0,0.1,0,0.1,0c0,0,0,0,0-0.1h0v0.2h0c0,0,0-0.1,0-0.1s0,0,0,0c0,0,0,0-0.1,0h-0.1v0.2c0,0,0,0,0,0.1
	l0,0h0h0.1c0,0,0.1,0,0.1,0c0,0,0,0,0.1,0c0,0,0-0.1,0.1-0.1h0l-0.1,0.1h-0.4v0h0h0c0,0,0,0,0,0c0,0,0,0,0-0.1L233.9,354.8
	C233.8,354.8,233.8,354.8,233.9,354.8c-0.1,0-0.1,0-0.1,0h0v0h0.4v0.1h0c0,0,0-0.1,0-0.1l0,0c0,0,0,0-0.1,0L233.9,354.8z"/>
<path d="M234.4,355.1v0.2c0,0,0,0.1,0,0.1s0,0,0.1,0h0v0h-0.2v0h0c0,0,0.1,0,0.1,0c0,0,0,0,0-0.1v-0.3c0,0,0-0.1,0-0.1s0,0-0.1,0h0
	v0h0.2c0.1,0,0.1,0,0.1,0c0,0,0.1,0,0.1,0.1c0,0,0,0.1,0,0.1c0,0.1,0,0.1-0.1,0.1S234.5,355.1,234.4,355.1
	C234.4,355.1,234.4,355.1,234.4,355.1C234.4,355.1,234.4,355.1,234.4,355.1z M234.4,355C234.4,355,234.4,355,234.4,355L234.4,355
	c0.1,0,0.1,0,0.1,0c0,0,0-0.1,0-0.1c0,0,0-0.1,0-0.1c0,0,0,0-0.1-0.1c0,0,0,0-0.1,0c0,0,0,0-0.1,0L234.4,355z"/>
<path d="M234.8,355h0.3v-0.2c0,0,0-0.1,0-0.1s0,0,0,0h0h0v0h0.2v0h0h0c0,0,0,0,0,0c0,0,0,0,0,0.1v0.3c0,0,0,0.1,0,0.1s0,0,0,0h0h0v0
	H235v0h0c0,0,0,0,0.1,0c0,0,0,0,0-0.1V355L234.8,355v0.2c0,0,0,0.1,0,0.1s0,0,0,0h0h0v0h-0.2v0h0c0,0,0,0,0.1,0c0,0,0,0,0-0.1v-0.3
	c0,0,0-0.1,0-0.1s0,0,0,0h0h0v0h0.2v0h0h0c0,0,0,0,0,0c0,0,0,0,0,0.1V355z"/>
<path d="M235.5,354.7c0.1,0,0.1,0,0.2,0.1c0.1,0.1,0.1,0.1,0.1,0.2s0,0.2-0.1,0.2c-0.1,0.1-0.1,0.1-0.2,0.1s-0.1,0-0.2-0.1
	c-0.1-0.1-0.1-0.1-0.1-0.2s0-0.2,0.1-0.2C235.4,354.8,235.5,354.7,235.5,354.7z M235.5,354.8c-0.1,0-0.1,0-0.1,0.1
	c0,0.1-0.1,0.1-0.1,0.2c0,0.1,0,0.2,0.1,0.2c0,0,0.1,0.1,0.1,0.1c0.1,0,0.1,0,0.1-0.1c0-0.1,0.1-0.1,0.1-0.2c0-0.1,0-0.2-0.1-0.2
	C235.6,354.8,235.6,354.8,235.5,354.8z"/>
<path d="M235.8,354.8h0.2l0.3,0.4v-0.3c0,0,0-0.1,0-0.1s0,0-0.1,0h0v0h0.2v0h0c0,0,0,0-0.1,0c0,0,0,0,0,0.1v0.4h0l-0.4-0.4v0.3
	c0,0,0,0.1,0,0.1s0,0,0.1,0h0v0h-0.2v0h0c0,0,0.1,0,0.1,0c0,0,0,0,0-0.1v-0.4C235.9,354.8,235.9,354.8,235.8,354.8
	C235.9,354.8,235.9,354.8,235.8,354.8C235.9,354.8,235.9,354.8,235.8,354.8L235.8,354.8z"/>
<path d="M236.6,354.8v0.2h0.1c0,0,0.1,0,0.1,0c0,0,0,0,0-0.1h0v0.2h0c0,0,0-0.1,0-0.1s0,0,0,0c0,0,0,0-0.1,0h-0.1v0.2c0,0,0,0,0,0.1
	l0,0h0h0.1c0,0,0.1,0,0.1,0c0,0,0,0,0.1,0c0,0,0-0.1,0.1-0.1h0l-0.1,0.1h-0.4v0h0h0c0,0,0,0,0,0c0,0,0,0,0-0.1L236.6,354.8
	C236.6,354.8,236.6,354.8,236.6,354.8c-0.1,0-0.1,0-0.1,0h0v0h0.4v0.1h0c0,0,0-0.1,0-0.1l0,0c0,0,0,0-0.1,0L236.6,354.8z"/>
<path d="M231.2,356v0.5h0.2c0.1,0,0.1,0,0.1,0c0,0,0-0.1,0.1-0.1h0v0.4h0c0-0.1,0-0.1,0-0.1c0,0,0,0-0.1-0.1s-0.1,0-0.1,0h-0.2v0.4
	c0,0.1,0,0.1,0,0.1s0,0,0,0c0,0,0.1,0,0.1,0h0.1v0h-0.5v0h0.1c0.1,0,0.1,0,0.1-0.1s0-0.1,0-0.1v-0.8c0-0.1,0-0.1,0-0.1s0,0,0,0
	c0,0-0.1,0-0.1,0h-0.1v0h0.9v0.3h0c0-0.1,0-0.1-0.1-0.1c0,0-0.1-0.1-0.1-0.1c0,0-0.1,0-0.1,0L231.2,356z"/>
<path d="M233,357.2h-0.3l-0.4-0.6c0,0-0.1,0-0.1,0h0h0v0.3c0,0.1,0,0.1,0,0.1c0,0,0.1,0,0.1,0h0.1v0h-0.5v0h0.1c0.1,0,0.1,0,0.1-0.1
	c0,0,0-0.1,0-0.1v-0.8c0-0.1,0-0.1,0-0.1c0,0-0.1,0-0.1,0h-0.1v0h0.4c0.1,0,0.2,0,0.3,0c0.1,0,0.1,0.1,0.2,0.1s0.1,0.1,0.1,0.2
	c0,0.1,0,0.1-0.1,0.2c-0.1,0.1-0.1,0.1-0.2,0.1l0.2,0.3c0.1,0.1,0.1,0.1,0.1,0.2C232.9,357.1,233,357.1,233,357.2L233,357.2z
	 M232.2,356.5L232.2,356.5L232.2,356.5c0.2,0,0.3,0,0.3-0.1s0.1-0.1,0.1-0.2c0-0.1,0-0.1-0.1-0.2s-0.1-0.1-0.2-0.1c0,0-0.1,0-0.1,0
	V356.5z"/>
<path d="M233.4,356v0.5h0.3c0.1,0,0.1,0,0.1,0c0,0,0.1-0.1,0.1-0.1h0v0.4h0c0-0.1,0-0.1,0-0.1c0,0,0,0-0.1-0.1c0,0-0.1,0-0.1,0h-0.3
	v0.4c0,0.1,0,0.1,0,0.1s0,0,0,0c0,0,0,0,0.1,0h0.2c0.1,0,0.1,0,0.2,0s0.1,0,0.1-0.1c0,0,0.1-0.1,0.1-0.2h0l-0.1,0.3h-0.9v0h0.1
	c0,0,0.1,0,0.1,0c0,0,0,0,0-0.1s0-0.1,0-0.1v-0.8c0-0.1,0-0.1,0-0.1c0,0-0.1,0-0.1,0H233v0h0.9v0.3h0c0-0.1,0-0.1-0.1-0.1
	c0,0,0-0.1-0.1-0.1c0,0-0.1,0-0.1,0L233.4,356z"/>
<path d="M234.5,356v0.5h0.3c0.1,0,0.1,0,0.1,0c0,0,0.1-0.1,0.1-0.1h0v0.4h0c0-0.1,0-0.1,0-0.1c0,0,0,0-0.1-0.1c0,0-0.1,0-0.1,0h-0.3
	v0.4c0,0.1,0,0.1,0,0.1s0,0,0,0c0,0,0,0,0.1,0h0.2c0.1,0,0.1,0,0.2,0c0,0,0.1,0,0.1-0.1c0,0,0.1-0.1,0.1-0.2h0l-0.1,0.3h-0.9v0h0.1
	c0,0,0.1,0,0.1,0c0,0,0,0,0-0.1s0-0.1,0-0.1v-0.8c0-0.1,0-0.1,0-0.1c0,0-0.1,0-0.1,0h-0.1v0h0.9v0.3h0c0-0.1,0-0.1-0.1-0.1
	c0,0,0-0.1-0.1-0.1c0,0-0.1,0-0.1,0L234.5,356z"/>
<path d="M230.6,357.4v0.2h0.1c0,0,0.1,0,0.1,0c0,0,0,0,0-0.1h0v0.2h0c0,0,0-0.1,0-0.1l0,0c0,0,0,0-0.1,0h-0.1v0.2c0,0,0,0.1,0,0.1
	s0,0,0,0c0,0,0,0,0.1,0h0v0h-0.3v0h0c0,0,0.1,0,0.1,0c0,0,0,0,0-0.1L230.6,357.4C230.5,357.4,230.5,357.4,230.6,357.4
	c-0.1,0-0.1,0-0.1,0c0,0,0,0-0.1,0h0v0h0.4v0.1h0c0,0,0-0.1,0-0.1l0,0c0,0,0,0-0.1,0L230.6,357.4z"/>
<path d="M231.2,357.3c0.1,0,0.1,0,0.2,0.1c0.1,0.1,0.1,0.1,0.1,0.2s0,0.2-0.1,0.2c-0.1,0.1-0.1,0.1-0.2,0.1s-0.2,0-0.2-0.1
	c-0.1-0.1-0.1-0.1-0.1-0.2c0-0.1,0-0.2,0.1-0.2C231.1,357.4,231.2,357.3,231.2,357.3z M231.2,357.4c-0.1,0-0.1,0-0.1,0.1
	c-0.1,0.1-0.1,0.1-0.1,0.2c0,0.1,0,0.2,0.1,0.2c0,0.1,0.1,0.1,0.1,0.1s0.1,0,0.1-0.1c0-0.1,0.1-0.1,0.1-0.2c0-0.1,0-0.2-0.1-0.2
	C231.3,357.4,231.3,357.4,231.2,357.4z"/>
<path d="M232.2,358H232l-0.2-0.3c0,0,0,0,0,0l0,0c0,0,0,0,0,0v0.2c0,0,0,0.1,0,0.1c0,0,0,0,0.1,0h0v0h-0.3v0h0c0,0,0.1,0,0.1,0
	c0,0,0,0,0-0.1v-0.4c0,0,0-0.1,0-0.1c0,0,0,0-0.1,0h0v0h0.2c0.1,0,0.1,0,0.1,0c0,0,0.1,0,0.1,0.1c0,0,0,0.1,0,0.1c0,0,0,0.1,0,0.1
	c0,0-0.1,0.1-0.1,0.1l0.1,0.2C232,357.8,232,357.9,232.2,358C232.1,357.9,232.1,357.9,232.2,358L232.2,358z M231.7,357.7
	C231.8,357.7,231.8,357.7,231.7,357.7C231.8,357.7,231.8,357.7,231.7,357.7c0.1,0,0.1,0,0.2,0c0,0,0.1-0.1,0.1-0.1c0,0,0-0.1,0-0.1
	c0,0-0.1,0-0.1,0c0,0-0.1,0-0.1,0L231.7,357.7z"/>
<path d="M232.8,357.4L232.8,357.4l0.2,0v0h0c0,0-0.1,0-0.1,0c0,0,0,0,0,0.1v0.2c0,0.1,0,0.1,0,0.1c0,0,0,0.1-0.1,0.1
	c0,0-0.1,0-0.1,0s-0.1,0-0.2,0s-0.1-0.1-0.1-0.1c0,0,0-0.1,0-0.2v-0.2c0,0,0-0.1,0-0.1c0,0,0,0-0.1,0h0v0h0.3v0h0c0,0-0.1,0-0.1,0
	c0,0,0,0,0,0.1v0.3c0,0,0,0.1,0,0.1c0,0,0,0.1,0,0.1c0,0,0,0,0.1,0.1s0.1,0,0.1,0c0,0,0.1,0,0.1,0c0,0,0.1,0,0.1-0.1s0-0.1,0-0.1
	L232.8,357.4C232.9,357.4,232.9,357.4,232.8,357.4C232.9,357.4,232.8,357.4,232.8,357.4L232.8,357.4z"/>
<path d="M233.4,357.3v0.2h0c0,0,0-0.1,0-0.1s0-0.1-0.1-0.1c0,0-0.1,0-0.1,0c0,0-0.1,0-0.1,0c0,0,0,0.1,0,0.1c0,0,0,0,0,0.1
	c0,0,0.1,0.1,0.1,0.1c0.1,0,0.1,0.1,0.1,0.1c0,0,0,0,0.1,0.1c0,0,0,0.1,0,0.1c0,0.1,0,0.1-0.1,0.1c0,0-0.1,0.1-0.1,0.1
	c0,0,0,0-0.1,0c0,0,0,0-0.1,0c0,0-0.1,0-0.1,0s0,0,0,0v0h0v-0.2h0c0,0.1,0,0.1,0,0.1s0,0,0.1,0.1s0.1,0,0.1,0c0,0,0.1,0,0.1,0
	s0-0.1,0-0.1c0,0,0,0,0-0.1s0,0,0-0.1c0,0-0.1,0-0.1-0.1c-0.1,0-0.1-0.1-0.1-0.1c0,0,0,0-0.1-0.1c0,0,0-0.1,0-0.1
	c0-0.1,0-0.1,0.1-0.1s0.1-0.1,0.1-0.1C233.3,357.3,233.3,357.3,233.4,357.3C233.4,357.3,233.4,357.3,233.4,357.3L233.4,357.3
	C233.4,357.3,233.4,357.4,233.4,357.3L233.4,357.3z"/>
<path d="M233.7,357.4v0.2h0.1c0,0,0.1,0,0.1,0c0,0,0,0,0-0.1h0v0.2h0c0,0,0-0.1,0-0.1l0,0c0,0,0,0-0.1,0h-0.1v0.2c0,0,0,0.1,0,0.1
	s0,0,0,0h0h0.1c0,0,0.1,0,0.1,0c0,0,0,0,0.1,0c0,0,0-0.1,0.1-0.1h0L234,358h-0.4v0h0c0,0,0,0,0.1,0c0,0,0,0,0,0s0,0,0-0.1
	L233.7,357.4C233.7,357.5,233.7,357.4,233.7,357.4C233.7,357.4,233.6,357.4,233.7,357.4l-0.1,0v0h0.4v0.1h0c0,0,0-0.1,0-0.1l0,0
	c0,0,0,0-0.1,0L233.7,357.4z"/>
<path d="M234.6,357.3c0.1,0,0.1,0,0.2,0.1c0.1,0.1,0.1,0.1,0.1,0.2s0,0.2-0.1,0.2c-0.1,0.1-0.1,0.1-0.2,0.1s-0.2,0-0.2-0.1
	c-0.1-0.1-0.1-0.1-0.1-0.2c0-0.1,0-0.2,0.1-0.2C234.5,357.4,234.5,357.3,234.6,357.3z M234.6,357.4c-0.1,0-0.1,0-0.1,0.1
	c-0.1,0.1-0.1,0.1-0.1,0.2c0,0.1,0,0.2,0.1,0.2c0,0.1,0.1,0.1,0.1,0.1c0.1,0,0.1,0,0.1-0.1c0-0.1,0.1-0.1,0.1-0.2
	c0-0.1,0-0.2-0.1-0.2C234.7,357.4,234.7,357.4,234.6,357.4z"/>
<path d="M235.1,357.4v0.2h0.1c0,0,0.1,0,0.1,0c0,0,0,0,0-0.1h0v0.2h0c0,0,0-0.1,0-0.1l0,0c0,0,0,0-0.1,0h-0.1v0.2c0,0,0,0.1,0,0.1
	s0,0,0,0c0,0,0,0,0.1,0h0v0H235v0h0c0,0,0.1,0,0.1,0c0,0,0,0,0-0.1L235.1,357.4C235,357.4,235,357.4,235.1,357.4c-0.1,0-0.1,0-0.1,0
	c0,0,0,0-0.1,0h0v0h0.4v0.1h0c0,0,0-0.1,0-0.1l0,0c0,0,0,0-0.1,0L235.1,357.4z"/>
<path d="M230.9,359v0.3c0,0.1,0,0.1,0,0.1s0.1,0,0.1,0h0v0h-0.4v0h0c0,0,0.1,0,0.1,0c0,0,0-0.1,0-0.1v-0.6c0-0.1,0-0.1,0-0.1
	c0,0-0.1,0-0.1,0h0v0h0.3c0.1,0,0.1,0,0.2,0c0.1,0,0.1,0.1,0.1,0.1c0,0,0.1,0.1,0.1,0.1c0,0.1,0,0.1-0.1,0.2s-0.1,0.1-0.2,0.1
	C231,359,231,359,230.9,359C231,359,230.9,359,230.9,359z M230.9,358.9C230.9,358.9,231,358.9,230.9,358.9c0.1,0,0.1,0,0.1,0
	c0.1,0,0.1,0,0.1-0.1c0,0,0.1-0.1,0.1-0.1c0,0,0-0.1,0-0.1s0-0.1-0.1-0.1s-0.1,0-0.1,0c0,0-0.1,0-0.1,0L230.9,358.9z"/>
<path d="M232,358.6L232,358.6l0.3,0v0h0c0,0-0.1,0-0.1,0.1c0,0,0,0.1,0,0.1v0.4c0,0.1,0,0.2,0,0.2c0,0.1-0.1,0.1-0.1,0.1
	c-0.1,0.1-0.1,0.1-0.2,0.1c-0.1,0-0.2,0-0.2-0.1s-0.1-0.1-0.1-0.1c0,0,0-0.1,0-0.2v-0.3c0-0.1,0-0.1,0-0.1c0,0,0,0-0.1,0h0v0h0.4v0
	h0c0,0-0.1,0-0.1,0c0,0,0,0.1,0,0.1v0.4c0,0,0,0.1,0,0.1s0,0.1,0,0.1s0.1,0.1,0.1,0.1c0,0,0.1,0,0.1,0c0.1,0,0.1,0,0.2,0
	c0.1,0,0.1-0.1,0.1-0.1s0-0.1,0-0.2v-0.4c0-0.1,0-0.1,0-0.1C232.1,358.6,232.1,358.6,232,358.6L232,358.6z"/>
<path d="M233,358.9c0.1,0,0.1,0,0.1,0.1c0.1,0.1,0.1,0.1,0.1,0.2c0,0.1,0,0.1-0.1,0.1c0,0.1-0.1,0.1-0.1,0.1c-0.1,0-0.1,0-0.2,0
	h-0.4v0h0c0,0,0.1,0,0.1,0c0,0,0-0.1,0-0.1v-0.6c0-0.1,0-0.1,0-0.1c0,0-0.1,0-0.1,0h0v0h0.4c0.1,0,0.1,0,0.2,0
	c0.1,0,0.1,0.1,0.2,0.1c0,0.1,0.1,0.1,0.1,0.1s0,0.1-0.1,0.1C233.1,358.9,233,358.9,233,358.9z M232.6,358.9
	C232.7,358.9,232.7,358.9,232.6,358.9c0.1,0,0.1,0,0.1,0c0.1,0,0.1,0,0.1,0c0,0,0.1,0,0.1-0.1c0,0,0-0.1,0-0.1c0-0.1,0-0.1-0.1-0.1
	c-0.1,0-0.1-0.1-0.2-0.1c-0.1,0-0.1,0-0.1,0L232.6,358.9z M232.6,359.3c0.1,0,0.1,0,0.2,0c0.1,0,0.1,0,0.2-0.1
	c0.1,0,0.1-0.1,0.1-0.1c0,0,0-0.1,0-0.1s-0.1-0.1-0.1-0.1c0,0-0.1,0-0.2,0c0,0-0.1,0-0.1,0c0,0,0,0-0.1,0V359.3z"/>
<path d="M234,359.2L234,359.2l-0.1,0.2h-0.7v0h0c0,0,0.1,0,0.1,0c0,0,0-0.1,0-0.1v-0.6c0-0.1,0-0.1,0-0.1c0,0-0.1,0-0.1,0h0v0h0.4v0
	c-0.1,0-0.1,0-0.1,0c0,0,0,0,0,0c0,0,0,0.1,0,0.1v0.6c0,0,0,0.1,0,0.1l0,0c0,0,0.1,0,0.1,0h0.1c0.1,0,0.1,0,0.1,0
	C233.9,359.3,233.9,359.3,234,359.2C234,359.3,234,359.2,234,359.2z"/>
<path d="M234.5,359.4L234.5,359.4l-0.4,0v0h0c0,0,0.1,0,0.1,0c0,0,0-0.1,0-0.1v-0.6c0-0.1,0-0.1,0-0.1l0,0c0,0,0,0-0.1,0h0v0h0.4v0
	h0c0,0-0.1,0-0.1,0c0,0,0,0.1,0,0.1v0.6c0,0.1,0,0.1,0,0.1L234.5,359.4C234.4,359.4,234.4,359.4,234.5,359.4L234.5,359.4z"/>
<path d="M235.3,358.5l0,0.3h0c0-0.1-0.1-0.2-0.1-0.2c-0.1,0-0.1-0.1-0.2-0.1c-0.1,0-0.1,0-0.2,0.1c-0.1,0-0.1,0.1-0.1,0.1
	c0,0.1-0.1,0.2-0.1,0.2s0,0.2,0,0.2c0,0.1,0.1,0.1,0.1,0.1s0.1,0.1,0.2,0.1c0.1,0,0.1,0,0.2,0c0.1,0,0.1-0.1,0.2-0.2h0
	c-0.1,0.1-0.1,0.1-0.2,0.2s-0.1,0.1-0.2,0.1c-0.2,0-0.3-0.1-0.3-0.2c-0.1-0.1-0.1-0.2-0.1-0.3c0-0.1,0-0.2,0.1-0.2
	c0.1-0.1,0.1-0.1,0.2-0.2c0.1-0.1,0.2-0.1,0.2-0.1c0.1,0,0.1,0,0.2,0.1C235.2,358.6,235.2,358.6,235.3,358.5L235.3,358.5
	C235.3,358.6,235.3,358.5,235.3,358.5L235.3,358.5z"/>
<path d="M229.9,360.3l0.2-0.4h0.1l0.2,0.4h-0.1l-0.1-0.1H230L229.9,360.3L229.9,360.3z M230,360.1h0.1l-0.1-0.1c0,0,0-0.1,0-0.1
	c0,0,0,0.1,0,0.1L230,360.1z"/>
<path d="M230.3,360.3v-0.4h0.1c0,0,0.1,0,0.1,0s0.1,0,0.1,0c0,0,0,0.1,0.1,0.1c0,0,0,0.1,0,0.1c0,0,0,0.1,0,0.1c0,0,0,0.1,0,0.1
	c0,0,0,0,0,0c0,0,0,0-0.1,0c0,0-0.1,0-0.1,0H230.3z M230.4,360.2L230.4,360.2c0.1,0,0.1,0,0.1,0c0,0,0,0,0,0c0,0,0,0,0-0.1
	s0-0.1,0-0.1c0-0.1,0-0.1,0-0.1s0,0-0.1-0.1c0,0,0,0-0.1,0h-0.1L230.4,360.2z"/>
<path d="M230.8,360.3l-0.2-0.4h0.1l0.1,0.3C230.8,360.2,230.9,360.2,230.8,360.3c0-0.1,0.1-0.1,0.1-0.1l0.1-0.3h0.1L230.8,360.3
	L230.8,360.3z"/>
<path d="M231.1,360.3v-0.4h0.1L231.1,360.3L231.1,360.3z"/>
<path d="M231.5,360.1L231.5,360.1c0.1,0.1,0,0.1,0,0.1s-0.1,0-0.1,0c-0.1,0-0.1,0-0.1,0c0,0-0.1-0.1-0.1-0.1c0,0,0-0.1,0-0.1
	c0-0.1,0-0.1,0-0.1c0,0,0-0.1,0.1-0.1c0,0,0.1,0,0.1,0c0.1,0,0.1,0,0.1,0c0,0,0.1,0.1,0.1,0.1h-0.1c0,0,0-0.1-0.1-0.1s-0.1,0-0.1,0
	c0,0-0.1,0-0.1,0c0,0,0,0-0.1,0.1c0,0,0,0.1,0,0.1c0,0,0,0.1,0,0.1c0,0,0,0.1,0.1,0.1C231.4,360.2,231.4,360.2,231.5,360.1
	C231.5,360.2,231.5,360.2,231.5,360.1C231.5,360.2,231.5,360.2,231.5,360.1z"/>
<path d="M231.7,360.3v-0.4h0.3v0.1h-0.2v0.1h0.2v0.1h-0.2L231.7,360.3l0.3,0v0.1L231.7,360.3z"/>
<path d="M232.4,360.2C232.4,360.2,232.4,360.2,232.4,360.2c-0.1,0.1-0.1,0.1-0.1,0.1c-0.1,0-0.1,0-0.1-0.1c0,0,0-0.1,0-0.1
	c0,0,0-0.1,0-0.1c0,0,0.1,0,0.1-0.1c0,0,0,0,0-0.1v0c0,0,0-0.1,0-0.1c0,0,0.1,0,0.1,0c0,0,0.1,0,0.1,0c0,0,0,0,0,0.1s0,0.1-0.1,0.1
	L232.4,360.2c0.1-0.1,0.1-0.1,0.1-0.1h0.1c0,0,0,0.1,0,0.1c0,0,0,0.1,0.1,0.1l0,0C232.5,360.3,232.4,360.2,232.4,360.2z
	 M232.4,360.2l-0.1-0.1c0,0-0.1,0-0.1,0.1s0,0,0,0.1s0,0,0,0.1C232.3,360.3,232.3,360.3,232.4,360.2
	C232.3,360.3,232.3,360.3,232.4,360.2C232.4,360.2,232.4,360.2,232.4,360.2z M232.3,360C232.3,360,232.3,360,232.3,360L232.3,360
	C232.4,359.9,232.4,359.9,232.3,360L232.3,360C232.3,359.9,232.3,359.9,232.3,360L232.3,360C232.3,359.9,232.3,359.9,232.3,360
	C232.3,360,232.3,360,232.3,360L232.3,360z"/>
<path d="M232.7,360.3l0.2-0.4h0.1l0.2,0.4H233l-0.1-0.1h-0.2L232.7,360.3L232.7,360.3z M232.8,360.1h0.1l-0.1-0.1c0,0,0-0.1,0-0.1
	c0,0,0,0.1,0,0.1L232.8,360.1z"/>
<path d="M233,360.1L233,360.1C233.1,360.2,233.1,360.2,233,360.1c0.1,0.1,0.1,0.1,0.1,0.1c0,0,0,0,0.1,0c0,0,0,0,0.1,0s0,0,0,0v0v0
	l0,0c0,0,0,0-0.1,0C233.2,360.1,233.1,360.1,233,360.1c0.1-0.1,0.1-0.1,0-0.1c0,0,0,0,0-0.1s0,0,0-0.1c0,0,0,0,0.1-0.1
	c0,0,0.1,0,0.1,0c0,0,0.1,0,0.1,0c0,0,0.1,0,0.1,0.1s0,0.1,0,0.1h-0.1c0,0,0-0.1,0-0.1c0,0,0,0-0.1,0c0,0-0.1,0-0.1,0c0,0,0,0,0,0.1
	s0,0,0,0c0,0,0,0,0.1,0c0.1,0,0.1,0,0.1,0c0,0,0.1,0,0.1,0.1s0,0,0,0.1s0,0.1,0,0.1c0,0,0,0-0.1,0.1s-0.1,0-0.1,0c0,0-0.1,0-0.1,0
	C233.1,360.3,233.1,360.2,233,360.1C233,360.2,233,360.2,233,360.1z"/>
<path d="M233.4,360.1L233.4,360.1C233.5,360.2,233.5,360.2,233.4,360.1c0.1,0.1,0.1,0.1,0.1,0.1c0,0,0,0,0.1,0s0,0,0.1,0
	c0,0,0,0,0,0v0v0l0,0c0,0,0,0-0.1,0C233.5,360.1,233.5,360.1,233.4,360.1c0.1-0.1,0.1-0.1,0-0.1c0,0,0,0,0-0.1s0,0,0-0.1
	c0,0,0,0,0.1-0.1c0,0,0.1,0,0.1,0c0,0,0.1,0,0.1,0c0,0,0.1,0,0.1,0.1s0,0.1,0,0.1h-0.1c0,0,0-0.1,0-0.1c0,0,0,0-0.1,0
	c0,0-0.1,0-0.1,0c0,0,0,0,0,0.1s0,0,0,0c0,0,0,0,0.1,0c0.1,0,0.1,0,0.1,0c0,0,0.1,0,0.1,0.1s0,0,0,0.1s0,0.1,0,0.1c0,0,0,0-0.1,0.1
	c0,0-0.1,0-0.1,0c0,0-0.1,0-0.1,0C233.5,360.3,233.4,360.2,233.4,360.1C233.4,360.2,233.4,360.2,233.4,360.1z"/>
<path d="M233.8,360.3v-0.4h0.1L233.8,360.3L233.8,360.3z"/>
<path d="M233.9,360.1L233.9,360.1C234,360.2,234,360.2,233.9,360.1c0.1,0.1,0.1,0.1,0.1,0.1c0,0,0,0,0.1,0s0,0,0.1,0c0,0,0,0,0,0v0
	v0l0,0c0,0,0,0-0.1,0C234.1,360.1,234,360.1,233.9,360.1c0.1-0.1,0.1-0.1,0-0.1s0,0,0-0.1s0,0,0-0.1c0,0,0,0,0.1-0.1
	c0,0,0.1,0,0.1,0c0,0,0.1,0,0.1,0c0,0,0.1,0,0.1,0.1s0,0.1,0,0.1h-0.1c0,0,0-0.1,0-0.1c0,0,0,0-0.1,0c0,0-0.1,0-0.1,0c0,0,0,0,0,0.1
	s0,0,0,0c0,0,0,0,0.1,0c0.1,0,0.1,0,0.1,0c0,0,0.1,0,0.1,0.1s0,0,0,0.1s0,0.1,0,0.1c0,0,0,0-0.1,0.1c0,0-0.1,0-0.1,0
	c0,0-0.1,0-0.1,0C234,360.3,234,360.2,233.9,360.1C233.9,360.2,233.9,360.2,233.9,360.1z"/>
<path d="M234.4,360.3v-0.3h-0.1v-0.1h0.3v0.1h-0.1L234.4,360.3L234.4,360.3z"/>
<path d="M234.6,360.3l0.2-0.4h0.1l0.2,0.4h-0.1l-0.1-0.1h-0.2L234.6,360.3L234.6,360.3z M234.7,360.1h0.1l-0.1-0.1c0,0,0-0.1,0-0.1
	c0,0,0,0.1,0,0.1L234.7,360.1z"/>
<path d="M235,360.3v-0.4h0.1l0.2,0.3v-0.3h0.1v0.4h-0.1l-0.2-0.3L235,360.3L235,360.3z"/>
<path d="M235.7,360.1L235.7,360.1c0.1,0.1,0,0.1,0,0.1c0,0-0.1,0-0.1,0c-0.1,0-0.1,0-0.1,0s-0.1-0.1-0.1-0.1c0,0,0-0.1,0-0.1
	c0-0.1,0-0.1,0-0.1c0,0,0-0.1,0.1-0.1c0,0,0.1,0,0.1,0c0.1,0,0.1,0,0.1,0c0,0,0.1,0.1,0.1,0.1h-0.1c0,0,0-0.1-0.1-0.1
	c0,0-0.1,0-0.1,0c0,0-0.1,0-0.1,0c0,0,0,0-0.1,0.1c0,0,0,0.1,0,0.1c0,0,0,0.1,0,0.1c0,0,0,0.1,0.1,0.1S235.6,360.2,235.7,360.1
	C235.6,360.2,235.7,360.2,235.7,360.1C235.7,360.2,235.7,360.2,235.7,360.1z"/>
<path d="M235.8,360.3v-0.4h0.3v0.1h-0.2v0.1h0.2v0.1h-0.2L235.8,360.3l0.3,0v0.1L235.8,360.3z"/>
<path d="M229.4,360.7c0-0.1,0-0.1,0.1-0.2c0,0,0.1-0.1,0.1-0.1c0,0,0.1,0,0.1,0c0,0,0.1,0.1,0.1,0.1c0,0,0,0.1,0,0.1
	c0,0.1,0,0.1,0,0.1c0,0-0.1,0.1-0.1,0.1c0,0-0.1,0-0.1,0c0,0-0.1,0-0.1,0c0,0-0.1-0.1-0.1-0.1C229.4,360.8,229.4,360.8,229.4,360.7z
	 M229.4,360.7c0,0.1,0,0.1,0,0.1s0.1,0.1,0.1,0.1s0.1,0,0.1-0.1c0,0,0-0.1,0-0.1c0,0,0-0.1,0-0.1c0,0,0-0.1-0.1-0.1c0,0-0.1,0-0.1,0
	s-0.1,0-0.1,0C229.5,360.6,229.4,360.7,229.4,360.7z"/>
<path d="M229.8,360.9v-0.4h0.2c0,0,0.1,0,0.1,0c0,0,0,0,0.1,0c0,0,0,0,0,0.1s0,0,0,0.1c0,0,0,0-0.1,0c0,0,0.1,0,0.1,0c0,0,0,0,0,0.1
	s0,0,0,0.1s0,0,0,0s0,0-0.1,0s0,0-0.1,0L229.8,360.9z M229.9,360.7L229.9,360.7c0.1,0,0.1,0,0.1,0c0,0,0,0,0,0v0c0,0,0,0,0,0l0,0
	c0,0,0,0-0.1,0h-0.1V360.7z M229.9,360.9h0.1c0,0,0,0,0,0h0c0,0,0,0,0,0v0c0,0,0,0,0,0l0,0c0,0,0,0-0.1,0h-0.1V360.9z"/>
<path d="M230.3,360.9v-0.3h-0.1v-0.1h0.3v0.1h-0.1L230.3,360.9L230.3,360.9z"/>
<path d="M230.5,360.9l0.2-0.4h0.1l0.2,0.4h-0.1l-0.1-0.1h-0.2L230.5,360.9L230.5,360.9z M230.6,360.8h0.1l-0.1-0.1c0,0,0-0.1,0-0.1
	c0,0,0,0.1,0,0.1L230.6,360.8z"/>
<path d="M230.9,360.9v-0.4h0.1L230.9,360.9L230.9,360.9z"/>
<path d="M231,360.9v-0.4h0.1l0.2,0.3v-0.3h0.1v0.4h-0.1l-0.2-0.3L231,360.9L231,360.9z"/>
<path d="M231.4,360.9l0.2-0.4h0.1l0.2,0.4h-0.1l-0.1-0.1h-0.2L231.4,360.9L231.4,360.9z M231.5,360.8h0.1l-0.1-0.1c0,0,0-0.1,0-0.1
	c0,0,0,0.1,0,0.1L231.5,360.8z"/>
<path d="M231.8,360.9v-0.4h0.2c0,0,0.1,0,0.1,0c0,0,0,0,0.1,0c0,0,0,0,0,0.1s0,0,0,0.1c0,0,0,0-0.1,0c0,0,0.1,0,0.1,0c0,0,0,0,0,0.1
	s0,0,0,0.1s0,0,0,0s0,0-0.1,0c0,0,0,0-0.1,0L231.8,360.9z M231.9,360.7L231.9,360.7c0.1,0,0.1,0,0.1,0c0,0,0,0,0,0v0c0,0,0,0,0,0
	l0,0c0,0,0,0-0.1,0h-0.1V360.7z M231.9,360.9h0.1c0,0,0,0,0,0h0c0,0,0,0,0,0v0c0,0,0,0,0,0l0,0c0,0,0,0-0.1,0h-0.1L231.9,360.9z"/>
<path d="M232.2,360.9v-0.4h0.1L232.2,360.9l0.2-0.1v0.1H232.2z"/>
<path d="M232.5,360.9v-0.4h0.3v0.1h-0.2v0.1h0.2v0.1h-0.2L232.5,360.9l0.3,0v0.1L232.5,360.9z"/>
<path d="M233,360.9v-0.4h0.1L233,360.9L233,360.9z"/>
<path d="M233.2,360.9v-0.4h0.1l0.1,0.3c0,0,0,0.1,0,0.1c0,0,0,0,0-0.1l0.1-0.3h0.1v0.4h-0.1v-0.3l-0.1,0.3h-0.1l-0.1-0.3v0.3H233.2z
	"/>
<path d="M233.6,360.9v-0.4h0.1l0.1,0.3c0,0,0,0.1,0,0.1c0,0,0,0,0-0.1l0.1-0.3h0.1v0.4H234v-0.3l-0.1,0.3h-0.1l-0.1-0.3v0.3H233.6z"
	/>
<path d="M234.1,360.9v-0.4h0.3v0.1h-0.2v0.1h0.2v0.1h-0.2L234.1,360.9l0.3,0v0.1L234.1,360.9z"/>
<path d="M234.5,360.9v-0.4h0.1c0,0,0.1,0,0.1,0c0,0,0.1,0,0.1,0c0,0,0,0.1,0.1,0.1c0,0,0,0.1,0,0.1c0,0,0,0.1,0,0.1c0,0,0,0.1,0,0.1
	c0,0,0,0,0,0c0,0,0,0-0.1,0c0,0-0.1,0-0.1,0H234.5z M234.5,360.9L234.5,360.9c0.1,0,0.1,0,0.1,0c0,0,0,0,0,0c0,0,0,0,0-0.1
	s0-0.1,0-0.1c0-0.1,0-0.1,0-0.1c0,0,0,0-0.1-0.1c0,0,0,0-0.1,0h-0.1L234.5,360.9z"/>
<path d="M234.9,360.9v-0.4h0.1L234.9,360.9L234.9,360.9z"/>
<path d="M235,360.9l0.2-0.4h0.1l0.2,0.4h-0.1l-0.1-0.1h-0.2L235,360.9L235,360.9z M235.1,360.8h0.1l-0.1-0.1c0,0,0-0.1,0-0.1
	c0,0,0,0.1,0,0.1L235.1,360.8z"/>
<path d="M235.5,360.9v-0.3h-0.1v-0.1h0.3v0.1h-0.1L235.5,360.9L235.5,360.9z"/>
<path d="M235.7,360.9v-0.4h0.3v0.1h-0.2v0.1h0.2v0.1h-0.2L235.7,360.9l0.3,0v0.1L235.7,360.9z"/>
<path d="M236.1,360.9v-0.4h0.1L236.1,360.9l0.2-0.1v0.1H236.1z"/>
<path d="M236.5,360.9v-0.2l-0.2-0.2h0.1l0.1,0.1c0,0,0,0.1,0.1,0.1c0,0,0-0.1,0.1-0.1l0.1-0.1h0.1l-0.2,0.2L236.5,360.9L236.5,360.9
	z"/>
<path d="M230.5,361.4c0-0.1,0-0.1,0.1-0.2c0,0,0.1-0.1,0.1-0.1c0,0,0.1,0,0.1,0c0,0,0.1,0.1,0.1,0.1c0,0,0,0.1,0,0.1
	c0,0.1,0,0.1,0,0.1c0,0-0.1,0.1-0.1,0.1c0,0-0.1,0-0.1,0c0,0-0.1,0-0.1,0c0,0-0.1-0.1-0.1-0.1C230.5,361.5,230.5,361.4,230.5,361.4z
	 M230.6,361.4c0,0.1,0,0.1,0,0.1c0,0,0.1,0.1,0.1,0.1s0.1,0,0.1-0.1c0,0,0-0.1,0-0.1c0,0,0-0.1,0-0.1c0,0,0-0.1-0.1-0.1
	c0,0-0.1,0-0.1,0c0,0-0.1,0-0.1,0C230.6,361.3,230.6,361.3,230.6,361.4z"/>
<path d="M231,361.6v-0.4h0.3v0.1H231v0.1h0.2v0.1H231L231,361.6L231,361.6z"/>
<path d="M231.3,361.6v-0.4h0.3v0.1h-0.2v0.1h0.2v0.1h-0.2L231.3,361.6L231.3,361.6z"/>
<path d="M231.7,361.6v-0.4h0.1L231.7,361.6L231.7,361.6z"/>
<path d="M232.1,361.5L232.1,361.5c0.1,0.1,0,0.1,0,0.1c0,0-0.1,0-0.1,0s-0.1,0-0.1,0c0,0-0.1-0.1-0.1-0.1c0,0,0-0.1,0-0.1
	c0-0.1,0-0.1,0-0.1c0,0,0-0.1,0.1-0.1c0,0,0.1,0,0.1,0c0.1,0,0.1,0,0.1,0s0.1,0.1,0.1,0.1h-0.1c0,0,0-0.1-0.1-0.1s-0.1,0-0.1,0
	c0,0-0.1,0-0.1,0s0,0-0.1,0.1c0,0,0,0.1,0,0.1c0,0,0,0.1,0,0.1c0,0,0,0.1,0.1,0.1C232,361.5,232,361.5,232.1,361.5
	C232,361.5,232.1,361.5,232.1,361.5C232.1,361.5,232.1,361.5,232.1,361.5z"/>
<path d="M232.2,361.6v-0.4h0.3v0.1h-0.2v0.1h0.2v0.1h-0.2L232.2,361.6l0.3,0v0.1L232.2,361.6z"/>
<path d="M232.6,361.6v-0.4h0.2c0,0,0.1,0,0.1,0c0,0,0,0,0.1,0c0,0,0,0,0,0.1s0,0.1,0,0.1c0,0-0.1,0-0.1,0c0,0,0,0,0,0
	c0,0,0,0,0.1,0.1l0.1,0.1h-0.1l-0.1-0.1c0,0,0-0.1,0-0.1l0,0h0h0h-0.1v0.2L232.6,361.6z M232.7,361.4h0.1c0,0,0.1,0,0.1,0
	c0,0,0,0,0,0v0c0,0,0,0,0-0.1c0,0,0,0-0.1,0h-0.1L232.7,361.4z"/>
<path d="M233,361.5L233,361.5C233,361.5,233,361.5,233,361.5c0.1,0.1,0.1,0.1,0.1,0.1c0,0,0,0,0.1,0c0,0,0,0,0.1,0s0,0,0,0v0v0l0,0
	c0,0,0,0-0.1,0C233.1,361.4,233.1,361.4,233,361.5c0.1-0.1,0.1-0.1,0-0.1c0,0,0,0,0-0.1s0,0,0-0.1c0,0,0,0,0.1-0.1c0,0,0.1,0,0.1,0
	c0,0,0.1,0,0.1,0c0,0,0.1,0,0.1,0.1s0,0.1,0,0.1h-0.1c0,0,0-0.1,0-0.1c0,0,0,0-0.1,0c0,0-0.1,0-0.1,0c0,0,0,0,0,0.1s0,0,0,0
	c0,0,0,0,0.1,0c0.1,0,0.1,0,0.1,0c0,0,0.1,0,0.1,0.1s0,0,0,0.1c0,0,0,0.1,0,0.1c0,0,0,0-0.1,0.1s-0.1,0-0.1,0c0,0-0.1,0-0.1,0
	C233,361.6,233,361.6,233,361.5C233,361.5,233,361.5,233,361.5z"/>
<path d="M233.7,361.5C233.7,361.6,233.7,361.6,233.7,361.5c-0.1,0.1-0.1,0.1-0.1,0.1c-0.1,0-0.1,0-0.1-0.1s0-0.1,0-0.1
	c0,0,0-0.1,0-0.1c0,0,0.1,0,0.1-0.1c0,0,0,0,0-0.1v0c0,0,0-0.1,0-0.1c0,0,0.1,0,0.1,0c0,0,0.1,0,0.1,0c0,0,0,0,0,0.1s0,0.1-0.1,0.1
	L233.7,361.5c0.1-0.1,0.1-0.1,0.1-0.1h0.1c0,0,0,0.1,0,0.1c0,0,0,0.1,0.1,0.1l0,0C233.8,361.6,233.8,361.6,233.7,361.5z
	 M233.7,361.5l-0.1-0.1c0,0-0.1,0-0.1,0.1c0,0,0,0,0,0.1s0,0,0,0.1C233.6,361.6,233.6,361.6,233.7,361.5
	C233.6,361.6,233.6,361.6,233.7,361.5C233.7,361.5,233.7,361.5,233.7,361.5z M233.6,361.3C233.7,361.3,233.7,361.3,233.6,361.3
	L233.6,361.3C233.7,361.3,233.7,361.3,233.6,361.3L233.6,361.3C233.6,361.3,233.6,361.3,233.6,361.3L233.6,361.3
	C233.6,361.3,233.6,361.3,233.6,361.3C233.6,361.3,233.6,361.3,233.6,361.3L233.6,361.3z"/>
<path d="M234.3,361.5L234.3,361.5c0.1,0.1,0,0.1,0,0.1c0,0-0.1,0-0.1,0c-0.1,0-0.1,0-0.1,0s-0.1-0.1-0.1-0.1c0,0,0-0.1,0-0.1
	c0-0.1,0-0.1,0-0.1c0,0,0-0.1,0.1-0.1c0,0,0.1,0,0.1,0s0.1,0,0.1,0c0,0,0.1,0.1,0.1,0.1h-0.1c0,0,0-0.1-0.1-0.1c0,0-0.1,0-0.1,0
	c0,0-0.1,0-0.1,0c0,0,0,0-0.1,0.1c0,0,0,0.1,0,0.1c0,0,0,0.1,0,0.1c0,0,0,0.1,0.1,0.1S234.2,361.5,234.3,361.5
	C234.3,361.5,234.3,361.5,234.3,361.5C234.3,361.5,234.3,361.5,234.3,361.5z"/>
<path d="M234.4,361.6l0.2-0.4h0.1l0.2,0.4h-0.1l-0.1-0.1h-0.2L234.4,361.6L234.4,361.6z M234.5,361.4h0.1l-0.1-0.1c0,0,0-0.1,0-0.1
	c0,0,0,0.1,0,0.1L234.5,361.4z"/>
<path d="M234.8,361.6v-0.4h0.2c0,0,0.1,0,0.1,0c0,0,0,0,0.1,0c0,0,0,0,0,0.1s0,0.1,0,0.1c0,0-0.1,0-0.1,0c0,0,0,0,0,0
	c0,0,0,0,0.1,0.1l0.1,0.1h-0.1l-0.1-0.1c0,0,0-0.1,0-0.1l0,0h0h0h-0.1v0.2L234.8,361.6z M234.9,361.4h0.1c0,0,0.1,0,0.1,0
	c0,0,0,0,0,0s0,0,0,0c0,0,0,0,0-0.1c0,0,0,0-0.1,0h-0.1L234.9,361.4z"/>
<path d="M235.2,361.5L235.2,361.5C235.2,361.5,235.2,361.5,235.2,361.5c0.1,0.1,0.1,0.1,0.1,0.1s0,0,0.1,0c0,0,0,0,0.1,0
	c0,0,0,0,0,0v0v0l0,0c0,0,0,0-0.1,0C235.3,361.4,235.3,361.4,235.2,361.5c0.1-0.1,0.1-0.1,0-0.1c0,0,0,0,0-0.1s0,0,0-0.1
	c0,0,0,0,0.1-0.1c0,0,0.1,0,0.1,0c0,0,0.1,0,0.1,0c0,0,0.1,0,0.1,0.1s0,0.1,0,0.1h-0.1c0,0,0-0.1,0-0.1c0,0,0,0-0.1,0
	c0,0-0.1,0-0.1,0c0,0,0,0,0,0.1s0,0,0,0c0,0,0,0,0.1,0s0.1,0,0.1,0c0,0,0.1,0,0.1,0.1s0,0,0,0.1c0,0,0,0.1,0,0.1c0,0,0,0-0.1,0.1
	s-0.1,0-0.1,0c0,0-0.1,0-0.1,0C235.2,361.6,235.2,361.6,235.2,361.5C235.2,361.5,235.2,361.5,235.2,361.5z"/>
<path d="M229.8,362.3v-0.4h0.2c0,0,0.1,0,0.1,0c0,0,0,0,0.1,0c0,0,0,0,0,0.1s0,0.1,0,0.1c0,0-0.1,0-0.1,0c0,0,0,0,0,0
	c0,0,0,0,0.1,0.1l0.1,0.1h-0.1l-0.1-0.1c0,0,0-0.1,0-0.1l0,0h0h0h-0.1v0.2L229.8,362.3z M229.8,362h0.1c0,0,0.1,0,0.1,0c0,0,0,0,0,0
	v0c0,0,0,0,0-0.1c0,0,0,0-0.1,0h-0.1L229.8,362z"/>
<path d="M230.2,362.3v-0.4h0.3v0.1h-0.2v0.1h0.2v0.1h-0.2L230.2,362.3l0.3,0v0.1L230.2,362.3z"/>
<path d="M230.6,362.2L230.6,362.2C230.6,362.2,230.6,362.2,230.6,362.2c0.1,0.1,0.1,0.1,0.1,0.1c0,0,0,0,0.1,0c0,0,0,0,0.1,0
	s0,0,0,0v0v0l0,0c0,0,0,0-0.1,0C230.7,362.1,230.7,362.1,230.6,362.2c0.1-0.1,0.1-0.1,0-0.1s0,0,0-0.1s0,0,0-0.1c0,0,0,0,0.1-0.1
	c0,0,0.1,0,0.1,0c0,0,0.1,0,0.1,0c0,0,0.1,0,0.1,0.1s0,0.1,0,0.1h-0.1c0,0,0-0.1,0-0.1s0,0-0.1,0c0,0-0.1,0-0.1,0c0,0,0,0,0,0.1
	s0,0,0,0c0,0,0,0,0.1,0s0.1,0,0.1,0c0,0,0.1,0,0.1,0.1s0,0,0,0.1s0,0.1,0,0.1c0,0,0,0-0.1,0.1s-0.1,0-0.1,0c0,0-0.1,0-0.1,0
	C230.6,362.3,230.6,362.3,230.6,362.2C230.6,362.2,230.6,362.2,230.6,362.2z"/>
<path d="M230.9,362.3v-0.4h0.2c0,0,0.1,0,0.1,0c0,0,0,0,0.1,0c0,0,0,0,0,0s0,0,0,0.1s0,0.1,0,0.1c0,0-0.1,0-0.1,0H231L230.9,362.3
	L230.9,362.3z M231,362.1h0.1c0,0,0.1,0,0.1,0c0,0,0,0,0-0.1s0,0,0-0.1l0,0c0,0,0,0-0.1,0H231L231,362.1z"/>
<path d="M231.3,362.1c0-0.1,0-0.1,0.1-0.2c0,0,0.1-0.1,0.1-0.1c0,0,0.1,0,0.1,0c0,0,0.1,0.1,0.1,0.1c0,0,0,0.1,0,0.1
	c0,0.1,0,0.1,0,0.1c0,0-0.1,0.1-0.1,0.1c0,0-0.1,0-0.1,0c0,0-0.1,0-0.1,0s-0.1-0.1-0.1-0.1S231.3,362.1,231.3,362.1z M231.4,362.1
	c0,0.1,0,0.1,0,0.1c0,0,0.1,0.1,0.1,0.1c0.1,0,0.1,0,0.1-0.1c0,0,0-0.1,0-0.1c0,0,0-0.1,0-0.1c0,0,0-0.1-0.1-0.1c0,0-0.1,0-0.1,0
	c0,0-0.1,0-0.1,0C231.4,362,231.4,362,231.4,362.1z"/>
<path d="M231.8,362.3v-0.4h0.1l0.2,0.3v-0.3h0.1v0.4H232l-0.2-0.3L231.8,362.3L231.8,362.3z"/>
<path d="M232.2,362.3v-0.4h0.1c0,0,0.1,0,0.1,0c0,0,0.1,0,0.1,0c0,0,0,0.1,0.1,0.1c0,0,0,0.1,0,0.1c0,0,0,0.1,0,0.1c0,0,0,0.1,0,0.1
	c0,0,0,0,0,0c0,0,0,0-0.1,0s-0.1,0-0.1,0H232.2z M232.2,362.2L232.2,362.2c0.1,0,0.1,0,0.1,0c0,0,0,0,0,0c0,0,0,0,0-0.1s0-0.1,0-0.1
	c0-0.1,0-0.1,0-0.1c0,0,0,0-0.1-0.1c0,0,0,0-0.1,0h-0.1L232.2,362.2z"/>
<path d="M232.8,362.3v-0.3h-0.1v-0.1h0.3v0.1h-0.1L232.8,362.3L232.8,362.3z"/>
<path d="M233,362.1c0-0.1,0-0.1,0.1-0.2c0,0,0.1-0.1,0.1-0.1c0,0,0.1,0,0.1,0c0,0,0.1,0.1,0.1,0.1c0,0,0,0.1,0,0.1
	c0,0.1,0,0.1,0,0.1c0,0-0.1,0.1-0.1,0.1c0,0-0.1,0-0.1,0c0,0-0.1,0-0.1,0c0,0-0.1-0.1-0.1-0.1C233,362.2,233,362.1,233,362.1z
	 M233.1,362.1c0,0.1,0,0.1,0,0.1c0,0,0.1,0.1,0.1,0.1c0.1,0,0.1,0,0.1-0.1c0,0,0-0.1,0-0.1c0,0,0-0.1,0-0.1c0,0,0-0.1-0.1-0.1
	c0,0-0.1,0-0.1,0c0,0-0.1,0-0.1,0C233.1,362,233.1,362,233.1,362.1z"/>
<path d="M233.5,362.3l0.2-0.4h0.1l0.2,0.4h-0.1l-0.1-0.1h-0.2L233.5,362.3L233.5,362.3z M233.7,362.1h0.1l-0.1-0.1c0,0,0-0.1,0-0.1
	c0,0,0,0.1,0,0.1L233.7,362.1z"/>
<path d="M234,362.3v-0.4h0.1L234,362.3l0.2-0.1v0.1H234z"/>
<path d="M234.3,362.3v-0.4h0.1L234.3,362.3l0.2-0.1v0.1H234.3z"/>
<path d="M235,362.1L235,362.1c0.1,0.1,0,0.1,0,0.1s-0.1,0-0.1,0c-0.1,0-0.1,0-0.1,0s-0.1-0.1-0.1-0.1c0,0,0-0.1,0-0.1
	c0-0.1,0-0.1,0-0.1c0,0,0-0.1,0.1-0.1c0,0,0.1,0,0.1,0s0.1,0,0.1,0c0,0,0.1,0.1,0.1,0.1H235c0,0,0-0.1-0.1-0.1c0,0-0.1,0-0.1,0
	c0,0-0.1,0-0.1,0c0,0,0,0-0.1,0.1c0,0,0,0.1,0,0.1c0,0,0,0.1,0,0.1c0,0,0,0.1,0.1,0.1S234.9,362.2,235,362.1
	C235,362.2,235,362.2,235,362.1C235,362.2,235,362.2,235,362.1z"/>
<path d="M235.1,362.3l0.2-0.4h0.1l0.2,0.4h-0.1l-0.1-0.1h-0.2L235.1,362.3L235.1,362.3z M235.2,362.1h0.1l-0.1-0.1c0,0,0-0.1,0-0.1
	c0,0,0,0.1,0,0.1L235.2,362.1z"/>
<path d="M235.5,362.3v-0.4h0.1L235.5,362.3l0.2-0.1v0.1H235.5z"/>
<path d="M235.8,362.3v-0.4h0.1L235.8,362.3l0.2-0.1v0.1H235.8z"/>
<path d="M236.1,362.2L236.1,362.2C236.1,362.2,236.1,362.2,236.1,362.2c0.1,0.1,0.1,0.1,0.1,0.1c0,0,0,0,0.1,0c0,0,0,0,0.1,0
	s0,0,0,0v0v0l0,0c0,0,0,0-0.1,0C236.2,362.1,236.2,362.1,236.1,362.2c0.1-0.1,0.1-0.1,0-0.1c0,0,0,0,0-0.1s0,0,0-0.1
	c0,0,0,0,0.1-0.1c0,0,0.1,0,0.1,0c0,0,0.1,0,0.1,0c0,0,0.1,0,0.1,0.1s0,0.1,0,0.1h-0.1c0,0,0-0.1,0-0.1c0,0,0,0-0.1,0
	c0,0-0.1,0-0.1,0c0,0,0,0,0,0.1s0,0,0,0c0,0,0,0,0.1,0c0.1,0,0.1,0,0.1,0c0,0,0.1,0,0.1,0.1s0,0,0,0.1s0,0.1,0,0.1c0,0,0,0-0.1,0.1
	s-0.1,0-0.1,0c0,0-0.1,0-0.1,0C236.1,362.3,236.1,362.3,236.1,362.2C236.1,362.2,236.1,362.2,236.1,362.2z"/>
<path d="M229.6,363.5v-0.7h0.3c0.1,0,0.1,0,0.1,0c0,0,0.1,0,0.1,0c0,0,0.1,0,0.1,0.1c0,0,0,0.1,0,0.1c0,0.1,0,0.1-0.1,0.2
	c0,0.1-0.1,0.1-0.2,0.1h-0.2L229.6,363.5L229.6,363.5z M229.6,363.1h0.2c0.1,0,0.1,0,0.1,0s0-0.1,0-0.1c0,0,0-0.1,0-0.1
	c0,0,0,0-0.1-0.1c0,0-0.1,0-0.1,0h-0.2V363.1z"/>
<path d="M230.7,362.8h0.1v0.4c0,0.1,0,0.1,0,0.2c0,0.1-0.1,0.1-0.1,0.1c-0.1,0-0.1,0-0.2,0c-0.1,0-0.1,0-0.2,0
	c-0.1,0-0.1-0.1-0.1-0.1c0-0.1,0-0.1,0-0.2v-0.4h0.1v0.4c0,0.1,0,0.1,0,0.1c0,0,0,0.1,0.1,0.1c0,0,0.1,0,0.1,0c0.1,0,0.1,0,0.2-0.1
	c0,0,0.1-0.1,0.1-0.2L230.7,362.8z"/>
<path d="M230.9,363.5v-0.7h0.1v0.6h0.3v0.1L230.9,363.5z"/>
<path d="M231.5,363.5v-0.7h0.1v0.6h0.3v0.1L231.5,363.5z"/>
<path d="M232.4,363.5v-0.6h-0.2v-0.1h0.6v0.1h-0.2L232.4,363.5L232.4,363.5z"/>
<path d="M232.8,363.1c0-0.1,0-0.2,0.1-0.3c0.1-0.1,0.1-0.1,0.2-0.1c0.1,0,0.1,0,0.2,0.1s0.1,0.1,0.1,0.1c0,0.1,0.1,0.1,0.1,0.2
	c0,0.1,0,0.1-0.1,0.2c0,0.1-0.1,0.1-0.1,0.1s-0.1,0.1-0.2,0.1s-0.1,0-0.2-0.1c-0.1,0-0.1-0.1-0.1-0.1
	C232.8,363.3,232.8,363.2,232.8,363.1z M232.9,363.1c0,0.1,0,0.2,0.1,0.2c0.1,0.1,0.1,0.1,0.2,0.1s0.1,0,0.2-0.1
	c0.1-0.1,0.1-0.1,0.1-0.2c0-0.1,0-0.1,0-0.2c0-0.1-0.1-0.1-0.1-0.1c0,0-0.1,0-0.1,0c-0.1,0-0.1,0-0.2,0.1
	C232.9,362.9,232.9,363,232.9,363.1z"/>
<path d="M233.8,363.1c0-0.1,0-0.2,0.1-0.3c0.1-0.1,0.1-0.1,0.2-0.1c0.1,0,0.1,0,0.2,0.1s0.1,0.1,0.1,0.1c0,0.1,0.1,0.1,0.1,0.2
	c0,0.1,0,0.1-0.1,0.2c0,0.1-0.1,0.1-0.1,0.1s-0.1,0.1-0.2,0.1c-0.1,0-0.1,0-0.2-0.1c-0.1,0-0.1-0.1-0.1-0.1
	C233.8,363.3,233.8,363.2,233.8,363.1z M233.9,363.1c0,0.1,0,0.2,0.1,0.2c0.1,0.1,0.1,0.1,0.2,0.1c0.1,0,0.1,0,0.2-0.1
	c0.1-0.1,0.1-0.1,0.1-0.2c0-0.1,0-0.1,0-0.2c0-0.1-0.1-0.1-0.1-0.1c0,0-0.1,0-0.1,0c-0.1,0-0.1,0-0.2,0.1
	C233.9,362.9,233.9,363,233.9,363.1z"/>
<path d="M234.6,363.5v-0.7h0.3c0.1,0,0.1,0,0.1,0c0,0,0.1,0,0.1,0c0,0,0.1,0,0.1,0.1c0,0,0,0.1,0,0.1c0,0.1,0,0.1-0.1,0.2
	c0,0.1-0.1,0.1-0.2,0.1h-0.2L234.6,363.5L234.6,363.5z M234.7,363.1h0.2c0.1,0,0.1,0,0.1,0s0-0.1,0-0.1c0,0,0-0.1,0-0.1s0,0-0.1-0.1
	c0,0-0.1,0-0.1,0h-0.2V363.1z"/>
<path d="M235.3,363.5v-0.7h0.5v0.1h-0.4v0.2h0.4v0.1h-0.4v0.2h0.4v0.1L235.3,363.5z"/>
<path d="M235.9,363.5v-0.7h0.1l0.4,0.6v-0.6h0.1v0.7h-0.1l-0.4-0.6L235.9,363.5L235.9,363.5z"/>
<path fill="#E1E1E1" d="M249,359.2c0,0.9-0.8,1.7-1.7,1.7c-0.9,0-1.7-0.8-1.7-1.7s0.8-1.7,1.7-1.7C248.3,357.6,249,358.3,249,359.2z
	 M248.6,359.2c0-0.7-0.6-1.3-1.3-1.3s-1.3,0.5-1.3,1.3c0,0.7,0.6,1.3,1.3,1.3C248,360.5,248.6,360,248.6,359.2z M247.9,357.7
	C247.8,357.7,247.8,357.7,247.9,357.7l-0.1,0c0,0.1-0.1,0.1-0.1,0.1c0,0,0,0,0,0l0,0c0-0.1,0-0.1,0-0.2v0c0,0-0.1,0-0.1,0
	c0,0.1-0.1,0.2-0.1,0.3c0,0,0,0,0.1,0c0-0.1,0-0.1,0.1-0.2l0,0c0,0.1,0,0.1,0,0.2c0,0,0,0,0,0c0,0,0,0,0,0c0,0,0,0,0-0.1
	c0,0,0.1-0.1,0.1-0.1l0,0c0,0.1,0,0.1-0.1,0.2c0,0,0.1,0,0.1,0C247.8,357.8,247.8,357.8,247.9,357.7z M246.7,357.9L246.7,357.9
	c-0.1,0-0.1-0.1-0.2-0.1h0c0,0,0,0-0.1,0c0.1,0.1,0.1,0.2,0.1,0.2c0,0,0,0,0.1,0c0-0.1-0.1-0.1-0.1-0.2l0,0
	C246.6,357.9,246.6,358,246.7,357.9L246.7,357.9c0.1,0.1,0.1,0,0.1,0c-0.1-0.1-0.1-0.2-0.1-0.2c0,0,0,0-0.1,0
	C246.6,357.8,246.6,357.9,246.7,357.9z M249,358.9c-0.1,0-0.1,0-0.2,0.1C248.8,358.9,248.9,358.9,249,358.9l-0.1-0.1
	c0,0,0-0.1,0-0.1c-0.1,0-0.2,0.1-0.3,0.1c0,0,0,0,0,0.1c0.1,0,0.1,0,0.2-0.1c-0.1,0.1-0.1,0.1-0.2,0.1c0,0,0,0,0,0s0,0,0,0.1
	C248.7,359,248.8,359,249,358.9C249,358.9,249,358.9,249,358.9z M248,357.7c-0.1,0.1-0.1,0.2-0.1,0.2c0.1,0,0.1,0.1,0.1,0.1
	c0,0,0.1,0,0.1,0c0,0,0-0.1,0-0.1l0,0c0,0,0,0,0,0c0.1,0,0.1-0.1,0.1-0.1l0,0C248.1,357.8,248.1,357.7,248,357.7z M246,358.4
	c0,0.1,0.1,0.1,0.1,0.1c0.1,0,0.2,0,0.2-0.1c0-0.1-0.1-0.1-0.1-0.1C246,358.2,246,358.3,246,358.4z M246.2,358.1
	C246.2,358.1,246.2,358.1,246.2,358.1c0,0.1,0.1,0.2,0.1,0.3c0,0,0,0,0.1-0.1c0,0-0.1-0.1-0.1-0.1c0,0,0.1-0.1,0.1-0.1
	c0,0,0.1,0.1,0.1,0.1c0,0,0,0,0.1-0.1c-0.1-0.1-0.1-0.1-0.2-0.2C246.3,358,246.3,358,246.2,358.1c0.1-0.1,0.1,0,0.2,0
	C246.3,358.1,246.3,358.1,246.2,358.1C246.2,358.1,246.2,358.1,246.2,358.1z M248.3,357.9c-0.1,0.1-0.1,0.1-0.1,0.1c0,0,0,0.1,0,0.1
	c0,0.1,0.1,0.1,0.2,0c0,0,0.1-0.1,0.1-0.1l0,0c0,0,0,0-0.1-0.1c0,0.1-0.1,0.1-0.1,0.1l0,0c0,0,0,0-0.1,0c0,0,0,0,0-0.1l0,0
	C248.3,358,248.3,358,248.3,357.9C248.3,357.9,248.3,357.9,248.3,357.9z M248.8,358.5C248.8,358.5,248.8,358.5,248.8,358.5
	C248.8,358.4,248.8,358.4,248.8,358.5c-0.1-0.1-0.2,0-0.2,0c-0.1,0-0.1,0-0.1,0c0,0,0,0.1,0,0.1c0,0,0.1,0,0.1,0c0,0,0,0.1,0,0.1
	l0,0c0,0,0,0-0.1,0.1c0,0,0,0.1,0,0.1C248.7,358.7,248.7,358.6,248.8,358.5z M247.5,357.9C247.5,357.9,247.5,357.8,247.5,357.9
	c0-0.1-0.1-0.2-0.1-0.2c0,0,0-0.1,0-0.1c0,0,0,0-0.1,0s0,0,0,0c0,0.1-0.1,0.2-0.1,0.2c0,0,0,0,0,0c0,0,0,0,0.1,0c0,0,0,0,0,0
	s0-0.1,0-0.1c0,0,0,0,0.1,0S247.4,357.8,247.5,357.9C247.4,357.9,247.4,357.9,247.5,357.9C247.4,357.9,247.4,357.9,247.5,357.9z
	 M247.4,360.7c-0.1,0-0.1,0-0.1-0.1c0,0.1,0,0.1,0,0.1C247.2,360.8,247.3,360.7,247.4,360.7c0,0.1,0,0.1-0.1,0.1c0.1,0,0.1,0,0.1,0
	C247.4,360.8,247.4,360.8,247.4,360.7c0.1,0,0.1,0.1,0.1,0.1c0-0.1,0-0.1,0-0.1C247.4,360.7,247.4,360.7,247.4,360.7
	c0-0.1,0.1-0.1,0.1-0.1c-0.1,0-0.1,0-0.1,0C247.3,360.6,247.3,360.7,247.4,360.7z M248.9,359.6c0-0.1,0-0.1,0-0.2
	c-0.1,0-0.2,0-0.3-0.1c0,0,0,0.1,0,0.1c0,0,0,0.1,0,0.1c0,0,0,0,0.1,0c0,0,0-0.1,0-0.1c0,0,0.1,0,0.1,0c0,0,0,0.1,0,0.1
	c0,0,0,0,0.1,0c0,0,0-0.1,0-0.1c0,0,0,0,0.1,0c0,0,0,0,0,0.1S248.9,359.5,248.9,359.6C248.9,359.6,248.9,359.6,248.9,359.6z
	 M246,359.6L246,359.6C246,359.6,246,359.6,246,359.6c0.1-0.1,0.1-0.1,0-0.1c0,0-0.1-0.1-0.1-0.1c0,0-0.1,0-0.1,0.1c0,0,0,0,0,0.1
	l0,0c0,0,0,0,0,0v0c0,0,0,0,0-0.1c0,0,0,0-0.1,0c0,0.1,0,0.1,0,0.1c0,0,0.1,0,0.1,0C245.9,359.6,245.9,359.6,246,359.6
	c-0.1-0.1-0.1-0.1-0.1-0.1l0,0c0,0,0,0,0,0V359.6C246,359.6,246,359.6,246,359.6z M249,359.3C249,359.3,249,359.3,249,359.3
	c0-0.2-0.1-0.2-0.1-0.2s-0.1,0.1-0.1,0.1c0,0,0,0,0,0.1c0,0.1,0,0.1,0.1,0l0,0c0-0.1,0-0.1,0-0.1c0,0,0.1,0,0.1,0
	C248.9,359.2,248.9,359.2,249,359.3C248.9,359.3,249,359.3,249,359.3z M248.5,358.4C248.5,358.4,248.5,358.4,248.5,358.4
	c0-0.1,0.1-0.2,0.1-0.2c0,0,0,0,0-0.1c-0.1,0.1-0.2,0.1-0.2,0.2C248.4,358.4,248.5,358.5,248.5,358.4
	C248.5,358.4,248.5,358.4,248.5,358.4z M246.1,358.8C246.1,358.8,246.1,358.8,246.1,358.8c0.1-0.1,0-0.1,0-0.2
	c-0.1,0-0.1-0.1-0.2-0.1c0,0,0,0.1,0,0.1h0c0.1,0,0.1,0,0.1,0.1C246,358.7,246,358.7,246.1,358.8L246.1,358.8
	C246,358.8,246,358.8,246.1,358.8z M245.7,359.3c0,0.1,0,0.1,0,0.2c0,0,0,0,0.1,0c0,0,0,0,0-0.1c0.1,0,0.1,0,0.2,0c0,0,0,0,0-0.1
	C245.9,359.3,245.8,359.3,245.7,359.3C245.7,359.3,245.7,359.3,245.7,359.3C245.7,359.3,245.7,359.3,245.7,359.3z M246,359.4
	C246,359.4,246,359.4,246,359.4C246,359.3,246,359.3,246,359.4C246,359.3,246,359.3,246,359.4C246,359.4,246,359.4,246,359.4z"/>
<path d="M248.6,359.2c0,0.8-0.6,1.3-1.3,1.3c-0.7,0-1.3-0.6-1.3-1.3c0-0.8,0.6-1.3,1.3-1.3C248.1,358,248.6,358.5,248.6,359.2z
	 M247.3,360.5c0.7,0,1.3-0.6,1.3-1.2c0-0.7-0.6-1.3-1.2-1.3c-0.7,0-1.3,0.6-1.3,1.3C246.1,359.9,246.7,360.5,247.3,360.5z"/>
<path d="M247.9,357.7c0,0.1,0,0.2-0.1,0.3c0,0,0,0-0.1,0C247.8,357.8,247.8,357.8,247.9,357.7L247.9,357.7c-0.1,0.1-0.1,0.1-0.1,0.1
	c0,0,0,0,0,0.1s0,0,0,0c0,0,0,0,0,0c0-0.1,0-0.1,0-0.2l0,0c0,0.1,0,0.1-0.1,0.2c0,0,0,0-0.1,0c0-0.1,0.1-0.2,0.1-0.3
	c0,0,0.1,0,0.1,0c0,0,0,0,0,0c0,0.1,0,0.1,0,0.2l0,0c0,0,0,0,0,0C247.8,357.7,247.8,357.7,247.9,357.7L247.9,357.7
	C247.8,357.7,247.8,357.7,247.9,357.7z"/>
<path d="M246.7,357.9c0-0.1-0.1-0.1-0.1-0.2c0,0,0,0,0.1,0C246.7,357.8,246.7,357.9,246.7,357.9C246.7,358,246.7,358,246.7,357.9
	L246.7,357.9c-0.1,0.1-0.1,0-0.2,0l0,0c0,0.1,0.1,0.1,0.1,0.2c0,0,0,0-0.1,0c-0.1-0.1-0.1-0.2-0.1-0.2c0,0,0,0,0.1,0h0
	C246.6,357.9,246.6,357.9,246.7,357.9L246.7,357.9z"/>
<path d="M249,358.9C249,358.9,249,358.9,249,358.9c-0.1,0.1-0.2,0.1-0.2,0.1c0,0,0,0,0-0.1v0c0.1-0.1,0.1-0.1,0.2-0.1
	c-0.1,0-0.1,0-0.2,0.1c0,0,0,0,0-0.1c0.1,0,0.2-0.1,0.3-0.1c0,0,0,0.1,0,0.1L249,358.9c0,0-0.1,0-0.1,0.1
	C248.8,358.9,248.9,358.9,249,358.9z"/>
<path d="M248,357.7c0,0,0.1,0,0.1,0.1l0,0c0,0.1,0,0.1-0.1,0.1c0,0,0,0,0,0l0,0c0,0,0,0.1,0,0.1c0,0-0.1,0-0.1,0c0,0-0.1,0-0.1-0.1
	C247.9,357.9,248,357.8,248,357.7z M248,358C248,358,248,358,248,358h0.1C248.1,358,248,358,248,358L248,358
	C248,357.9,248,358,248,358z M248,357.9C248,357.9,248,357.9,248,357.9C248.1,357.9,248.1,357.9,248,357.9
	C248.1,357.8,248.1,357.8,248,357.9L248,357.9C248,357.8,248,357.8,248,357.9z"/>
<path d="M246,358.4c0-0.1,0.1-0.2,0.2-0.1c0.1,0,0.1,0.1,0.1,0.1c0,0.1-0.1,0.2-0.2,0.1C246,358.5,246,358.4,246,358.4z
	 M246.1,358.5C246.2,358.5,246.2,358.4,246.1,358.5c0-0.1,0-0.1-0.1-0.1s-0.1,0-0.1,0.1C246,358.4,246.1,358.5,246.1,358.5z"/>
<path d="M246.2,358.1C246.2,358.1,246.2,358.1,246.2,358.1c0.1,0.1,0.1,0,0.2,0C246.3,358,246.3,358,246.2,358.1
	c0.1-0.1,0.1-0.1,0.1-0.1c0.1,0.1,0.1,0.1,0.2,0.2c0,0,0,0-0.1,0.1c0,0-0.1-0.1-0.1-0.1c0,0-0.1,0.1-0.1,0.1c0,0,0.1,0.1,0.1,0.1
	c0,0,0,0-0.1,0.1C246.3,358.2,246.2,358.2,246.2,358.1C246.2,358.1,246.2,358.1,246.2,358.1z"/>
<path d="M248.3,357.9C248.3,357.9,248.3,357.9,248.3,357.9c0,0.1,0,0.1-0.1,0.2l0,0c0,0,0,0.1,0,0.1c0,0,0,0,0.1,0l0,0
	c0,0,0.1-0.1,0.1-0.1c0,0,0,0,0.1,0.1l0,0c0,0-0.1,0.1-0.1,0.1c-0.1,0.1-0.2,0.1-0.2,0c0-0.1,0-0.1,0-0.1
	C248.2,358,248.3,358,248.3,357.9z"/>
<path d="M248.8,358.5c-0.1,0.1-0.1,0.1-0.2,0.2c0,0,0-0.1,0-0.1c0,0,0,0,0.1-0.1l0,0c0,0,0-0.1,0-0.1c0,0-0.1,0-0.1,0c0,0,0,0,0-0.1
	c0.1,0,0.1,0,0.1,0C248.7,358.5,248.7,358.5,248.8,358.5L248.8,358.5C248.8,358.5,248.8,358.5,248.8,358.5z M248.8,358.5
	c-0.1,0-0.1,0-0.1,0C248.7,358.6,248.7,358.6,248.8,358.5C248.7,358.6,248.7,358.6,248.8,358.5z"/>
<path d="M247.5,357.9C247.4,357.9,247.4,357.9,247.5,357.9c-0.1,0-0.1,0-0.1-0.1c0,0,0,0,0,0c0,0-0.1,0-0.1,0s0,0,0,0.1c0,0,0,0,0,0
	c0,0,0,0-0.1,0c0,0,0,0,0,0c0-0.1,0.1-0.2,0.1-0.2c0,0,0,0,0,0c0,0,0.1,0,0.1,0c0,0,0,0,0,0.1C247.4,357.7,247.4,357.8,247.5,357.9
	C247.5,357.8,247.5,357.9,247.5,357.9z M247.3,357.6c0,0.1,0,0.1,0,0.1c0,0,0,0,0.1,0C247.4,357.7,247.3,357.7,247.3,357.6z"/>
<path d="M247.4,360.7c0-0.1,0-0.1-0.1-0.1c0.1,0,0.1,0,0.1,0C247.4,360.6,247.4,360.7,247.4,360.7c0.1,0,0.1,0,0.1-0.1
	c0,0.1,0,0.1,0,0.1C247.4,360.8,247.4,360.8,247.4,360.7c0,0.1,0.1,0.1,0.1,0.1c-0.1,0-0.1,0-0.1,0
	C247.3,360.8,247.3,360.8,247.4,360.7c-0.1,0-0.1,0.1-0.1,0.1c0-0.1,0-0.1,0-0.1C247.2,360.7,247.3,360.7,247.4,360.7z"/>
<path d="M248.9,359.6C248.9,359.6,248.9,359.6,248.9,359.6C248.9,359.6,248.9,359.6,248.9,359.6c-0.1-0.1-0.1-0.1-0.1-0.1
	c0,0,0,0-0.1,0c0,0,0,0.1,0,0.1c0,0,0,0-0.1,0c0,0,0-0.1,0-0.1c0,0-0.1,0-0.1,0c0,0,0,0.1,0,0.1c0,0,0,0-0.1,0c0,0,0-0.1,0-0.1
	c0,0,0-0.1,0-0.1c0.1,0,0.2,0,0.3,0.1C249,359.5,248.9,359.6,248.9,359.6z"/>
<path d="M246,359.6C246,359.6,246,359.6,246,359.6L246,359.6l0-0.1C246,359.5,245.9,359.5,246,359.6
	C245.9,359.6,245.9,359.6,246,359.6c-0.1,0-0.1,0-0.1,0.1c0,0-0.1,0-0.1,0s0-0.1,0-0.1c0,0,0,0,0.1,0c0,0,0,0,0,0.1v0l0,0l0,0
	c0,0,0,0,0-0.1c0-0.1,0-0.1,0.1-0.1c0,0,0.1,0,0.1,0.1C246,359.6,246,359.6,246,359.6C246,359.7,246,359.7,246,359.6
	C246,359.6,246,359.6,246,359.6z"/>
<path d="M249,359.3C248.9,359.3,248.9,359.3,249,359.3c-0.1-0.1,0-0.1-0.1-0.1c0,0-0.1,0-0.1,0c-0.1,0-0.1,0.1,0,0.1l0,0
	c-0.1,0-0.1,0-0.1,0c0,0,0,0,0-0.1c0-0.1,0.1-0.1,0.1-0.1C248.9,359.1,249,359.2,249,359.3C249,359.3,249,359.3,249,359.3z"/>
<path d="M248.5,358.4C248.5,358.4,248.5,358.5,248.5,358.4c-0.1,0-0.1-0.1-0.2-0.1c0.1-0.1,0.2-0.1,0.2-0.2c0,0,0,0,0,0.1
	c-0.1,0.1-0.1,0.1-0.2,0.1C248.5,358.4,248.5,358.4,248.5,358.4z"/>
<path d="M246.1,358.8C246,358.8,246,358.8,246.1,358.8L246.1,358.8c0-0.1,0-0.1-0.1-0.1c-0.1,0-0.1,0-0.1-0.1c0,0,0,0,0,0
	c0,0,0,0,0-0.1c0.1,0,0.1,0.1,0.2,0.1C246.1,358.7,246.1,358.7,246.1,358.8C246.1,358.8,246.1,358.8,246.1,358.8z"/>
<path d="M245.7,359.3C245.7,359.3,245.7,359.3,245.7,359.3C245.8,359.3,245.8,359.3,245.7,359.3c0.1,0.1,0.2,0.1,0.2,0.1
	c0,0,0,0,0,0.1c-0.1,0-0.1,0-0.2,0c0,0,0,0,0,0.1c0,0,0,0-0.1,0C245.7,359.4,245.7,359.3,245.7,359.3z"/>
<path d="M246,359.4C246,359.4,246,359.4,246,359.4C246,359.3,246,359.3,246,359.4C246,359.3,246,359.3,246,359.4
	C246,359.4,246,359.4,246,359.4z"/>
<path fill="#E1E1E1" d="M247.3,360.5c-0.7,0-1.2-0.6-1.2-1.3c0-0.7,0.6-1.3,1.3-1.3c0.6,0,1.2,0.5,1.2,1.3
	C248.6,359.9,248.1,360.5,247.3,360.5z M248.5,359.2c0-0.6-0.5-1.2-1.2-1.2c-0.7,0-1.2,0.6-1.2,1.2c0,0.6,0.5,1.2,1.2,1.2
	C248,360.4,248.5,359.8,248.5,359.2z"/>
<path fill="#E1E1E1" d="M248,358C248,358,248,357.9,248,358L248,358C248,357.9,248,358,248,358C248,358,248,358,248,358
	C248,358,248,358,248,358z"/>
<path fill="#E1E1E1" d="M248,357.9C248,357.8,248,357.8,248,357.9C248.1,357.8,248.1,357.8,248,357.9
	C248.1,357.8,248.1,357.9,248,357.9C248.1,357.9,248,357.9,248,357.9C248,357.9,248,357.9,248,357.9z"/>
<path fill="#E1E1E1" d="M246.1,358.5c-0.1,0-0.1,0-0.1-0.1c0-0.1,0-0.1,0.1-0.1c0.1,0,0.1,0,0.1,0.1
	C246.2,358.4,246.2,358.5,246.1,358.5z"/>
<path fill="#E1E1E1" d="M248.8,358.5C248.7,358.6,248.7,358.6,248.8,358.5c-0.1,0.1-0.1,0.1-0.1,0
	C248.7,358.5,248.7,358.5,248.8,358.5z"/>
<path fill="#E1E1E1" d="M247.3,357.6c0,0,0,0.1,0,0.1c0,0,0,0-0.1,0C247.3,357.7,247.3,357.7,247.3,357.6z"/>
<path d="M248.5,359.2c0,0.6-0.5,1.2-1.2,1.2c-0.7,0-1.2-0.6-1.2-1.2c0-0.6,0.5-1.2,1.2-1.2C248,358.1,248.5,358.6,248.5,359.2z
	 M247.6,359.4L247.6,359.4L247.6,359.4C247.7,359.4,247.7,359.4,247.6,359.4C247.7,359.4,247.7,359.4,247.6,359.4
	C247.7,359.4,247.7,359.4,247.6,359.4L247.6,359.4L247.6,359.4C247.7,359.4,247.7,359.4,247.6,359.4
	C247.7,359.4,247.6,359.4,247.6,359.4C247.6,359.3,247.6,359.3,247.6,359.4c-0.1,0-0.1-0.1-0.1-0.1c0,0-0.1,0-0.1,0c0,0,0,0,0,0
	c0,0,0,0,0,0v0c0,0,0,0,0,0c0,0,0,0,0,0c0,0,0,0,0,0c0,0,0,0,0,0.1c0,0,0,0,0,0C247.6,359.4,247.6,359.5,247.6,359.4
	c0,0.1,0,0.1,0,0.1c0,0,0,0,0,0.1s0,0,0,0c0,0,0,0,0-0.1l0,0c0,0,0,0,0,0C247.7,359.5,247.7,359.5,247.6,359.4
	C247.6,359.4,247.6,359.4,247.6,359.4C247.6,359.4,247.6,359.4,247.6,359.4C247.6,359.4,247.6,359.4,247.6,359.4z M247.4,359.2
	L247.4,359.2c0.3,0.1,0.6,0.3,0.9,0.4l0,0c-0.1-0.1-0.3-0.3-0.4-0.4c0.1-0.1,0.3-0.3,0.4-0.4c0,0,0,0,0,0c-0.1,0.1-0.2,0.1-0.4,0.2
	c-0.1,0-0.1,0.1-0.1,0c0,0-0.1,0-0.1,0c0,0,0,0,0,0c0,0,0,0,0,0.1l0,0c0,0,0.1,0,0.1,0l0,0l0,0c-0.1,0-0.2,0.1-0.3,0.1h0v0l0,0
	c0,0,0.1,0,0.1,0c0,0,0,0,0,0c0,0,0,0,0,0v0c0-0.1,0-0.1,0.1-0.1c0,0,0.1,0,0.1-0.1c0,0,0,0,0-0.1l0,0c0,0,0,0,0,0c0,0,0,0,0,0
	c0,0,0,0,0,0c0,0,0,0-0.1,0c0,0-0.1,0-0.1,0c0,0-0.1,0-0.1,0.1c0,0,0,0,0-0.1c0,0,0,0,0.1,0c0,0,0,0,0,0c0,0,0,0,0-0.1
	c0,0,0,0-0.1,0c0,0,0,0,0,0.1l0,0c0,0,0,0,0.1-0.1c0,0,0,0.1,0,0.1s0,0,0,0c0,0,0,0-0.1,0.1s0,0.1,0,0.1s0,0,0,0s0,0,0,0
	c0,0,0,0,0,0.1v0C247.4,359.1,247.4,359.2,247.4,359.2C247.4,359.2,247.4,359.2,247.4,359.2L247.4,359.2c0.1-0.3,0.2-0.6,0.3-0.9
	l0,0c-0.1,0.1-0.3,0.3-0.4,0.4c-0.1-0.1-0.3-0.3-0.4-0.4l0,0C247,358.6,247.2,358.9,247.4,359.2c-0.4-0.2-0.7-0.3-1-0.4
	c0.1,0.1,0.3,0.3,0.4,0.4c-0.1,0.1-0.3,0.3-0.4,0.4l0,0C246.7,359.5,247,359.3,247.4,359.2C247.3,359.2,247.3,359.2,247.4,359.2
	C247.3,359.3,247.3,359.3,247.4,359.2c-0.1,0.1-0.1,0.1-0.2,0.1c0,0,0,0,0,0c0,0,0,0,0,0c0,0,0,0-0.1,0h0c0,0-0.1,0-0.1,0.1
	s0,0,0,0.1c0,0,0,0-0.1,0c0,0,0,0,0.1-0.1c0,0-0.1,0-0.1,0c0,0,0,0,0,0.1s0,0,0.1,0l0,0c0,0,0,0,0-0.1s0,0,0.1,0
	c-0.1,0-0.1,0.1-0.1,0.2c0,0,0,0,0,0.1c0,0,0,0,0,0.1v0c0,0,0,0,0.1,0s0-0.1,0.1-0.1c0,0,0,0,0-0.1c0,0,0,0,0,0c0,0,0.1,0,0.1,0v0
	c0,0,0,0,0-0.1v0c0,0,0,0,0.1,0c0,0,0,0,0,0.1c0,0,0,0.1-0.1,0.1c0,0.1,0,0.1-0.1,0.1c0,0,0,0,0,0l0,0c0,0,0,0,0-0.1v0c0,0,0,0,0,0
	c0,0,0,0-0.1,0c0,0,0,0,0,0c0,0,0,0,0,0.1v0v0c-0.1,0.1-0.1,0.2-0.2,0.4c0,0,0,0.1,0,0.1l0,0c0.1-0.1,0.3-0.3,0.4-0.4
	c0.1,0.1,0.3,0.3,0.4,0.4l0,0C247.6,359.8,247.5,359.5,247.4,359.2z M247.9,359.5L247.9,359.5C247.8,359.4,247.8,359.4,247.9,359.5
	L247.9,359.5L247.9,359.5c-0.1-0.1-0.1-0.1-0.1,0l0,0c0,0,0,0-0.1,0c0,0,0,0.1,0,0.1l0,0l0,0c0,0,0,0,0,0l0,0c0,0,0,0,0,0.1
	c0,0,0,0,0,0c0,0,0,0,0,0s0,0,0,0c0,0,0,0,0.1,0c0,0,0,0,0-0.1C247.8,359.6,247.8,359.6,247.9,359.5
	C247.8,359.6,247.8,359.6,247.9,359.5C247.8,359.6,247.9,359.5,247.9,359.5z M247,358.7C247,358.7,247,358.7,247,358.7L247,358.7
	C247,358.7,247,358.7,247,358.7C247,358.7,247,358.7,247,358.7c-0.1,0.1-0.1,0.1-0.1,0.1l0,0c0,0,0,0,0,0.1l0,0v0c0,0,0,0,0,0l0,0
	c0,0,0,0,0.1,0l0,0c0,0,0,0,0,0c0,0,0,0,0,0l0,0c0,0,0,0,0.1,0l0,0c0,0,0-0.1,0.1-0.1C247.1,358.8,247.1,358.7,247,358.7
	C247.1,358.7,247.1,358.7,247,358.7L247,358.7L247,358.7C247.1,358.7,247.1,358.7,247,358.7z M247.2,359
	C247.2,358.9,247.2,358.9,247.2,359c-0.1-0.1-0.1-0.1-0.1-0.1c0,0,0,0,0-0.1c0,0,0,0,0,0.1l0,0c0,0,0,0,0-0.1s0,0,0,0c0,0,0,0,0,0
	c0,0,0,0,0,0.1L247.2,359C247.2,358.9,247.2,358.9,247.2,359C247.1,358.9,247.1,358.9,247.2,359l-0.1-0.1c0,0,0,0-0.1,0
	c0,0,0,0-0.1,0c0,0,0,0,0,0h0l0,0c0,0,0,0,0.1,0c0,0,0.1,0,0.1,0s0,0.1,0,0.1C247.1,359,247.1,359,247.2,359
	C247.2,359,247.2,359,247.2,359C247.1,359,247.1,359,247.2,359L247.2,359L247.2,359C247.2,359,247.2,359,247.2,359
	C247.2,359.1,247.2,359,247.2,359C247.2,359,247.2,359,247.2,359z M246.8,358.8L246.8,358.8L246.8,358.8
	C246.8,358.8,246.8,358.9,246.8,358.8C246.8,358.9,246.8,358.9,246.8,358.8L246.8,358.8L246.8,358.8c-0.1,0.1-0.1,0.1-0.1,0.1
	c0,0,0,0,0.1,0l0,0C246.9,358.9,246.9,358.9,246.8,358.8c0.1,0.1,0.1,0.1,0.1,0.1l0,0C246.9,358.9,246.9,358.9,246.8,358.8
	C246.9,358.9,246.9,358.9,246.8,358.8L246.8,358.8C246.9,358.8,246.9,358.8,246.8,358.8C246.9,358.8,246.9,358.8,246.8,358.8
	c0-0.1,0-0.1,0-0.1l0,0c0,0,0,0,0,0h0c0,0,0,0,0,0c0,0,0,0,0,0v0l0,0c0,0,0,0,0,0c0,0,0,0,0,0l0,0v0c0,0,0,0,0,0c0,0,0,0,0,0.1
	C246.7,358.7,246.8,358.7,246.8,358.8C246.8,358.8,246.8,358.8,246.8,358.8C246.8,358.8,246.8,358.8,246.8,358.8
	C246.8,358.8,246.8,358.8,246.8,358.8z M247.8,359.7C247.8,359.7,247.9,359.7,247.8,359.7C247.9,359.7,247.9,359.7,247.8,359.7
	C247.9,359.7,247.9,359.7,247.8,359.7L247.8,359.7L247.8,359.7C247.9,359.7,247.9,359.7,247.8,359.7l0.1-0.1h0
	C247.9,359.6,247.9,359.6,247.8,359.7c0-0.1,0-0.1,0-0.1c0,0,0,0,0,0l0,0c0,0,0,0,0,0c0,0,0,0-0.1,0c0,0,0,0,0,0c0,0-0.1,0-0.1,0h0
	l0,0v0c0,0,0,0,0,0c0,0,0,0,0,0c0,0,0,0.1,0,0.1v0l0,0c0,0,0,0,0,0s0,0.1,0,0l0,0v0c0,0,0,0,0,0c0-0.1,0-0.1,0-0.1c0,0,0,0,0,0l0,0
	C247.8,359.7,247.8,359.7,247.8,359.7z M246.9,359.7c0.1,0.1,0.1,0.1,0.1,0.2c0,0,0,0,0-0.1c0,0,0-0.1,0-0.1
	C247,359.7,247,359.7,246.9,359.7L246.9,359.7C246.9,359.7,246.9,359.7,246.9,359.7C246.9,359.7,246.9,359.7,246.9,359.7
	C246.9,359.7,246.9,359.7,246.9,359.7C246.9,359.7,246.9,359.7,246.9,359.7C246.9,359.7,246.8,359.7,246.9,359.7L246.9,359.7
	c-0.1,0.1-0.1,0.1-0.1,0.1c0,0,0,0,0,0h0c0,0,0,0,0,0C246.8,359.8,246.8,359.8,246.9,359.7C246.9,359.7,246.9,359.7,246.9,359.7
	C246.9,359.7,246.9,359.7,246.9,359.7z M246.9,359.6C246.9,359.6,246.9,359.6,246.9,359.6c0-0.1,0-0.1-0.1-0.1c0,0,0,0,0-0.1l0,0
	c0,0,0,0,0,0.1s0,0-0.1,0.1c0,0,0,0,0,0c0,0,0,0,0,0.1v0L246.9,359.6L246.9,359.6C246.8,359.6,246.8,359.6,246.9,359.6L246.9,359.6
	L246.9,359.6L246.9,359.6C246.9,359.6,246.9,359.6,246.9,359.6C246.9,359.6,246.9,359.6,246.9,359.6L246.9,359.6z M247.7,358.7
	L247.7,358.7C247.7,358.6,247.7,358.6,247.7,358.7c0,0-0.1,0-0.1,0.1l0,0C247.6,358.7,247.6,358.7,247.7,358.7
	c-0.1,0.1-0.1,0.1,0,0.1C247.7,358.8,247.7,358.8,247.7,358.7C247.7,358.7,247.7,358.7,247.7,358.7
	C247.7,358.7,247.7,358.7,247.7,358.7L247.7,358.7L247.7,358.7C247.8,358.6,247.8,358.6,247.7,358.7L247.7,358.7
	C247.7,358.7,247.7,358.7,247.7,358.7z M247.8,358.9L247.8,358.9L247.8,358.9C247.8,358.8,247.8,358.8,247.8,358.9L247.8,358.9
	L247.8,358.9L247.8,358.9c-0.1-0.1-0.1-0.1-0.1-0.1c0,0,0,0-0.1,0c0,0.1,0.1,0.1,0.1,0.1C247.7,358.9,247.7,358.9,247.8,358.9
	C247.8,358.9,247.8,358.9,247.8,358.9C247.8,358.9,247.8,358.9,247.8,358.9C247.8,358.9,247.8,358.9,247.8,358.9
	C247.8,358.9,247.8,358.9,247.8,358.9C247.8,358.8,247.8,358.8,247.8,358.9z M247,359.6L247,359.6c-0.1,0-0.1-0.1-0.1-0.1
	C246.9,359.5,246.9,359.5,247,359.6c-0.1,0-0.1,0-0.1,0C246.9,359.6,246.9,359.6,247,359.6c-0.1,0.1-0.1,0.1,0,0.1h0
	C247,359.7,247,359.7,247,359.6C247,359.6,247,359.6,247,359.6C247,359.6,247,359.6,247,359.6C247,359.6,247,359.6,247,359.6
	C247,359.6,247,359.6,247,359.6C247,359.6,247,359.6,247,359.6z M248,358.9C248,358.9,248,358.9,248,358.9
	C248,358.9,248,358.9,248,358.9c-0.1,0-0.1,0-0.1,0c0,0-0.1-0.1-0.1-0.1c0,0-0.1-0.1-0.1-0.1c0,0,0,0,0,0c0,0,0,0,0.1,0l0,0
	c0,0,0,0,0,0s0,0,0,0C247.9,358.8,247.9,358.9,248,358.9C248,358.9,248,358.9,248,358.9z M247.5,359.5
	C247.5,359.5,247.5,359.5,247.5,359.5C247.5,359.6,247.5,359.6,247.5,359.5l0,0.1l0,0C247.5,359.6,247.5,359.6,247.5,359.5
	C247.5,359.6,247.5,359.6,247.5,359.5L247.5,359.5C247.6,359.6,247.6,359.6,247.5,359.5L247.5,359.5
	C247.6,359.5,247.6,359.5,247.5,359.5C247.6,359.4,247.5,359.4,247.5,359.5C247.5,359.5,247.5,359.5,247.5,359.5z M247,359
	C247,359,247,359,247,359C247,359,247,359,247,359L247,359C247,359,247,359,247,359L247,359c0.1,0.1,0.1,0.1,0.1,0.1v0
	C247.1,359,247.1,359,247,359C247.1,359,247,358.9,247,359C247,359,247,359,247,359C247,358.9,247,358.9,247,359
	C247,358.9,247,359,247,359z M247.8,358.8L247.8,358.8C247.8,358.7,247.9,358.7,247.8,358.8l0.1,0C248,358.7,248,358.7,247.8,358.8
	L247.8,358.8L247.8,358.8C247.8,358.7,247.8,358.7,247.8,358.8C247.8,358.7,247.8,358.7,247.8,358.8
	C247.8,358.8,247.8,358.8,247.8,358.8z"/>
<path fill="#E1E1E1" d="M247.4,359.2c0.1,0.3,0.3,0.6,0.4,0.9l0,0c-0.1-0.1-0.3-0.2-0.4-0.4c-0.1,0.1-0.3,0.3-0.4,0.4l0,0
	c0,0,0-0.1,0-0.1c0.1-0.1,0.1-0.2,0.2-0.4v0v0c0,0,0-0.1,0-0.1c0,0,0,0,0,0c0,0,0,0,0.1,0c0,0,0,0,0,0v0c0,0,0,0,0,0.1l0,0
	c0,0,0,0,0,0c0-0.1,0-0.1,0.1-0.1c0,0,0-0.1,0.1-0.1c0,0,0-0.1,0-0.1c0,0,0,0-0.1,0v0c0,0,0,0,0,0.1v0c0,0-0.1,0-0.1,0l0,0
	c0,0,0,0,0,0.1s0,0.1-0.1,0.1s0,0-0.1,0v0c0,0,0,0,0-0.1c0,0,0,0,0-0.1c0-0.1,0.1-0.1,0.1-0.2c0,0,0,0-0.1,0c0,0,0,0,0,0.1l0,0
	c0,0-0.1,0-0.1,0c0,0,0,0,0-0.1c0,0,0,0,0.1,0c0,0,0,0-0.1,0.1c0,0,0,0,0.1,0c0,0,0,0,0-0.1s0-0.1,0.1-0.1h0c0,0,0,0,0.1,0
	c0,0,0,0,0,0s0,0,0,0C247.3,359.3,247.3,359.3,247.4,359.2C247.3,359.3,247.3,359.2,247.4,359.2
	C247.3,359.2,247.3,359.2,247.4,359.2c-0.3,0.1-0.6,0.3-0.9,0.4l0,0c0.1-0.1,0.2-0.3,0.4-0.4c-0.1-0.1-0.3-0.3-0.4-0.4
	C246.7,358.9,247,359.1,247.4,359.2c-0.2-0.3-0.3-0.7-0.4-0.9l0,0c0.1,0.1,0.3,0.3,0.4,0.4c0.1-0.1,0.3-0.3,0.4-0.4l0,0
	C247.6,358.6,247.5,358.9,247.4,359.2L247.4,359.2C247.4,359.2,247.4,359.2,247.4,359.2c0.1-0.1,0.1-0.1,0.1-0.1v0c0,0,0-0.1,0-0.1
	c0,0,0,0,0,0s0,0,0,0c0,0,0,0,0-0.1c0,0,0,0,0.1-0.1c0,0,0,0,0,0c0,0,0,0,0-0.1c0,0,0,0-0.1,0.1l0,0c0,0,0,0,0-0.1s0,0,0.1,0
	s0,0,0,0.1c0,0,0,0,0,0c0,0,0,0-0.1,0c0,0,0,0,0,0.1c0,0,0.1,0,0.1-0.1c0,0,0.1,0,0.1,0c0,0,0,0,0.1,0c0,0,0,0,0,0h0c0,0,0,0,0,0
	l0,0c0,0,0,0,0,0.1c0,0-0.1,0.1-0.1,0.1c-0.1,0-0.1,0-0.1,0.1v0c0,0,0,0,0,0c0,0,0,0,0,0c0,0,0,0-0.1,0c0,0,0,0,0,0v0h0
	c0.1,0,0.2-0.1,0.3-0.1l0,0l0,0c0,0-0.1,0-0.1,0h0c0,0,0-0.1,0-0.1h0c0,0,0,0,0.1,0c0.1,0,0.1,0,0.1,0c0.1-0.1,0.2-0.1,0.4-0.2
	c0,0,0,0,0,0c-0.1,0.1-0.3,0.3-0.4,0.4c0.1,0.1,0.3,0.3,0.4,0.4l0,0C248,359.5,247.7,359.4,247.4,359.2L247.4,359.2z"/>
<path fill="#E1E1E1" d="M247.9,359.5C247.9,359.5,247.9,359.5,247.9,359.5C247.9,359.6,247.9,359.6,247.9,359.5c0,0.1,0,0.1-0.1,0.1
	c0,0,0,0,0,0.1c0,0,0,0-0.1,0c0,0,0,0,0,0c0,0,0,0,0,0c0,0,0,0,0,0s0,0,0-0.1l0,0c0,0,0,0,0,0c0,0,0,0,0,0l0,0c0,0,0,0,0-0.1
	c0,0,0,0,0.1,0l0,0C247.8,359.4,247.8,359.4,247.9,359.5L247.9,359.5L247.9,359.5L247.9,359.5C247.8,359.5,247.8,359.5,247.9,359.5z
	 M247.8,359.5L247.8,359.5C247.7,359.6,247.7,359.6,247.8,359.5C247.8,359.6,247.8,359.6,247.8,359.5L247.8,359.5z M247.8,359.6
	C247.8,359.6,247.8,359.6,247.8,359.6C247.7,359.6,247.7,359.6,247.8,359.6C247.7,359.6,247.7,359.6,247.8,359.6L247.8,359.6
	L247.8,359.6L247.8,359.6C247.7,359.6,247.7,359.6,247.8,359.6C247.7,359.6,247.8,359.6,247.8,359.6
	C247.8,359.6,247.8,359.6,247.8,359.6z M247.8,359.5C247.8,359.6,247.8,359.6,247.8,359.5C247.8,359.5,247.8,359.5,247.8,359.5z"/>
<path fill="#E1E1E1" d="M247,358.7L247,358.7L247,358.7C247.1,358.7,247.1,358.7,247,358.7C247.1,358.7,247.1,358.7,247,358.7
	c0,0.1,0.1,0.1,0.1,0.1c0,0,0,0.1-0.1,0.1l0,0c0,0,0,0-0.1,0l0,0c0,0,0,0,0,0c0,0,0,0,0,0l0,0c0,0,0,0-0.1,0l0,0v0c0,0,0,0,0,0l0,0
	c0,0,0,0,0-0.1l0,0C246.9,358.7,246.9,358.7,247,358.7C247,358.7,247,358.7,247,358.7C247,358.7,247,358.7,247,358.7L247,358.7
	C247,358.7,247,358.7,247,358.7z M246.9,358.8C246.9,358.8,246.9,358.8,246.9,358.8L246.9,358.8
	C246.9,358.8,246.9,358.8,246.9,358.8z M247,358.8C247,358.8,247,358.8,247,358.8C247,358.8,247,358.8,247,358.8L247,358.8
	C247,358.8,247,358.8,247,358.8z M247,358.7C247,358.7,247,358.7,247,358.7C247,358.7,247,358.7,247,358.7z M247,358.7
	C247,358.8,247,358.8,247,358.7C247,358.8,247,358.8,247,358.7z"/>
<path fill="#E1E1E1" d="M247.2,359C247.2,359,247.2,359,247.2,359c0.1,0.1,0.1,0.1,0,0.1c0,0,0,0,0,0h0l0,0c0,0,0,0,0,0c0,0,0,0,0,0
	C247.2,359.1,247.1,359,247.2,359c-0.1,0.1-0.1,0-0.1,0c0,0,0,0-0.1,0c0,0-0.1,0-0.1,0l0,0h0c0,0,0,0,0,0c0,0,0,0,0.1,0
	S247.1,358.9,247.2,359L247.2,359C247.1,358.9,247.2,358.9,247.2,359C247.2,358.9,247.2,358.9,247.2,359
	C247.2,358.9,247.1,358.9,247.2,359c-0.1-0.1-0.1-0.1-0.1-0.1s0,0,0,0s0,0,0,0S247.2,358.9,247.2,359L247.2,359
	c0-0.1-0.1-0.1-0.1-0.1C247.1,358.9,247.1,358.9,247.2,359C247.2,358.9,247.2,358.9,247.2,359C247.2,358.9,247.2,358.9,247.2,359z"
	/>
<path fill="#E1E1E1" d="M246.8,358.8C246.8,358.8,246.8,358.8,246.8,358.8C246.8,358.8,246.8,358.8,246.8,358.8c0-0.1,0-0.1,0-0.1
	s0,0,0-0.1c0,0,0,0,0-0.1h0v0l0,0c0,0,0,0,0,0c0,0,0,0,0,0l0,0v0c0,0,0,0,0,0c0,0,0,0,0,0h0v0l0,0c0,0,0,0,0,0.1c0,0,0,0,0,0.1v0
	c0,0,0,0,0,0l0,0c0,0,0,0,0.1,0l0,0c0,0,0,0-0.1,0C246.9,358.9,246.9,358.9,246.8,358.8L246.8,358.8
	C246.9,358.9,246.9,358.9,246.8,358.8C246.8,358.9,246.8,358.9,246.8,358.8L246.8,358.8L246.8,358.8
	C246.8,358.8,246.8,358.9,246.8,358.8C246.9,358.8,246.9,358.8,246.8,358.8L246.8,358.8C246.9,358.8,246.9,358.8,246.8,358.8z"/>
<path fill="#E1E1E1" d="M247.8,359.7c0,0-0.1,0-0.1,0c0,0,0,0,0,0c0,0,0,0,0,0c-0.1,0.1-0.1,0.1,0,0.1c0,0,0,0,0,0v0l0,0
	c0,0,0,0,0,0c0,0,0,0,0,0l0,0v0c0,0,0-0.1,0-0.1c0,0,0,0,0,0c0,0,0,0,0,0v0c0,0,0,0,0,0c0,0,0,0,0,0
	C247.7,359.7,247.8,359.7,247.8,359.7C247.8,359.7,247.8,359.7,247.8,359.7C247.9,359.7,247.9,359.7,247.8,359.7
	C247.9,359.7,247.9,359.7,247.8,359.7L247.8,359.7C247.9,359.7,247.9,359.7,247.8,359.7C247.9,359.7,247.9,359.7,247.8,359.7
	C247.9,359.7,247.9,359.7,247.8,359.7C247.9,359.7,247.9,359.7,247.8,359.7L247.8,359.7L247.8,359.7L247.8,359.7L247.8,359.7
	L247.8,359.7C247.9,359.7,247.9,359.7,247.8,359.7C247.9,359.7,247.8,359.7,247.8,359.7z"/>
<path fill="#E1E1E1" d="M247.6,359.4C247.6,359.4,247.6,359.4,247.6,359.4C247.6,359.4,247.6,359.4,247.6,359.4
	C247.6,359.4,247.6,359.4,247.6,359.4c0,0.1,0.1,0.1,0,0.1c0,0,0,0,0,0l0,0c0,0,0,0,0,0.1c0,0,0,0,0,0s0,0,0-0.1
	C247.6,359.5,247.6,359.5,247.6,359.4c-0.1,0.1-0.1,0.1-0.1,0.1c0,0,0,0,0,0s0,0,0-0.1c0,0,0,0,0,0c0,0,0,0,0,0c0,0,0,0,0,0v0
	c0,0,0,0,0,0c0,0,0,0,0,0c0,0,0.1,0,0.1,0s0,0,0,0C247.6,359.3,247.6,359.3,247.6,359.4L247.6,359.4z"/>
<path fill="#E1E1E1" d="M246.9,359.7C246.9,359.7,246.9,359.7,246.9,359.7C246.9,359.7,246.9,359.7,246.9,359.7
	C246.8,359.7,246.8,359.8,246.9,359.7l0,0.1h0C246.8,359.8,246.8,359.8,246.9,359.7c-0.1,0.1-0.1,0.1-0.1,0v0
	C246.8,359.7,246.9,359.7,246.9,359.7C246.9,359.7,246.9,359.7,246.9,359.7C246.9,359.7,246.9,359.7,246.9,359.7
	C246.9,359.7,246.9,359.7,246.9,359.7C246.9,359.7,246.9,359.7,246.9,359.7L246.9,359.7c0.1,0,0.1,0,0.1,0.1c0,0,0,0.1,0,0.1
	c0,0,0,0.1,0,0.1C247,359.8,247,359.8,246.9,359.7z"/>
<path fill="#E1E1E1" d="M246.9,359.6L246.9,359.6C246.9,359.6,246.9,359.6,246.9,359.6C246.9,359.6,246.9,359.6,246.9,359.6
	L246.9,359.6L246.9,359.6L246.9,359.6C246.9,359.7,246.8,359.7,246.9,359.6L246.9,359.6L246.9,359.6L246.9,359.6
	C246.8,359.6,246.8,359.6,246.9,359.6c-0.1,0-0.1,0-0.1,0C246.8,359.6,246.8,359.6,246.9,359.6c-0.1-0.1,0-0.1,0-0.1l0,0
	C246.9,359.5,246.9,359.5,246.9,359.6C246.9,359.5,246.9,359.5,246.9,359.6C246.9,359.6,246.9,359.6,246.9,359.6z M246.8,359.6
	L246.8,359.6C246.8,359.6,246.8,359.6,246.8,359.6C246.8,359.6,246.8,359.6,246.8,359.6C246.8,359.6,246.8,359.6,246.8,359.6z"/>
<path fill="#E1E1E1" d="M247.7,358.7C247.7,358.7,247.7,358.7,247.7,358.7L247.7,358.7L247.7,358.7c0.1,0,0.1,0,0.1,0l0,0
	C247.7,358.7,247.7,358.7,247.7,358.7L247.7,358.7c0.1,0.1,0,0.1,0,0.1C247.7,358.8,247.7,358.7,247.7,358.7
	C247.6,358.7,247.6,358.7,247.7,358.7L247.7,358.7C247.6,358.7,247.7,358.7,247.7,358.7C247.7,358.6,247.7,358.7,247.7,358.7
	L247.7,358.7z M247.7,358.7C247.7,358.7,247.7,358.7,247.7,358.7C247.7,358.7,247.7,358.7,247.7,358.7L247.7,358.7
	C247.7,358.7,247.7,358.7,247.7,358.7z"/>
<path fill="#E1E1E1" d="M247.8,358.9C247.8,358.9,247.8,358.8,247.8,358.9L247.8,358.9C247.8,358.9,247.8,358.9,247.8,358.9
	L247.8,358.9c-0.1,0-0.1,0-0.1,0c0,0,0,0,0,0c0,0-0.1-0.1-0.1-0.1c0,0,0.1,0,0.1,0c0,0,0.1,0,0.1,0l0,0v0L247.8,358.9
	C247.8,358.8,247.8,358.8,247.8,358.9L247.8,358.9C247.8,358.8,247.8,358.8,247.8,358.9z"/>
<path fill="#E1E1E1" d="M247,359.6L247,359.6C247,359.6,247,359.6,247,359.6C247,359.6,247,359.6,247,359.6
	C247,359.6,247,359.6,247,359.6C247,359.6,247,359.6,247,359.6c-0.1,0.1-0.1,0.1,0,0.1c0,0,0,0,0,0c0,0-0.1,0-0.1-0.1h0
	c0,0,0.1,0,0-0.1c0,0,0,0,0-0.1C246.9,359.5,246.9,359.6,247,359.6L247,359.6z"/>
<path fill="#E1E1E1" d="M248,358.9C248,358.9,248,358.9,248,358.9c-0.1,0-0.1,0-0.2-0.1c0,0,0,0,0,0c0,0,0,0,0,0l0,0c0,0,0,0-0.1,0
	c0,0,0,0,0,0c0,0,0.1,0,0.1,0.1C247.9,358.8,247.9,358.8,248,358.9C248,358.9,248,358.9,248,358.9C248,358.9,248,358.9,248,358.9
	C248,358.9,248,358.9,248,358.9z"/>
<path fill="#E1E1E1" d="M247.5,359.5L247.5,359.5C247.6,359.5,247.6,359.5,247.5,359.5L247.5,359.5L247.5,359.5
	c0.1,0.1,0.1,0.1,0.1,0.1l0,0c0,0,0,0,0,0c0,0,0,0,0,0l0,0v0C247.5,359.6,247.5,359.6,247.5,359.5
	C247.5,359.5,247.5,359.5,247.5,359.5z"/>
<path fill="#E1E1E1" d="M247,359C247,359,247,358.9,247,359C247,358.9,247,358.9,247,359C247,359,247,359,247,359
	C247,358.9,247,358.9,247,359L247,359L247,359C247,359,247,359,247,359L247,359C247,359,247,359,247,359L247,359
	C247,359,247,359,247,359C247,359,247,359,247,359z"/>
<path fill="#E1E1E1" d="M247.8,358.8C247.8,358.8,247.8,358.7,247.8,358.8C247.8,358.7,247.8,358.7,247.8,358.8
	C247.9,358.7,247.9,358.7,247.8,358.8L247.8,358.8l0.1-0.1c0,0,0,0,0,0.1l0,0C247.9,358.7,247.9,358.7,247.8,358.8
	C247.9,358.7,247.9,358.8,247.8,358.8z"/>
<path fill="#E1E1E1" d="M247.6,359.4C247.7,359.4,247.7,359.4,247.6,359.4c0.1,0.1,0.1,0.1,0.1,0L247.6,359.4
	C247.7,359.4,247.7,359.4,247.6,359.4C247.7,359.4,247.7,359.4,247.6,359.4c0.1,0,0.1,0,0.1,0S247.7,359.4,247.6,359.4
	C247.7,359.4,247.7,359.4,247.6,359.4C247.6,359.4,247.6,359.4,247.6,359.4L247.6,359.4z"/>
<path d="M247.8,359.5L247.8,359.5C247.8,359.6,247.8,359.6,247.8,359.5C247.7,359.6,247.7,359.6,247.8,359.5
	C247.7,359.6,247.8,359.5,247.8,359.5z"/>
<path d="M247.8,359.6C247.8,359.6,247.8,359.6,247.8,359.6C247.7,359.6,247.7,359.6,247.8,359.6
	C247.7,359.6,247.7,359.6,247.8,359.6L247.8,359.6L247.8,359.6L247.8,359.6C247.7,359.6,247.7,359.6,247.8,359.6
	C247.7,359.6,247.7,359.6,247.8,359.6C247.8,359.6,247.8,359.6,247.8,359.6z"/>
<path d="M247.8,359.5C247.8,359.5,247.8,359.6,247.8,359.5C247.8,359.6,247.8,359.6,247.8,359.5z"/>
<path d="M246.9,358.8C246.9,358.8,246.9,358.8,246.9,358.8L246.9,358.8C246.9,358.8,246.9,358.8,246.9,358.8z"/>
<path d="M247,358.8L247,358.8C247,358.8,247,358.8,247,358.8C247,358.8,247,358.8,247,358.8C247,358.8,247,358.8,247,358.8z"/>
<path d="M247,358.7C247,358.7,247,358.7,247,358.7C247,358.7,247,358.7,247,358.7z"/>
<path d="M247,358.7L247,358.7C247,358.8,247,358.8,247,358.7z"/>
<path d="M246.8,359.6L246.8,359.6C246.8,359.6,246.8,359.6,246.8,359.6C246.8,359.6,246.8,359.6,246.8,359.6L246.8,359.6z"/>
<path d="M247.7,358.7C247.7,358.7,247.7,358.7,247.7,358.7C247.7,358.7,247.7,358.7,247.7,358.7"/>
</svg>
