<svg xmlns="http://www.w3.org/2000/svg" version="1.1" id="Layer_1" x="0" y="0" viewBox="0 0 658.1 1935.4" xml:space="preserve"><style>.s0{stop-color:#EE4036;stop-opacity:0.6;}.s1{stop-color:#ED473B;stop-opacity:0.5;}.s2{stop-color:#EB5947;stop-opacity:0.4;}.s3{stop-color:#E8785C;stop-opacity:0.2;}.s4{stop-color:#E3A279;stop-opacity:0;}.s5{stop-color:#E3A47A;stop-opacity:0;}</style><style type="text/css">
	.st0{fill:#0E2B47;}
	.st1{fill:#CDCFD1;}
	.st2{fill:#E3A47A;}
	.st3{fill:#050505;}
	.st4{fill:#603813;}
	.st5{opacity:0.6;}
	.st6{fill:#8A5D3B;}
	.st7{fill:#716558;}
	.st8{opacity:0.27;fill:#A0DAE4;}
	.st9{fill:#231F20;}
	.st10{fill:#B65D89;}
	.st11{fill:url(#SVGID_1_);}
	.st12{fill:url(#SVGID_2_);}
	.st13{fill:#A8A8A8;}
	.st14{fill:#989898;}
	.st15{fill:#431117;}
	.st16{fill:#686666;}
</style><path class="st0" d="M348.9 1931.5l-256.2-2.5c-3.7 0-6.7-3.1-6.7-6.8l6.1-633.7c0-3.7 3.1-6.7 6.8-6.7l256.2 2.5c3.7 0 6.7 3.1 6.7 6.8l-6.1 633.7C355.7 1928.5 352.6 1931.5 348.9 1931.5z"/><path class="st0" d="M633.7 1924.6l-255.9 10.8c-3.7 0.2-6.9-2.7-7-6.5l-26.8-633.2c-0.2-3.7 2.8-6.9 6.5-7l256-10.8c3.7-0.2 6.9 2.8 7 6.5l26.8 633.2C640.4 1921.2 637.5 1924.4 633.7 1924.6z"/><path class="st1" d="M147.4 716.2c-43.1 161.2-62.9 297.9-72.6 399.4 -13.3 138.8-6.2 192.8 33.2 232.6 53.3 54 139.5 55.1 237.2 56.4 102 1.3 205.3 2.7 262.7-58.7 28.7-30.7 45.3-60.1 20.4-230.2 -13.8-94-40.4-243.7-96.9-401.7C403.3 714.7 275.4 715.4 147.4 716.2z"/><ellipse class="st2" cx="339.3" cy="784.3" rx="100.6" ry="63.2"/><polygon class="st1" points="406.1 906.5 346.2 873.5 395.7 771.4 455.7 804.5 "/><path class="st3" d="M606.4 1346.1c-57 55.7-159.6 54.5-261 53.3 -97.1-1.2-182.6-2.2-235.6-51.1 -23.5-21.7-35.4-48.2-38.3-93.1 -3.9 78.9 6.9 116.3 38.3 145.3 53 49 138.6 50 235.6 51.2 101.3 1.2 204 2.5 261-53.3 21.7-21.2 36.5-41.9 31.3-118.9C634.2 1315.7 622.1 1330.7 606.4 1346.1z"/><path d="M83.6 1914.4c0 16.8 22.9 20 50.2 17.9 60-4.7 120.2-4.7 180.1 0 27.3 2.1 50.2-1.1 50.2-17.9 0-41.5-62.8-100.3-140.3-100.3S83.6 1872.8 83.6 1914.4z"/><path d="M364.2 1914.4c0 16.8 22.9 20 50.2 17.9 60-4.7 120.2-4.7 180.1 0 27.3 2.1 50.2-1.1 50.2-17.9 0-41.5-62.8-100.3-140.3-100.3S364.2 1872.8 364.2 1914.4z"/><path class="st2" d="M591.7 317c12.3-4.7 30 11.1 37.6 25 22.9 41.9-24.1 105.5-40.8 101.6C568 438.8 564 327.5 591.7 317z"/><path class="st2" d="M100.6 317c-12.3-4.7-30 11.1-37.6 25 -22.8 41.9 24.1 105.5 40.8 101.6C124.3 438.8 128.3 327.5 100.6 317z"/><path class="st4" d="M605.6 286.5c-4.5-22.9-1.5-46.4-0.1-69.7 1.4-23.3 1.1-47.4-9.5-68.7 -10.6-21.3-33.8-39.1-60-38.7 0.9-1.9 4-7.7 11.1-10.7 8.4-3.6 19.1-1.9 27 4.4 -7.3-7.6-17.8-16.9-32.1-25.6 -19.5-11.9-38.2-17.8-51.2-20.9 9.2-5.7 32.2-18.4 60.5-14.9 5.4 0.7 10.3 1.8 14.6 3.3 -5.9-5.3-15.1-12.4-27.8-18.5 -35.2-16.8-70.4-12.3-93-9.4 -45 5.8-78.3 23.6-97.2 35.9 10.1-21.7 33.1-38.3 59.1-42.6 5.4-1.4 10.9-2.8 16.3-4.2 -7.1-1.8-17.5-4-30-5.3 -32-3.1-55.1 2.5-95.3 12.9 0 0-64.4 17-104.2 39.9 -6.8 3.9-13 8.2-13 8.2 -2.7 1.9-5.3 3.8-7.6 5.6 -1.2-3.1-3.3-9.7-1.8-18.1 1.6-8.6 6.3-14.4 8.6-17 -5 1.3-13.5 4.1-21.4 10.7 -14.2 11.9-16.1 27.2-16.5 31.4 -1.8-1.9-4.5-5.1-6-9.7 -2.8-8.7 0.6-16 1.8-18.2 -5.5 3.3-39.1 24.3-43.3 61.7 -1.9 17.6 3.4 31.9 7.3 39.8 -7.2 18.9-16 47.3-19.5 82.3 -4.6 45.9 9.6 71.1 8.2 109.6C77.5 696.1 206.8 755.5 349.1 755.5c129.4 0 226.4-86.8 239.3-148.4 11.9-56.7 22.1-113.9 23.5-207.3C612.5 361.9 613 323.7 605.6 286.5z"/><path class="st2" d="M219.2 224.4c32.6-6.1 39.6-2.1 68.1-5.5 70.5-8.3 93.8-40.4 140.6-29.5 12.9 3 22.5 8.1 28.2 11.5 -4.4-1-9.4-1.5-14.9-1 -25.2 2.1-40 23.2-42.6 27.1 19.2-3.7 117.6-21.3 165.2 30.7 7.2 7.9 11.3 15.1 13.7 19.6 24.3 44.2 0.8 71.5-0.4 148.7 -0.7 45 7 59.5-7 84.3 -12.7 22.5-32.6 34.5-39.3 38.5 -38.7 22.8-79.5 17.5-121.1 15 -156.4-9.4-183.6 7.7-244-10.6 -27.7-8.4-38.7-38.9-43-65.5 -6.7-41.8-6.8-84.3-6.8-126.6 0-16.6 0-33.3 0-49.9 0-10.8 0-21.9 4.3-31.9 7.1-17 23-25.7 38-34C171.2 237.8 189.4 229.9 219.2 224.4z"/><g class="st5"><path class="st6" d="M382.7 474.8c0 0 0.8 1 2.4 2.8 1.6 1.8 3.9 4.5 6.7 8 2.8 3.6 6.2 7.8 9.5 13.3 0.4 0.7 0.8 1.4 1.2 2.2 0.2 0.4 0.4 0.8 0.5 1.2 0.1 0.2 0.2 0.5 0.2 0.7 0 0.2 0.1 0.3 0.1 0.6l0 0.3c0 0.4 0.1 0.8 0.1 1.3 0 0.5 0 1 0 1.4 0 0.5-0.1 0.9-0.1 1.4 -0.1 0.5-0.1 0.9-0.2 1.4 -0.4 1.9-1 3.7-1.9 5.4 -0.9 1.8-1.9 3.5-3.1 5.1 -4.8 6.5-11.4 12.1-19.1 16.9 -1 0.6-1.9 1.2-3 1.8 -1 0.6-2.1 1.1-3.2 1.6 -2.1 1-4.3 1.9-6.6 2.7 -4.5 1.6-9.3 2.8-14.3 3.5 -2.5 0.3-5 0.6-7.6 0.6 -2.6 0-5.2-0.1-7.8-0.3 -2.6-0.3-5.2-0.8-7.8-1.4 -2.6-0.7-5.1-1.6-7.5-2.7 -2.4-1.1-4.8-2.3-7.1-3.8l-0.8-0.5 -0.4-0.3 -0.1-0.1c0.1 0.1-0.2-0.1-0.2-0.1l-0.2-0.1 -1.5-1.1c-1-0.8-2-1.4-3.1-2.4 -1-0.9-2.1-1.8-3.1-2.8l-2.8-3 -2.5-3.2c-0.8-1.1-1.5-2.2-2.3-3.3 -2.9-4.6-5.2-9.5-7-14.5 -0.8-2.5-1.6-5.1-2.1-7.7 -0.3-1.3-0.5-2.6-0.7-3.9 -0.1-0.7-0.2-1.3-0.3-2l-0.1-1 0-0.2c0 0.2 0-0.4 0-0.3l0-0.1 0-0.5 0-0.9c0-0.3 0-0.6 0-1 0.1-0.7 0.1-1.5 0.2-2.2 0.1-0.7 0.2-1.4 0.3-2.1 0.2-0.7 0.3-1.4 0.5-2.1 0.8-2.7 2.1-5.3 3.6-7.5 3-4.5 6.8-8 10.1-11.4 3.4-3.3 6.3-6.6 7.7-10.3 0.7-1.8 1-3.7 1-5.7 0-1-0.1-1.9-0.4-2.9 -0.2-1.1-0.4-2.2-0.6-3.3 -0.2-1.1-0.4-2.2-0.6-3.2 -0.1-1.1-0.3-2.2-0.4-3.4 -0.3-2.2-0.4-4.4-0.5-6.5 -0.2-4.2 0-8.3 0.3-12.2 0.6-7.8 1.8-14.8 2.9-21 1.1-6.2 2.2-11.5 2.8-15.9 0.7-4.4 1-7.9 0.9-10.3 0-0.6 0-1.1-0.1-1.6 0-0.5-0.1-0.8-0.1-1.1 0-0.6-0.1-0.9-0.1-0.9s0.1 0.3 0.2 0.9c0.1 0.3 0.1 0.7 0.2 1.1 0.1 0.5 0.2 1 0.2 1.6 0.2 2.4 0.4 6 0 10.5 -0.3 4.5-0.9 9.9-1.7 16.1 -0.7 6.2-1.4 13.2-1.6 20.8 -0.1 3.8 0 7.7 0.3 11.8 0.1 1 0.2 2 0.3 3.1 0.1 1 0.3 2 0.4 3 0.2 1 0.3 2 0.5 3.1 0.3 1.1 0.5 2.1 0.8 3.2 0.3 1.1 0.5 2.2 0.8 3.2 0.3 1.2 0.5 2.5 0.6 3.7 0.2 2.6-0.1 5.3-1 7.8 -0.9 2.5-2.2 4.8-3.8 6.9 -1.5 2.1-3.2 3.9-4.9 5.6 -3.4 3.5-6.7 6.9-9.1 10.6 -2.4 3.8-3.6 7.9-3.4 12.5l0 0.5 0 0.1c0 0.1 0-0.3 0-0.1l0 0.2 0.1 0.9c0.1 0.6 0.2 1.2 0.3 1.8 0.2 1.2 0.4 2.4 0.7 3.6 0.5 2.4 1.2 4.7 2 7 1.6 4.6 3.7 9 6.4 13.1 0.7 1 1.3 2 2.1 3l2.3 2.8 2.5 2.6c0.8 0.9 1.7 1.6 2.6 2.4 0.8 0.8 1.9 1.6 2.9 2.3l1.5 1.2 0.2 0.1c0.1 0-0.2-0.1 0 0l0.1 0.1 0.4 0.2 0.8 0.5c2 1.3 4.1 2.4 6.3 3.4 2.2 1 4.4 1.7 6.6 2.4 2.3 0.6 4.6 1.1 6.9 1.4 2.3 0.3 4.6 0.5 7 0.5 2.3 0 4.6-0.1 6.9-0.4 4.6-0.5 9-1.6 13.3-2.9 2.1-0.7 4.2-1.4 6.2-2.3 1-0.4 2-0.9 2.9-1.3 0.9-0.5 1.9-1 2.8-1.5 3.7-2.1 7.2-4.5 10.3-7 3.2-2.5 6-5.2 8.3-8 2.3-2.9 4.1-5.9 4.9-9 0.1-0.4 0.2-0.8 0.3-1.2 0.1-0.4 0.2-0.8 0.2-1.1 0-0.4 0.1-0.7 0.1-1.1 0-0.4 0-0.8 0-1.2l0-0.3c0 0.2 0 0 0 0 0-0.1-0.1-0.3-0.1-0.5 -0.1-0.3-0.2-0.7-0.4-1 -0.3-0.7-0.6-1.4-0.9-2.1 -2.8-5.4-5.9-10-8.3-13.7 -2.5-3.7-4.5-6.6-5.9-8.6C383.4 475.8 382.7 474.8 382.7 474.8z"/></g><ellipse class="st7" cx="209.1" cy="334.8" rx="21.6" ry="22"/><ellipse cx="209.1" cy="334.8" rx="9.6" ry="9.8"/><ellipse class="st7" cx="427.9" cy="334.8" rx="21.6" ry="22"/><ellipse cx="427.9" cy="334.8" rx="9.6" ry="9.8"/><path class="st8" d="M280.2 296.9h-84.2c-18.2 0-33 15.2-33 33.7v34.8c0 18.5 14.9 33.7 33 33.7h84.2c18.2 0 33-15.2 33-33.7v-34.8C313.3 312.1 298.4 296.9 280.2 296.9z"/><path class="st8" d="M504.5 296.9h-95c-15.2 0-27.7 12.7-27.7 28.2v45.8c0 15.5 12.5 28.2 27.7 28.2h95c15.2 0 27.7-12.7 27.7-28.2v-45.8C532.2 309.6 519.7 296.9 504.5 296.9z"/><path class="st9" d="M512 296.2H393.5l-16 4.4c-1.4 0.4-2.9 0.6-4.4 0.6h-50.9c-1.2 0-2.4-0.1-3.5-0.4l-21-4.6h-111.3c-12.9 0-23.4 10.8-23.4 23.9v0c0 1.3 0.8 2.4 1.8 3 4.5-13.2 16.8-22.8 31.2-22.8h84.2c11.1 0 16.2-3.4 28.1 12.5 4.3 5.8 5.5-7.7 12.2-7.7h55c7 0 6.2 14.3 10.6 7 5.1-8.4 13.6-11.8 23.5-11.8h95c13.1 0 24.1 9.4 26.9 21.9 0.5-0.6 0.7-1.3 0.7-2.1v0C532.2 307 524.9 296.2 512 296.2z"/><path d="M179.1 298.4l-94.4 15.9c-5.8 1-4.5 9.2 1.3 8.2l91-17.5C182.9 304 184.9 297.4 179.1 298.4z"/><path d="M520.6 298.9l91.2 15.3c5.6 0.9 4.3 9.2-1.3 8.2l-87.9-17C516.9 304.5 515 298 520.6 298.9z"/><path class="st10" d="M290.8 607.3c38.9-1.4 77.9-2.7 116.8-4.1 -10.7 7.4-34.2 12.7-59.6 13.5C323.3 617.4 300.9 613.8 290.8 607.3z"/><radialGradient id="SVGID_1_" cx="800.6" cy="-567" r="289.7" gradientTransform="matrix(0.3231 0 0 0.1977 226.859 574.3644)" gradientUnits="userSpaceOnUse"><stop offset="0" class="s0"/><stop offset="0.2" class="s1"/><stop offset="0.4" class="s2"/><stop offset="0.7" class="s3"/><stop offset="1" class="s4"/><stop offset="1" class="s5"/></radialGradient><ellipse class="st11" cx="485.5" cy="462.3" rx="118.9" ry="59.4"/><radialGradient id="SVGID_2_" cx="-79.4" cy="-577.3" r="289.7" gradientTransform="matrix(0.3231 0 0 0.1977 226.859 573.0047)" gradientUnits="userSpaceOnUse"><stop offset="0" class="s0"/><stop offset="0.2" class="s1"/><stop offset="0.4" class="s2"/><stop offset="0.7" class="s3"/><stop offset="1" class="s4"/><stop offset="1" class="s5"/></radialGradient><ellipse class="st12" cx="201.2" cy="458.9" rx="118.9" ry="59.4"/><path class="st1" d="M119.2 1059.3c-20.5 26.6-125.5-41.8-113.7-75.4 99.6-283.2 128.2-265.7 145.6-259.6 9.9 3.5 15.1 36 52.4 72.1 10.8 10.5 19.1 16.2 25.6 20.1 15.4 9.1 24.4 28.6 21 45.6C242.5 899.3 232.5 896.4 119.2 1059.3L119.2 1059.3 119.2 1059.3z"/><path class="st2" d="M145.9 1295.9c18.7 31.8 27.1 62.8 18.7 69.4 -8.4 6.6-30.4-13.9-49.2-45.6 -18.7-31.8-27.1-62.8-18.7-69.3S127.2 1264.1 145.9 1295.9z"/><path class="st2" d="M144.8 1326.2c3.5 53.4-17 97.8-45.9 99.3s-55-40.6-58.5-93.9c-3.5-53.4 17-97.8 45.9-99.3S141.3 1272.8 144.8 1326.2z"/><path class="st1" d="M133.1 1263.8c-0.2 36.5-84.2 63-91.6 27.7C-20.4 993.9 2.1 985.8 13.9 977.3c6.7-4.8 22.7 16.6 57.4 16.5 10.1 0 16.8-1.9 21.9-3.8 11.9-4.6 24.7 3.8 29.8 19.7C134 1044.7 127.5 1049.9 133.1 1263.8L133.1 1263.8 133.1 1263.8z"/><path class="st13" d="M32.5 1249.8c1 12.2 2.1 24.8 3.3 38.2 3.1 34.1 92 21.8 96.7-12.2l0 0c1.5-14.6-0.3-28.6 1-41.2C112.9 1259.9 53.6 1269.4 32.5 1249.8z"/><path class="st1" d="M531 1040.7c18.2 27.2 128.1-26.3 119.1-59.2 -75.7-277.1-105.5-263.6-123.3-259.7 -10.1 2.2-18 32.3-58 62.4 -11.6 8.8-20.3 13.2-27.1 16.2 -16 7-26.6 24.4-24.6 40.8C421.6 877.3 431.7 875.5 531 1040.7L531 1040.7 531 1040.7z"/><path class="st2" d="M529 1293.8c-16.5 31.6-22.6 61.5-13.7 66.7 8.9 5.3 29.5-16.1 45.9-47.7s22.6-61.5 13.7-66.7C566 1240.9 545.5 1262.2 529 1293.8z"/><path class="st2" d="M534.2 1317.6c0.4 50.2 24.2 89.7 53.2 88.2 29-1.5 52.2-43.5 51.8-93.8s-24.2-89.7-53.2-88.1C557.1 1225.3 533.9 1267.3 534.2 1317.6z"/><path class="st1" d="M541.5 1258c2.8 34 89 50.3 93.8 16.5 40.4-284.4 17.3-289.7 4.9-296.4 -7.1-3.8-21.6 17.9-56.3 21.2 -10.1 1-16.9-0.1-22.2-1.4 -12.3-3.1-24.5 6-28.4 21.5C524.6 1053.3 531.5 1057.6 541.5 1258L541.5 1258 541.5 1258z"/><path class="st13" d="M640.2 1238.7c-1.6 12.1-3.3 24.6-5.2 37.9 -4.8 33.9-91.2 17.6-94.1-16.6l0 0c-0.7-14.7-1.4-28.2-2.1-40.9C557.6 1245.6 618.5 1257.3 640.2 1238.7z"/><rect x="308" y="871.2" class="st13" width="69.6" height="533.3"/><polygon class="st14" points="531.8 715.3 436.2 827.1 396.3 769.7 "/><polygon class="st13" points="377 870.8 321 910.2 241.2 808.7 297.2 769.3 "/><circle class="st15" cx="343.2" cy="889.4" r="14.8"/><circle class="st15" cx="343.2" cy="1042.5" r="14.8"/><circle class="st15" cx="343.2" cy="1195.7" r="14.8"/><circle class="st15" cx="343.2" cy="1348.9" r="14.8"/><path class="st16" d="M405.2 1463.9H303.8c-0.9 0-1.6-0.7-1.6-1.6v-67.9c0-0.9 0.7-1.6 1.6-1.6h101.4c0.9 0 1.6 0.7 1.6 1.6v67.9C406.8 1463.2 406.1 1463.9 405.2 1463.9z"/><polygon class="st14" points="147.2 715.5 257 842.5 297.1 770 "/></svg>